{"glyphs":{"0":{"ha":733,"x_min":51,"x_max":682,"o":"m 367 -17 q 238 13 296 -17 q 138 101 179 43 q 74 246 97 160 q 51 444 51 332 q 74 642 51 557 q 138 784 97 726 q 238 870 179 842 q 367 899 296 899 q 496 870 438 899 q 595 784 554 842 q 659 642 636 726 q 682 444 682 557 q 659 246 682 332 q 595 101 636 160 q 496 13 554 43 q 367 -17 438 -17 m 367 142 q 415 155 393 142 q 454 203 438 168 q 480 296 471 238 q 489 444 489 354 q 480 592 489 535 q 454 683 471 650 q 415 728 438 715 q 367 740 393 740 q 319 728 342 740 q 281 683 297 715 q 254 592 264 650 q 244 444 244 535 q 254 296 244 354 q 281 203 264 238 q 319 155 297 168 q 367 142 342 142 z "},"1":{"ha":733,"x_min":97,"x_max":658,"o":"m 97 165 l 289 165 l 289 675 l 124 675 l 124 801 q 246 835 196 815 q 343 882 296 854 l 493 882 l 493 165 l 658 165 l 658 0 l 97 0 l 97 165 z "},"2":{"ha":733,"x_min":42,"x_max":672,"o":"m 51 117 q 206 265 136 196 q 327 394 276 333 q 406 506 378 454 q 435 606 435 558 q 401 705 435 671 q 310 739 368 739 q 224 712 261 739 q 153 649 186 685 l 42 758 q 175 863 107 828 q 338 899 243 899 q 456 878 403 899 q 549 822 510 858 q 608 733 588 785 q 629 618 629 682 q 606 505 629 563 q 542 390 582 447 q 452 274 503 332 q 347 161 401 217 q 422 169 381 165 q 494 172 463 172 l 672 172 l 672 0 l 51 0 l 51 117 z "},"3":{"ha":733,"x_min":31,"x_max":665,"o":"m 125 238 q 213 174 165 199 q 318 149 261 149 q 422 176 383 149 q 461 253 461 203 q 451 306 461 282 q 414 345 440 329 q 342 370 388 361 q 224 379 296 379 l 224 524 q 323 532 283 524 q 387 556 363 540 q 422 594 411 572 q 432 642 432 615 q 404 713 432 688 q 324 739 376 739 q 238 718 276 739 q 158 661 200 697 l 56 786 q 184 869 117 839 q 333 899 251 899 q 458 883 401 899 q 553 835 514 867 q 615 760 593 804 q 638 657 638 715 q 599 540 638 588 q 490 461 561 492 l 490 456 q 616 380 567 433 q 665 240 665 326 q 639 131 665 179 q 568 51 613 83 q 464 1 524 18 q 338 -17 404 -17 q 154 17 229 -17 q 31 108 79 51 l 125 238 z "},"4":{"ha":733,"x_min":26,"x_max":700,"o":"m 408 367 l 408 510 q 411 609 408 553 q 417 707 414 665 l 411 707 q 376 633 394 671 q 339 558 358 596 l 222 367 l 408 367 m 700 211 l 599 211 l 599 0 l 408 0 l 408 211 l 26 211 l 26 351 l 349 882 l 599 882 l 599 367 l 700 367 l 700 211 z "},"5":{"ha":733,"x_min":32,"x_max":667,"o":"m 124 236 q 210 174 164 200 q 314 149 257 149 q 422 183 382 149 q 463 286 463 218 q 424 388 463 353 q 324 422 386 422 q 289 420 304 422 q 259 413 274 418 q 228 399 244 407 q 193 378 213 390 l 101 436 l 126 882 l 626 882 l 626 710 l 303 710 l 288 544 q 335 560 313 556 q 386 565 358 565 q 494 549 443 565 q 583 499 544 532 q 644 414 622 465 q 667 292 667 363 q 640 161 667 218 q 569 65 614 104 q 466 4 525 25 q 343 -17 407 -17 q 160 19 235 -17 q 32 107 85 54 l 124 236 z "},"6":{"ha":733,"x_min":57,"x_max":683,"o":"m 386 136 q 465 170 432 136 q 497 279 497 204 q 465 378 497 350 q 382 407 432 407 q 314 388 349 407 q 249 319 279 368 q 269 232 256 267 q 301 176 283 197 q 341 145 319 154 q 386 136 363 136 m 564 671 q 503 715 540 696 q 426 733 465 733 q 358 719 390 733 q 302 673 326 706 q 263 588 278 640 q 244 458 247 535 q 283 498 261 481 q 329 527 306 515 q 376 545 353 539 q 421 551 400 551 q 526 535 478 551 q 609 485 574 518 q 664 400 644 451 q 683 279 683 349 q 660 156 683 210 q 597 63 636 101 q 503 3 557 24 q 390 -17 450 -17 q 266 8 326 -17 q 159 86 206 33 q 85 222 113 139 q 57 421 57 304 q 87 635 57 544 q 166 783 117 725 q 280 870 215 842 q 414 899 344 899 q 565 867 501 899 q 671 793 629 836 l 564 671 z "},"7":{"ha":733,"x_min":61,"x_max":675,"o":"m 221 0 q 241 202 226 110 q 283 378 256 294 q 352 543 310 463 q 457 710 394 624 l 61 710 l 61 882 l 675 882 l 675 757 q 552 583 599 664 q 480 415 506 501 q 443 228 454 328 q 426 0 432 129 l 221 0 l 221 0 z "},"8":{"ha":733,"x_min":58,"x_max":678,"o":"m 233 249 q 274 158 233 190 q 369 125 314 125 q 454 152 421 125 q 488 235 488 179 q 474 285 488 264 q 436 323 461 306 q 377 356 411 340 q 301 389 343 371 q 253 325 272 361 q 233 249 233 289 m 421 514 q 475 643 475 576 q 447 726 475 694 q 368 757 418 757 q 299 732 328 757 q 269 656 269 707 q 311 571 269 601 q 421 514 353 540 m 58 225 q 102 357 58 306 q 208 442 146 408 l 208 447 q 124 535 157 486 q 90 656 90 585 q 111 756 90 711 q 169 833 132 801 q 259 882 207 865 q 372 899 311 899 q 482 881 432 899 q 567 833 532 864 q 621 756 601 801 q 640 657 640 711 q 606 544 640 593 q 525 464 571 494 l 525 458 q 633 369 589 424 q 678 228 678 315 q 656 131 678 175 q 592 53 633 86 q 494 2 551 21 q 365 -17 436 -17 q 242 1 299 -17 q 145 50 186 18 q 81 126 104 82 q 58 225 58 171 z "},"9":{"ha":733,"x_min":47,"x_max":675,"o":"m 350 475 q 418 494 383 475 q 482 563 453 514 q 430 706 468 667 q 344 746 392 746 q 267 712 300 746 q 233 603 233 678 q 267 503 233 532 q 350 475 300 475 m 168 211 q 228 167 190 186 q 304 149 265 149 q 374 163 342 149 q 430 209 406 176 q 469 294 454 242 q 486 424 483 346 q 447 384 469 401 q 401 355 425 367 q 354 337 378 343 q 310 331 331 331 q 205 347 253 331 q 122 397 157 364 q 67 482 88 431 q 47 603 47 533 q 71 726 47 671 q 134 819 94 781 q 227 878 174 858 q 340 899 281 899 q 465 874 404 899 q 572 796 525 849 q 647 660 618 743 q 675 461 675 578 q 645 247 675 338 q 566 99 615 157 q 452 12 517 40 q 318 -17 388 -17 q 166 15 231 -17 q 60 89 101 47 l 168 211 z "},"\u0000":{"ha":0,"x_min":0,"x_max":0,"o":""},"\r":{"ha":289,"x_min":0,"x_max":0,"o":""}," ":{"ha":289,"x_min":0,"x_max":0,"o":""},"A":{"ha":796,"x_min":-8,"x_max":804,"o":"m 490 375 l 469 458 q 432 603 450 526 q 396 750 414 679 l 390 750 q 356 602 374 678 q 319 458 339 526 l 297 375 l 490 375 m 532 215 l 256 215 l 200 0 l -8 0 l 275 906 l 521 906 l 804 0 l 588 0 l 532 215 z "},"B":{"ha":840,"x_min":107,"x_max":794,"o":"m 107 906 l 417 906 q 548 895 488 906 q 653 858 608 885 q 724 789 699 832 q 750 681 750 746 q 741 619 750 650 q 714 563 732 589 q 667 515 696 536 q 599 485 638 494 l 599 479 q 745 410 696 461 q 794 267 794 358 q 767 147 794 197 q 692 65 740 97 q 581 16 644 32 q 443 0 517 0 l 107 0 l 107 906 m 407 540 q 516 570 482 540 q 550 651 550 600 q 515 725 550 703 q 408 747 481 747 l 311 747 l 311 540 l 407 540 m 426 158 q 594 282 594 158 q 553 369 594 342 q 426 396 511 396 l 311 396 l 311 158 l 426 158 z "},"C":{"ha":808,"x_min":64,"x_max":778,"o":"m 64 447 q 99 648 64 560 q 192 797 133 736 q 330 890 251 858 q 496 922 408 922 q 649 887 581 922 q 764 804 718 851 l 651 678 q 581 728 617 710 q 499 746 546 746 q 410 726 451 746 q 339 668 369 706 q 291 576 308 631 q 274 454 274 522 q 333 237 274 314 q 493 160 393 160 q 590 182 549 160 q 665 240 632 204 l 778 117 q 648 17 721 50 q 490 -17 575 -17 q 325 13 403 -17 q 189 101 247 43 q 97 247 131 160 q 64 447 64 333 z "},"D":{"ha":882,"x_min":107,"x_max":817,"o":"m 107 906 l 363 906 q 550 879 467 906 q 693 798 633 853 q 785 658 753 743 q 817 457 817 574 q 785 254 817 340 q 694 112 753 168 q 555 28 636 56 q 374 0 474 0 l 107 0 l 107 906 m 350 165 q 456 181 408 165 q 536 230 503 196 q 588 319 569 264 q 607 457 607 375 q 588 592 607 538 q 536 680 569 647 q 456 726 503 713 q 350 740 408 740 l 311 740 l 311 165 l 350 165 z "},"E":{"ha":761,"x_min":107,"x_max":688,"o":"m 107 906 l 674 906 l 674 733 l 311 733 l 311 551 l 619 551 l 619 381 l 311 381 l 311 172 l 688 172 l 688 0 l 107 0 l 107 906 z "},"F":{"ha":728,"x_min":107,"x_max":678,"o":"m 107 906 l 678 906 l 678 733 l 311 733 l 311 524 l 625 524 l 625 351 l 311 351 l 311 0 l 107 0 l 107 906 z "},"G":{"ha":886,"x_min":64,"x_max":806,"o":"m 64 447 q 99 648 64 560 q 195 797 135 736 q 337 890 256 858 q 510 922 418 922 q 676 886 606 922 q 790 804 746 850 l 678 678 q 608 728 644 710 q 513 746 571 746 q 416 726 460 746 q 340 668 372 706 q 291 576 308 631 q 274 454 274 522 q 337 237 274 314 q 528 160 400 160 q 582 167 556 160 q 625 188 608 174 l 625 343 l 475 343 l 475 510 l 806 510 l 806 93 q 678 15 757 47 q 503 -17 599 -17 q 331 13 411 -17 q 192 101 251 43 q 98 247 132 160 q 64 447 64 333 z "},"H":{"ha":936,"x_min":107,"x_max":829,"o":"m 107 906 l 311 906 l 311 557 l 624 557 l 624 906 l 829 906 l 829 0 l 624 0 l 624 378 l 311 378 l 311 0 l 107 0 l 107 906 z "},"I":{"ha":418,"x_min":107,"x_max":311,"o":"m 107 906 l 311 906 l 311 0 l 107 0 l 107 906 z "},"J":{"ha":707,"x_min":22,"x_max":604,"o":"m 161 250 q 219 182 186 204 q 288 160 253 160 q 372 194 343 160 q 400 318 400 228 l 400 906 l 604 906 l 604 301 q 587 178 604 236 q 534 76 569 119 q 444 8 499 33 q 314 -17 389 -17 q 140 24 210 -17 q 22 147 69 64 l 161 250 z "},"K":{"ha":853,"x_min":107,"x_max":861,"o":"m 107 906 l 311 906 l 311 535 l 317 535 l 586 906 l 811 906 l 538 544 l 861 0 l 638 0 l 417 382 l 311 243 l 311 0 l 107 0 l 107 906 z "},"L":{"ha":719,"x_min":107,"x_max":669,"o":"m 107 906 l 311 906 l 311 172 l 669 172 l 669 0 l 107 0 l 107 906 z "},"M":{"ha":1058,"x_min":107,"x_max":951,"o":"m 107 906 l 324 906 l 475 499 l 529 340 l 535 340 l 589 499 l 736 906 l 951 906 l 951 0 l 761 0 l 761 332 q 764 406 761 365 q 771 487 767 446 q 779 567 775 528 q 788 640 783 607 l 782 640 l 707 431 l 568 79 l 486 79 l 347 431 l 275 640 l 269 640 q 278 567 274 607 q 285 487 282 528 q 292 406 289 446 q 294 332 294 365 l 294 0 l 107 0 l 107 906 z "},"N":{"ha":924,"x_min":107,"x_max":817,"o":"m 107 906 l 317 906 l 553 456 l 642 256 l 647 256 q 631 417 640 328 q 622 586 622 506 l 622 906 l 817 906 l 817 0 l 607 0 l 371 451 l 282 649 l 276 649 q 292 488 283 574 q 301 321 301 401 l 301 0 l 107 0 l 107 906 z "},"O":{"ha":950,"x_min":64,"x_max":886,"o":"m 475 -17 q 308 16 383 -17 q 178 110 232 49 q 94 258 124 171 q 64 457 64 346 q 94 655 64 568 q 178 801 124 742 q 308 891 232 860 q 475 922 383 922 q 642 891 567 922 q 772 800 718 860 q 856 653 826 740 q 886 457 886 567 q 856 258 886 346 q 772 110 826 171 q 642 16 718 49 q 475 -17 567 -17 m 475 160 q 622 240 568 160 q 676 457 676 319 q 622 669 676 593 q 475 746 568 746 q 328 669 382 746 q 274 457 274 593 q 328 240 274 319 q 475 160 382 160 z "},"P":{"ha":842,"x_min":107,"x_max":792,"o":"m 107 906 l 438 906 q 576 891 511 906 q 688 842 640 876 q 764 752 736 808 q 792 614 792 696 q 763 476 792 535 q 686 381 735 418 q 574 325 638 343 q 438 307 510 307 l 311 307 l 311 0 l 107 0 l 107 906 m 425 469 q 592 614 592 469 q 549 714 592 685 q 425 743 507 743 l 311 743 l 311 469 l 425 469 z "},"Q":{"ha":950,"x_min":64,"x_max":933,"o":"m 274 457 q 328 231 274 311 q 475 150 382 150 q 622 231 568 150 q 676 457 676 311 q 622 669 676 593 q 475 746 568 746 q 328 669 382 746 q 274 457 274 593 m 933 -218 q 867 -239 908 -231 q 774 -247 826 -247 q 530 -181 629 -247 q 382 -7 431 -114 q 251 47 310 8 q 150 144 192 85 q 86 283 108 204 q 64 457 64 361 q 94 655 64 568 q 178 801 124 742 q 308 891 232 860 q 475 922 383 922 q 642 891 567 922 q 772 800 718 860 q 856 653 826 740 q 886 457 886 567 q 808 156 886 274 q 599 0 731 38 q 685 -66 631 -47 q 797 -85 739 -85 q 852 -80 826 -85 q 897 -68 878 -75 l 933 -218 z "},"R":{"ha":856,"x_min":107,"x_max":826,"o":"m 311 489 l 417 489 q 540 523 497 489 q 582 624 582 557 q 540 717 582 690 q 417 743 497 743 l 311 743 l 311 489 m 597 0 l 424 326 l 311 326 l 311 0 l 107 0 l 107 906 l 433 906 q 569 892 506 906 q 679 845 632 878 q 754 758 726 813 q 782 624 782 704 q 738 459 782 524 q 621 363 694 394 l 826 0 l 597 0 z "},"S":{"ha":772,"x_min":49,"x_max":725,"o":"m 165 254 q 273 186 214 213 q 389 160 332 160 q 484 183 453 160 q 515 247 515 207 q 506 283 515 268 q 480 310 497 299 q 438 333 463 322 q 385 356 414 343 l 267 406 q 199 442 232 419 q 141 494 167 464 q 100 563 115 524 q 85 653 85 603 q 108 758 85 708 q 175 844 132 807 q 277 901 218 881 q 407 922 336 922 q 563 892 486 922 q 699 803 640 861 l 594 674 q 506 727 550 708 q 407 746 461 746 q 323 724 354 746 q 292 664 292 703 q 302 628 292 643 q 331 602 313 614 q 375 580 350 590 q 429 557 400 569 l 546 510 q 677 418 629 476 q 725 264 725 360 q 702 156 725 207 q 635 67 679 106 q 528 6 592 29 q 383 -17 464 -17 q 206 16 294 -17 q 49 114 118 49 l 165 254 z "},"T":{"ha":772,"x_min":35,"x_max":738,"o":"m 283 733 l 35 733 l 35 906 l 738 906 l 738 733 l 489 733 l 489 0 l 283 0 l 283 733 z "},"U":{"ha":924,"x_min":101,"x_max":821,"o":"m 101 906 l 307 906 l 307 399 q 347 213 307 265 q 464 160 388 160 q 582 213 540 160 q 624 399 624 265 l 624 906 l 821 906 l 821 419 q 730 88 821 192 q 464 -17 639 -17 q 194 88 288 -17 q 101 419 101 192 l 101 906 z "},"V":{"ha":772,"x_min":-10,"x_max":782,"o":"m -10 906 l 207 906 l 315 483 q 352 338 336 408 q 389 193 368 268 l 394 193 q 431 338 414 268 q 467 483 447 408 l 574 906 l 782 906 l 510 0 l 264 0 l -10 906 z "},"W":{"ha":1129,"x_min":19,"x_max":1111,"o":"m 19 906 l 229 906 l 292 482 q 310 340 300 411 q 328 196 319 268 l 333 196 q 360 340 347 268 q 388 482 374 411 l 485 906 l 658 906 l 756 482 q 783 341 769 413 q 810 196 796 269 l 815 196 q 834 340 825 269 q 853 482 843 411 l 915 906 l 1111 906 l 950 0 l 693 0 l 604 411 q 584 517 593 464 q 568 621 575 571 l 563 621 q 545 517 554 571 q 525 411 536 464 l 440 0 l 188 0 l 19 906 z "},"X":{"ha":788,"x_min":15,"x_max":772,"o":"m 267 465 l 31 906 l 258 906 l 338 735 q 368 667 353 703 q 403 589 383 632 l 408 589 q 438 667 424 632 q 467 735 453 703 l 539 906 l 757 906 l 522 456 l 772 0 l 544 0 l 454 185 q 422 256 438 221 q 386 333 406 292 l 381 333 q 350 256 365 292 q 319 185 335 221 l 235 0 l 15 0 l 267 465 z "},"Y":{"ha":729,"x_min":-11,"x_max":740,"o":"m 263 322 l -11 906 l 208 906 l 289 697 q 326 598 308 646 q 363 497 343 550 l 368 497 q 406 598 388 550 q 444 697 425 646 l 526 906 l 740 906 l 467 322 l 467 0 l 263 0 l 263 322 z "},"Z":{"ha":751,"x_min":50,"x_max":706,"o":"m 50 124 l 450 733 l 88 733 l 88 906 l 701 906 l 701 782 l 301 172 l 706 172 l 706 0 l 50 0 l 50 124 z "},"a":{"ha":742,"x_min":65,"x_max":657,"o":"m 65 192 q 157 361 65 300 q 453 443 249 422 q 425 516 450 489 q 344 543 400 543 q 256 526 300 543 q 161 481 211 510 l 89 615 q 228 681 156 656 q 383 706 301 706 q 587 630 517 706 q 657 394 657 554 l 657 0 l 490 0 l 475 71 l 471 71 q 377 8 426 32 q 269 -17 328 -17 q 185 -1 222 -17 q 121 44 147 15 q 80 110 94 72 q 65 192 65 147 m 260 207 q 281 158 260 174 q 339 142 303 142 q 400 157 375 142 q 453 200 425 172 l 453 321 q 301 276 343 306 q 260 207 260 247 z "},"b":{"ha":796,"x_min":90,"x_max":742,"o":"m 90 974 l 294 974 l 294 735 l 289 629 q 376 685 329 665 q 471 706 422 706 q 583 681 533 706 q 669 610 633 656 q 723 501 704 565 q 742 357 742 436 q 717 199 742 268 q 652 81 693 129 q 559 8 611 33 q 451 -17 507 -17 q 359 6 406 -17 q 272 72 313 28 l 267 72 l 250 0 l 90 0 l 90 974 m 294 194 q 350 160 322 169 q 404 150 378 150 q 494 198 457 150 q 532 353 532 246 q 413 539 532 539 q 294 476 351 539 l 294 194 z "},"c":{"ha":649,"x_min":50,"x_max":619,"o":"m 50 344 q 79 498 50 431 q 158 611 108 565 q 272 681 207 657 q 408 706 338 706 q 524 684 472 706 q 610 626 575 663 l 517 500 q 421 540 468 540 q 303 488 346 540 q 260 344 260 435 q 303 201 260 254 q 414 149 347 149 q 482 164 451 149 q 538 199 513 179 l 619 69 q 508 4 569 25 q 390 -17 447 -17 q 256 8 318 -17 q 149 78 194 32 q 76 191 103 124 q 50 344 50 258 z "},"d":{"ha":796,"x_min":54,"x_max":706,"o":"m 54 344 q 78 496 54 429 q 142 609 103 563 q 234 681 182 656 q 340 706 286 706 q 436 686 399 706 q 510 633 474 667 l 501 739 l 501 974 l 706 974 l 706 0 l 539 0 l 525 68 l 519 68 q 435 8 483 32 q 336 -17 386 -17 q 220 8 272 -17 q 131 80 168 33 q 74 193 94 126 q 54 344 54 260 m 264 347 q 297 197 264 244 q 389 150 329 150 q 449 164 422 150 q 501 213 476 178 l 501 494 q 444 529 474 519 q 388 539 415 539 q 301 492 339 539 q 264 347 264 446 z "},"e":{"ha":719,"x_min":50,"x_max":668,"o":"m 50 344 q 78 495 50 428 q 151 609 106 563 q 254 681 196 656 q 375 706 313 706 q 503 681 449 706 q 595 611 558 656 q 650 506 632 567 q 668 375 668 446 q 665 324 668 347 q 660 289 663 301 l 247 289 q 309 174 261 210 q 426 139 357 139 q 575 185 500 139 l 643 61 q 526 4 590 25 q 399 -17 461 -17 q 261 8 325 -17 q 150 78 197 32 q 76 192 103 125 q 50 344 50 258 m 494 415 q 468 513 494 475 q 379 550 442 550 q 294 517 331 550 q 246 415 257 485 l 494 415 z "},"f":{"ha":474,"x_min":33,"x_max":517,"o":"m 479 815 q 408 829 440 829 q 350 806 371 829 q 329 731 329 783 l 329 689 l 453 689 l 453 529 l 329 529 l 329 0 l 125 0 l 125 529 l 33 529 l 33 681 l 125 688 l 125 725 q 138 828 125 779 q 182 913 151 876 q 261 969 213 949 q 379 990 310 990 q 458 982 422 990 q 517 965 493 974 l 479 815 z "},"g":{"ha":742,"x_min":47,"x_max":721,"o":"m 215 -86 q 257 -145 215 -125 q 368 -165 299 -165 q 482 -141 438 -165 q 526 -81 526 -117 q 499 -37 526 -49 q 421 -26 472 -26 l 350 -26 q 292 -24 314 -26 q 253 -18 269 -22 q 215 -86 215 -51 m 47 -118 q 146 21 47 -35 l 146 26 q 100 72 118 44 q 82 143 82 100 q 104 215 82 181 q 160 272 126 249 l 160 278 q 95 349 124 303 q 67 457 67 396 q 90 566 67 519 q 153 644 114 613 q 244 690 193 675 q 351 706 296 706 q 458 689 413 706 l 710 689 l 710 540 l 600 540 q 616 501 610 525 q 622 450 622 478 q 601 347 622 390 q 544 274 581 303 q 458 232 507 246 q 351 218 408 218 q 268 232 311 218 q 249 210 254 221 q 243 181 243 199 q 266 142 243 154 q 347 129 289 129 l 458 129 q 653 88 586 129 q 721 -46 721 47 q 694 -145 721 -100 q 617 -223 667 -190 q 496 -274 567 -256 q 336 -293 425 -293 q 223 -283 275 -293 q 131 -251 171 -272 q 69 -197 92 -231 q 47 -118 47 -164 m 351 342 q 419 370 392 342 q 446 457 446 399 q 419 540 446 511 q 351 568 392 568 q 284 540 311 568 q 257 457 257 513 q 284 370 257 399 q 351 342 311 342 z "},"h":{"ha":793,"x_min":90,"x_max":711,"o":"m 90 974 l 294 974 l 294 735 l 285 611 q 375 676 324 646 q 497 706 426 706 q 660 632 610 706 q 711 428 711 558 l 711 0 l 507 0 l 507 401 q 487 504 507 476 q 422 532 467 532 q 356 515 383 532 q 294 465 328 497 l 294 0 l 90 0 l 90 974 z "},"i":{"ha":383,"x_min":74,"x_max":310,"o":"m 192 790 q 107 820 140 790 q 74 897 74 850 q 107 974 74 944 q 192 1003 140 1003 q 277 974 244 1003 q 310 897 310 944 q 277 820 310 850 q 192 790 244 790 m 90 689 l 294 689 l 294 0 l 90 0 l 90 689 z "},"j":{"ha":386,"x_min":-71,"x_max":313,"o":"m 92 689 l 296 689 l 296 4 q 284 -103 296 -53 q 244 -190 272 -153 q 168 -250 215 -228 q 50 -272 121 -272 q -22 -267 7 -272 q -71 -253 -50 -261 l -35 -103 q -8 -110 -21 -107 q 19 -112 4 -112 q 76 -86 60 -112 q 92 -1 92 -60 l 92 689 m 194 790 q 110 820 143 790 q 76 897 76 850 q 110 974 76 944 q 194 1003 143 1003 q 279 974 246 1003 q 313 897 313 944 q 279 820 313 850 q 194 790 246 790 z "},"k":{"ha":761,"x_min":90,"x_max":753,"o":"m 90 974 l 289 974 l 289 415 l 294 415 l 513 689 l 735 689 l 493 406 l 753 0 l 532 0 l 376 268 l 289 169 l 289 0 l 90 0 l 90 974 z "},"l":{"ha":397,"x_min":90,"x_max":381,"o":"m 90 974 l 294 974 l 294 206 q 306 161 294 174 q 331 149 318 149 q 342 149 338 149 q 356 151 347 149 l 381 0 q 338 -12 364 -7 q 278 -17 313 -17 q 189 0 225 -17 q 131 47 153 17 q 100 119 110 76 q 90 214 90 161 l 90 974 z "},"m":{"ha":1190,"x_min":90,"x_max":1107,"o":"m 90 689 l 257 689 l 271 600 l 276 600 q 368 674 319 643 q 485 706 417 706 q 603 676 558 706 q 675 590 649 646 q 772 672 721 638 q 892 706 822 706 q 1055 631 1003 706 q 1107 428 1107 557 l 1107 0 l 903 0 l 903 401 q 883 504 903 476 q 818 532 863 532 q 700 465 767 532 l 700 0 l 496 0 l 496 401 q 476 504 496 476 q 411 532 456 532 q 294 465 358 532 l 294 0 l 90 0 l 90 689 z "},"n":{"ha":794,"x_min":90,"x_max":711,"o":"m 90 689 l 257 689 l 271 601 l 276 601 q 374 674 321 643 q 497 706 426 706 q 660 632 610 706 q 711 428 711 558 l 711 0 l 507 0 l 507 401 q 487 504 507 476 q 422 532 467 532 q 356 515 383 532 q 294 465 328 497 l 294 0 l 90 0 l 90 689 z "},"o":{"ha":771,"x_min":50,"x_max":721,"o":"m 50 344 q 78 498 50 431 q 152 611 106 565 q 260 681 199 657 q 386 706 321 706 q 512 681 451 706 q 619 611 572 657 q 693 498 665 565 q 721 344 721 431 q 693 191 721 258 q 619 78 665 124 q 512 8 572 32 q 386 -17 451 -17 q 260 8 321 -17 q 152 78 199 32 q 78 191 106 124 q 50 344 50 258 m 260 344 q 291 201 260 254 q 386 149 322 149 q 481 201 449 149 q 513 344 513 254 q 481 488 513 435 q 386 540 449 540 q 291 488 322 540 q 260 344 260 435 z "},"p":{"ha":796,"x_min":90,"x_max":742,"o":"m 294 -54 l 294 -256 l 90 -256 l 90 689 l 257 689 l 271 621 l 276 621 q 367 681 317 657 q 472 706 418 706 q 585 681 535 706 q 669 610 635 656 q 723 499 704 564 q 742 356 742 435 q 717 198 742 267 q 652 81 693 129 q 559 8 611 33 q 451 -17 507 -17 q 365 2 407 -17 q 288 56 324 21 l 294 -54 m 294 194 q 350 160 322 169 q 404 150 378 150 q 494 198 457 150 q 532 353 532 246 q 413 539 532 539 q 294 476 353 539 l 294 194 z "},"q":{"ha":794,"x_min":54,"x_max":706,"o":"m 54 344 q 78 496 54 429 q 142 609 103 563 q 234 681 182 656 q 340 706 286 706 q 440 685 397 706 q 524 621 483 665 l 529 621 l 546 689 l 706 689 l 706 -256 l 501 -256 l 501 -46 l 510 60 q 429 5 475 26 q 336 -17 383 -17 q 220 8 272 -17 q 131 80 168 33 q 74 193 94 126 q 54 344 54 260 m 264 347 q 297 197 264 244 q 389 150 329 150 q 449 164 422 150 q 501 213 476 178 l 501 494 q 444 529 474 519 q 388 539 415 539 q 301 492 339 539 q 264 347 264 446 z "},"r":{"ha":553,"x_min":90,"x_max":554,"o":"m 90 689 l 257 689 l 271 568 l 276 568 q 367 672 314 639 q 472 706 419 706 q 520 702 501 706 q 554 692 539 699 l 521 515 q 485 524 501 521 q 446 526 468 526 q 365 499 407 526 q 294 400 322 471 l 294 0 l 90 0 l 90 689 z "},"s":{"ha":615,"x_min":29,"x_max":576,"o":"m 121 207 q 211 153 168 171 q 299 135 254 135 q 365 150 344 135 q 386 193 386 165 q 374 223 386 210 q 342 247 363 236 q 297 267 322 258 q 246 288 272 276 q 182 317 214 300 q 124 358 150 333 q 81 415 97 382 q 64 490 64 447 q 83 578 64 538 q 136 646 101 618 q 219 690 171 674 q 328 706 268 706 q 467 678 407 706 q 571 618 526 651 l 479 496 q 406 539 442 524 q 333 554 369 554 q 256 500 256 554 q 267 472 256 483 q 297 450 278 460 q 340 431 315 440 q 390 413 364 422 q 456 384 424 400 q 516 344 489 368 q 560 287 543 321 q 576 206 576 253 q 558 118 576 158 q 504 48 540 78 q 415 1 468 18 q 293 -17 363 -17 q 153 10 225 -17 q 29 79 82 36 l 121 207 z "},"t":{"ha":532,"x_min":24,"x_max":508,"o":"m 118 529 l 24 529 l 24 681 l 129 689 l 153 872 l 322 872 l 322 689 l 488 689 l 488 529 l 322 529 l 322 253 q 347 169 322 194 q 411 143 371 143 q 445 147 428 143 q 476 157 463 151 l 508 8 q 443 -8 481 0 q 356 -17 406 -17 q 247 3 292 -17 q 173 57 201 22 q 131 141 144 92 q 118 250 118 190 l 118 529 z "},"u":{"ha":789,"x_min":83,"x_max":700,"o":"m 83 689 l 288 689 l 288 288 q 308 185 288 213 q 374 157 329 157 q 439 175 413 157 q 496 233 465 193 l 496 689 l 700 689 l 700 0 l 533 0 l 518 96 l 514 96 q 419 13 469 43 q 297 -17 368 -17 q 134 57 185 -17 q 83 261 83 131 l 83 689 z "},"v":{"ha":726,"x_min":17,"x_max":710,"o":"m 17 689 l 222 689 l 311 364 q 338 259 325 313 q 365 151 351 206 l 371 151 q 397 259 383 206 q 424 364 410 313 l 514 689 l 710 689 l 485 0 l 249 0 l 17 689 z "},"w":{"ha":1078,"x_min":33,"x_max":1044,"o":"m 33 689 l 236 689 l 303 369 q 318 268 311 318 q 333 165 325 218 l 339 165 q 358 269 349 218 q 379 369 367 321 l 456 689 l 632 689 l 710 369 q 732 268 722 318 q 753 165 742 218 l 758 165 q 774 268 768 218 q 790 369 781 318 l 856 689 l 1044 689 l 879 0 l 640 0 l 578 275 q 558 372 567 324 q 540 476 550 421 l 535 476 q 517 372 525 421 q 500 275 510 324 l 439 0 l 206 0 l 33 689 z "},"x":{"ha":714,"x_min":19,"x_max":694,"o":"m 231 358 l 32 689 l 251 689 l 313 578 q 341 519 326 549 q 371 460 356 489 l 376 460 q 400 519 388 489 q 424 578 413 549 l 471 689 l 682 689 l 482 335 l 694 0 l 475 0 l 408 114 q 376 174 392 143 q 343 233 360 204 l 338 233 q 311 174 325 204 q 285 114 297 144 l 231 0 l 19 0 l 231 358 z "},"y":{"ha":724,"x_min":17,"x_max":707,"o":"m 106 -100 q 128 -106 115 -103 q 151 -108 140 -108 q 231 -83 203 -108 q 272 -18 258 -58 l 282 18 l 17 689 l 222 689 l 321 393 q 349 297 336 346 q 375 197 361 249 l 381 197 q 403 295 392 246 q 428 393 415 344 l 511 689 l 707 689 l 468 -7 q 416 -122 443 -72 q 353 -203 389 -171 q 273 -253 318 -236 q 167 -269 228 -269 q 113 -266 135 -269 q 69 -256 90 -262 l 106 -100 l 106 -100 z "},"z":{"ha":639,"x_min":53,"x_max":606,"o":"m 53 110 l 342 529 l 85 529 l 85 689 l 596 689 l 596 581 l 307 160 l 606 160 l 606 0 l 53 0 l 53 110 z "},"À":{"ha":796,"x_min":-8,"x_max":804,"o":"m 490 375 l 469 458 q 432 603 450 526 q 396 750 414 679 l 390 750 q 356 602 374 678 q 319 458 339 526 l 297 375 l 490 375 m 532 215 l 256 215 l 200 0 l -8 0 l 275 906 l 521 906 l 804 0 l 588 0 l 532 215 m 168 1142 l 385 1142 l 497 975 l 335 975 l 168 1142 z "},"Á":{"ha":796,"x_min":-8,"x_max":804,"o":"m 490 375 l 469 458 q 432 603 450 526 q 396 750 414 679 l 390 750 q 356 602 374 678 q 319 458 339 526 l 297 375 l 490 375 m 532 215 l 256 215 l 200 0 l -8 0 l 275 906 l 521 906 l 804 0 l 588 0 l 532 215 m 451 975 l 289 975 l 401 1142 l 618 1142 l 451 975 z "},"Â":{"ha":796,"x_min":-8,"x_max":804,"o":"m 490 375 l 469 458 q 432 603 450 526 q 396 750 414 679 l 390 750 q 356 602 374 678 q 319 458 339 526 l 297 375 l 490 375 m 532 215 l 256 215 l 200 0 l -8 0 l 275 906 l 521 906 l 804 0 l 588 0 l 532 215 m 160 975 l 293 1142 l 493 1142 l 626 975 l 469 975 l 396 1060 l 390 1060 l 317 975 l 160 975 z "},"Ã":{"ha":796,"x_min":-8,"x_max":804,"o":"m 490 375 l 469 458 q 432 603 450 526 q 396 750 414 679 l 390 750 q 356 602 374 678 q 319 458 339 526 l 297 375 l 490 375 m 532 215 l 256 215 l 200 0 l -8 0 l 275 906 l 521 906 l 804 0 l 588 0 l 532 215 m 481 976 q 429 986 453 976 q 385 1008 406 996 q 348 1029 365 1019 q 314 1039 331 1039 q 282 1025 296 1039 q 261 976 268 1011 l 157 976 q 210 1119 168 1072 q 306 1165 251 1165 q 357 1156 333 1165 q 401 1134 381 1146 q 438 1113 421 1122 q 472 1103 456 1103 q 504 1117 490 1103 q 525 1165 518 1131 l 629 1165 q 576 1023 618 1069 q 481 976 535 976 z "},"Ä":{"ha":796,"x_min":-8,"x_max":804,"o":"m 490 375 l 469 458 q 432 603 450 526 q 396 750 414 679 l 390 750 q 356 602 374 678 q 319 458 339 526 l 297 375 l 490 375 m 532 215 l 256 215 l 200 0 l -8 0 l 275 906 l 521 906 l 804 0 l 588 0 l 532 215 m 256 972 q 185 1000 213 972 q 158 1069 158 1028 q 185 1139 158 1111 q 256 1167 213 1167 q 326 1139 299 1167 q 353 1069 353 1111 q 326 1000 353 1028 q 256 972 299 972 m 531 972 q 460 1000 488 972 q 433 1069 433 1028 q 460 1139 433 1111 q 531 1167 488 1167 q 601 1139 574 1167 q 628 1069 628 1111 q 601 1000 628 1028 q 531 972 574 972 z "},"Ā":{"ha":796,"x_min":-8,"x_max":804,"o":"m 490 375 l 469 458 q 432 603 450 526 q 396 750 414 679 l 390 750 q 356 602 374 678 q 319 458 339 526 l 297 375 l 490 375 m 532 215 l 256 215 l 200 0 l -8 0 l 275 906 l 521 906 l 804 0 l 588 0 l 532 215 m 197 1129 l 589 1129 l 589 1000 l 197 1000 l 197 1129 z "},"Ă":{"ha":796,"x_min":-8,"x_max":804,"o":"m 490 375 l 469 458 q 432 603 450 526 q 396 750 414 679 l 390 750 q 356 602 374 678 q 319 458 339 526 l 297 375 l 490 375 m 532 215 l 256 215 l 200 0 l -8 0 l 275 906 l 521 906 l 804 0 l 588 0 l 532 215 m 393 975 q 256 1021 301 975 q 203 1142 211 1067 l 315 1142 q 340 1096 322 1114 q 393 1078 357 1078 q 447 1096 429 1078 q 471 1142 464 1114 l 583 1142 q 530 1021 575 1067 q 393 975 485 975 z "},"Å":{"ha":796,"x_min":-8,"x_max":804,"o":"m 490 375 l 469 458 q 432 603 450 526 q 396 750 414 679 l 390 750 q 356 602 374 678 q 319 458 339 526 l 297 375 l 490 375 m 532 215 l 256 215 l 200 0 l -8 0 l 275 906 l 521 906 l 804 0 l 588 0 l 532 215 m 393 968 q 279 1005 322 968 q 236 1104 236 1042 q 279 1203 236 1167 q 393 1240 322 1240 q 507 1203 464 1240 q 550 1104 550 1167 q 507 1005 550 1042 q 393 968 464 968 m 393 1044 q 433 1060 417 1044 q 449 1104 449 1076 q 433 1148 449 1132 q 393 1164 417 1164 q 353 1148 369 1164 q 336 1104 336 1132 q 353 1060 336 1076 q 393 1044 369 1044 z "},"Ǎ":{"ha":796,"x_min":-8,"x_max":804,"o":"m 490 375 l 469 458 q 432 603 450 526 q 396 750 414 679 l 390 750 q 356 602 374 678 q 319 458 339 526 l 297 375 l 490 375 m 532 215 l 256 215 l 200 0 l -8 0 l 275 906 l 521 906 l 804 0 l 588 0 l 532 215 m 626 1142 l 493 975 l 293 975 l 160 1142 l 317 1142 l 390 1057 l 396 1057 l 469 1142 l 626 1142 z "},"Ạ":{"ha":796,"x_min":-8,"x_max":804,"o":"m 490 375 l 469 458 q 432 603 450 526 q 396 750 414 679 l 390 750 q 356 602 374 678 q 319 458 339 526 l 297 375 l 490 375 m 532 215 l 256 215 l 200 0 l -8 0 l 275 906 l 521 906 l 804 0 l 588 0 l 532 215 m 393 -314 q 312 -284 343 -314 q 281 -207 281 -254 q 312 -130 281 -160 q 393 -100 343 -100 q 474 -130 443 -100 q 506 -207 506 -160 q 474 -284 506 -254 q 393 -314 443 -314 z "},"Ả":{"ha":796,"x_min":-8,"x_max":804,"o":"m 490 375 l 469 458 q 432 603 450 526 q 396 750 414 679 l 390 750 q 356 602 374 678 q 319 458 339 526 l 297 375 l 490 375 m 532 215 l 256 215 l 200 0 l -8 0 l 275 906 l 521 906 l 804 0 l 588 0 l 532 215 m 329 1040 q 372 1054 354 1046 q 390 1082 390 1063 q 365 1113 390 1101 q 281 1129 340 1125 l 304 1231 q 485 1194 432 1228 q 538 1104 538 1160 q 522 1042 538 1068 q 481 999 507 1017 q 419 972 454 982 q 344 960 383 963 l 329 1040 z "},"Ấ":{"ha":796,"x_min":-8,"x_max":804,"o":"m 490 375 l 469 458 q 432 603 450 526 q 396 750 414 679 l 390 750 q 356 602 374 678 q 319 458 339 526 l 297 375 l 490 375 m 532 215 l 256 215 l 200 0 l -8 0 l 275 906 l 521 906 l 804 0 l 588 0 l 532 215 m 644 1236 l 803 1236 l 665 1069 l 550 1069 l 644 1236 m 306 1133 l 481 1133 l 613 975 l 468 975 l 396 1051 l 390 1051 l 318 975 l 174 975 l 306 1133 z "},"Ầ":{"ha":796,"x_min":-8,"x_max":804,"o":"m 490 375 l 469 458 q 432 603 450 526 q 396 750 414 679 l 390 750 q 356 602 374 678 q 319 458 339 526 l 297 375 l 490 375 m 532 215 l 256 215 l 200 0 l -8 0 l 275 906 l 521 906 l 804 0 l 588 0 l 532 215 m 724 1069 l 607 1069 l 471 1236 l 628 1236 l 724 1069 m 306 1133 l 481 1133 l 613 975 l 468 975 l 396 1051 l 390 1051 l 318 975 l 174 975 l 306 1133 z "},"Ẩ":{"ha":796,"x_min":-8,"x_max":804,"o":"m 490 375 l 469 458 q 432 603 450 526 q 396 750 414 679 l 390 750 q 356 602 374 678 q 319 458 339 526 l 297 375 l 490 375 m 532 215 l 256 215 l 200 0 l -8 0 l 275 906 l 521 906 l 804 0 l 588 0 l 532 215 m 568 1107 q 600 1119 588 1111 q 613 1144 613 1126 q 594 1175 613 1164 q 522 1190 575 1186 l 540 1274 q 699 1240 654 1271 q 744 1163 744 1208 q 698 1074 744 1101 q 583 1042 651 1047 l 568 1107 m 306 1133 l 481 1133 l 613 975 l 468 975 l 396 1051 l 390 1051 l 318 975 l 174 975 l 306 1133 z "},"Ẫ":{"ha":796,"x_min":-8,"x_max":804,"o":"m 490 375 l 469 458 q 432 603 450 526 q 396 750 414 679 l 390 750 q 356 602 374 678 q 319 458 339 526 l 297 375 l 490 375 m 532 215 l 256 215 l 200 0 l -8 0 l 275 906 l 521 906 l 804 0 l 588 0 l 532 215 m 306 1133 l 481 1133 l 613 975 l 468 975 l 396 1051 l 390 1051 l 318 975 l 174 975 l 306 1133 m 186 1183 q 231 1303 194 1265 q 314 1342 268 1342 q 359 1333 339 1342 q 397 1315 379 1325 q 430 1296 415 1304 q 460 1288 444 1288 q 510 1342 497 1288 l 600 1342 q 555 1222 592 1260 q 472 1183 518 1183 q 427 1192 447 1183 q 389 1210 407 1200 q 356 1228 371 1219 q 326 1236 340 1236 q 276 1183 288 1236 l 186 1183 z "},"Ậ":{"ha":796,"x_min":-8,"x_max":804,"o":"m 490 375 l 469 458 q 432 603 450 526 q 396 750 414 679 l 390 750 q 356 602 374 678 q 319 458 339 526 l 297 375 l 490 375 m 532 215 l 256 215 l 200 0 l -8 0 l 275 906 l 521 906 l 804 0 l 588 0 l 532 215 m 160 975 l 293 1142 l 493 1142 l 626 975 l 469 975 l 396 1060 l 390 1060 l 317 975 l 160 975 m 393 -314 q 312 -284 343 -314 q 281 -207 281 -254 q 312 -130 281 -160 q 393 -100 343 -100 q 474 -130 443 -100 q 506 -207 506 -160 q 474 -284 506 -254 q 393 -314 443 -314 z "},"Ắ":{"ha":796,"x_min":-8,"x_max":804,"o":"m 490 375 l 469 458 q 432 603 450 526 q 396 750 414 679 l 390 750 q 356 602 374 678 q 319 458 339 526 l 297 375 l 490 375 m 532 215 l 256 215 l 200 0 l -8 0 l 275 906 l 521 906 l 804 0 l 588 0 l 532 215 m 419 1288 l 574 1288 l 433 1122 l 331 1122 l 419 1288 m 393 975 q 257 1021 303 975 q 204 1142 211 1067 l 297 1142 q 326 1088 306 1108 q 393 1067 347 1067 q 460 1088 439 1067 q 489 1142 481 1108 l 582 1142 q 529 1021 575 1067 q 393 975 483 975 z "},"Ằ":{"ha":796,"x_min":-8,"x_max":804,"o":"m 490 375 l 469 458 q 432 603 450 526 q 396 750 414 679 l 390 750 q 356 602 374 678 q 319 458 339 526 l 297 375 l 490 375 m 532 215 l 256 215 l 200 0 l -8 0 l 275 906 l 521 906 l 804 0 l 588 0 l 532 215 m 456 1122 l 353 1122 l 213 1288 l 367 1288 l 456 1122 m 393 975 q 257 1021 303 975 q 204 1142 211 1067 l 297 1142 q 326 1088 306 1108 q 393 1067 347 1067 q 460 1088 439 1067 q 489 1142 481 1108 l 582 1142 q 529 1021 575 1067 q 393 975 483 975 z "},"Ẳ":{"ha":796,"x_min":-8,"x_max":804,"o":"m 490 375 l 469 458 q 432 603 450 526 q 396 750 414 679 l 390 750 q 356 602 374 678 q 319 458 339 526 l 297 375 l 490 375 m 532 215 l 256 215 l 200 0 l -8 0 l 275 906 l 521 906 l 804 0 l 588 0 l 532 215 m 332 1185 q 365 1197 351 1189 q 378 1222 378 1204 q 358 1253 378 1242 q 286 1268 339 1264 l 306 1353 q 464 1317 419 1349 q 508 1240 508 1286 q 496 1188 508 1210 q 462 1152 483 1167 q 411 1130 440 1138 q 349 1119 382 1122 l 332 1185 m 393 975 q 257 1021 303 975 q 204 1142 211 1067 l 297 1142 q 326 1088 306 1108 q 393 1067 347 1067 q 460 1088 439 1067 q 489 1142 481 1108 l 582 1142 q 529 1021 575 1067 q 393 975 483 975 z "},"Ẵ":{"ha":796,"x_min":-8,"x_max":804,"o":"m 490 375 l 469 458 q 432 603 450 526 q 396 750 414 679 l 390 750 q 356 602 374 678 q 319 458 339 526 l 297 375 l 490 375 m 532 215 l 256 215 l 200 0 l -8 0 l 275 906 l 521 906 l 804 0 l 588 0 l 532 215 m 393 975 q 257 1021 303 975 q 204 1142 211 1067 l 297 1142 q 326 1088 306 1108 q 393 1067 347 1067 q 460 1088 439 1067 q 489 1142 481 1108 l 582 1142 q 529 1021 575 1067 q 393 975 483 975 m 186 1183 q 231 1303 194 1265 q 314 1342 268 1342 q 359 1333 339 1342 q 397 1315 379 1325 q 430 1296 415 1304 q 460 1288 444 1288 q 510 1342 497 1288 l 600 1342 q 555 1222 592 1260 q 472 1183 518 1183 q 427 1192 447 1183 q 389 1210 407 1200 q 356 1228 371 1219 q 326 1236 340 1236 q 276 1183 288 1236 l 186 1183 z "},"Ặ":{"ha":796,"x_min":-8,"x_max":804,"o":"m 490 375 l 469 458 q 432 603 450 526 q 396 750 414 679 l 390 750 q 356 602 374 678 q 319 458 339 526 l 297 375 l 490 375 m 532 215 l 256 215 l 200 0 l -8 0 l 275 906 l 521 906 l 804 0 l 588 0 l 532 215 m 393 975 q 256 1021 301 975 q 203 1142 211 1067 l 315 1142 q 340 1096 322 1114 q 393 1078 357 1078 q 447 1096 429 1078 q 471 1142 464 1114 l 583 1142 q 530 1021 575 1067 q 393 975 485 975 m 393 -314 q 312 -284 343 -314 q 281 -207 281 -254 q 312 -130 281 -160 q 393 -100 343 -100 q 474 -130 443 -100 q 506 -207 506 -160 q 474 -284 506 -254 q 393 -314 443 -314 z "},"Ą":{"ha":796,"x_min":-8,"x_max":835,"o":"m 490 375 l 469 458 q 432 603 450 526 q 396 750 414 679 l 390 750 q 356 602 374 678 q 319 458 339 526 l 297 375 l 490 375 m 835 -261 q 766 -296 807 -282 q 689 -310 725 -310 q 576 -276 622 -310 q 531 -179 531 -242 q 542 -119 531 -147 q 569 -67 553 -90 q 606 -27 586 -44 q 643 0 626 -10 l 588 0 l 532 215 l 256 215 l 200 0 l -8 0 l 275 906 l 521 906 l 804 0 q 752 -15 775 -3 q 713 -44 729 -26 q 688 -83 697 -62 q 679 -125 679 -104 q 695 -165 679 -151 q 733 -178 711 -178 q 763 -172 749 -178 q 788 -158 776 -165 l 835 -261 z "},"Æ":{"ha":1174,"x_min":-19,"x_max":1101,"o":"m 536 365 l 536 751 l 531 751 q 476 619 503 685 q 421 494 449 554 l 363 365 l 536 365 m 1101 172 l 1101 0 l 536 0 l 536 207 l 290 207 l 196 0 l -19 0 l 411 906 l 1088 906 l 1088 733 l 740 733 l 740 551 l 1033 551 l 1033 381 l 740 381 l 740 172 l 1101 172 z "},"Ç":{"ha":808,"x_min":64,"x_max":778,"o":"m 64 447 q 99 648 64 560 q 192 797 133 736 q 330 890 251 858 q 496 922 408 922 q 649 887 581 922 q 764 804 718 851 l 651 678 q 581 728 617 710 q 499 746 546 746 q 410 726 451 746 q 339 668 369 706 q 291 576 308 631 q 274 454 274 522 q 333 237 274 314 q 493 160 393 160 q 590 182 549 160 q 665 240 632 204 l 778 117 q 648 17 721 50 q 490 -17 575 -17 q 325 13 403 -17 q 189 101 247 43 q 97 247 131 160 q 64 447 64 333 m 432 6 l 551 6 l 524 -60 q 582 -95 560 -71 q 604 -162 604 -119 q 584 -224 604 -199 q 531 -268 564 -250 q 453 -295 497 -286 q 358 -307 408 -304 l 343 -225 q 426 -206 393 -219 q 458 -164 458 -192 q 441 -131 458 -146 q 376 -106 424 -117 l 432 6 z "},"Ć":{"ha":808,"x_min":64,"x_max":778,"o":"m 64 447 q 99 648 64 560 q 192 797 133 736 q 330 890 251 858 q 496 922 408 922 q 649 887 581 922 q 764 804 718 851 l 651 678 q 581 728 617 710 q 499 746 546 746 q 410 726 451 746 q 339 668 369 706 q 291 576 308 631 q 274 454 274 522 q 333 237 274 314 q 493 160 393 160 q 590 182 549 160 q 665 240 632 204 l 778 117 q 648 17 721 50 q 490 -17 575 -17 q 325 13 403 -17 q 189 101 247 43 q 97 247 131 160 q 64 447 64 333 m 535 975 l 372 975 l 485 1142 l 701 1142 l 535 975 z "},"Ĉ":{"ha":808,"x_min":64,"x_max":778,"o":"m 64 447 q 99 648 64 560 q 192 797 133 736 q 330 890 251 858 q 496 922 408 922 q 649 887 581 922 q 764 804 718 851 l 651 678 q 581 728 617 710 q 499 746 546 746 q 410 726 451 746 q 339 668 369 706 q 291 576 308 631 q 274 454 274 522 q 333 237 274 314 q 493 160 393 160 q 590 182 549 160 q 665 240 632 204 l 778 117 q 648 17 721 50 q 490 -17 575 -17 q 325 13 403 -17 q 189 101 247 43 q 97 247 131 160 q 64 447 64 333 m 243 975 l 376 1142 l 576 1142 l 710 975 l 553 975 l 479 1060 l 474 1060 l 400 975 l 243 975 z "},"Č":{"ha":808,"x_min":64,"x_max":778,"o":"m 64 447 q 99 648 64 560 q 192 797 133 736 q 330 890 251 858 q 496 922 408 922 q 649 887 581 922 q 764 804 718 851 l 651 678 q 581 728 617 710 q 499 746 546 746 q 410 726 451 746 q 339 668 369 706 q 291 576 308 631 q 274 454 274 522 q 333 237 274 314 q 493 160 393 160 q 590 182 549 160 q 665 240 632 204 l 778 117 q 648 17 721 50 q 490 -17 575 -17 q 325 13 403 -17 q 189 101 247 43 q 97 247 131 160 q 64 447 64 333 m 710 1142 l 576 975 l 376 975 l 243 1142 l 400 1142 l 474 1057 l 479 1057 l 553 1142 l 710 1142 z "},"Ċ":{"ha":808,"x_min":64,"x_max":778,"o":"m 64 447 q 99 648 64 560 q 192 797 133 736 q 330 890 251 858 q 496 922 408 922 q 649 887 581 922 q 764 804 718 851 l 651 678 q 581 728 617 710 q 499 746 546 746 q 410 726 451 746 q 339 668 369 706 q 291 576 308 631 q 274 454 274 522 q 333 237 274 314 q 493 160 393 160 q 590 182 549 160 q 665 240 632 204 l 778 117 q 648 17 721 50 q 490 -17 575 -17 q 325 13 403 -17 q 189 101 247 43 q 97 247 131 160 q 64 447 64 333 m 476 974 q 392 1003 425 974 q 358 1081 358 1033 q 392 1158 358 1128 q 476 1188 425 1188 q 561 1158 528 1188 q 594 1081 594 1128 q 561 1003 594 1033 q 476 974 528 974 z "},"Ď":{"ha":882,"x_min":107,"x_max":817,"o":"m 107 906 l 363 906 q 550 879 467 906 q 693 798 633 853 q 785 658 753 743 q 817 457 817 574 q 785 254 817 340 q 694 112 753 168 q 555 28 636 56 q 374 0 474 0 l 107 0 l 107 906 m 350 165 q 456 181 408 165 q 536 230 503 196 q 588 319 569 264 q 607 457 607 375 q 588 592 607 538 q 536 680 569 647 q 456 726 503 713 q 350 740 408 740 l 311 740 l 311 165 l 350 165 m 675 1142 l 542 975 l 342 975 l 208 1142 l 365 1142 l 439 1057 l 444 1057 l 518 1142 l 675 1142 z "},"Ḍ":{"ha":882,"x_min":107,"x_max":817,"o":"m 107 906 l 363 906 q 550 879 467 906 q 693 798 633 853 q 785 658 753 743 q 817 457 817 574 q 785 254 817 340 q 694 112 753 168 q 555 28 636 56 q 374 0 474 0 l 107 0 l 107 906 m 350 165 q 456 181 408 165 q 536 230 503 196 q 588 319 569 264 q 607 457 607 375 q 588 592 607 538 q 536 680 569 647 q 456 726 503 713 q 350 740 408 740 l 311 740 l 311 165 l 350 165 m 435 -314 q 353 -284 385 -314 q 322 -207 322 -254 q 353 -130 322 -160 q 435 -100 385 -100 q 516 -130 485 -100 q 547 -207 547 -160 q 516 -284 547 -254 q 435 -314 485 -314 z "},"Ḏ":{"ha":882,"x_min":107,"x_max":817,"o":"m 107 906 l 363 906 q 550 879 467 906 q 693 798 633 853 q 785 658 753 743 q 817 457 817 574 q 785 254 817 340 q 694 112 753 168 q 555 28 636 56 q 374 0 474 0 l 107 0 l 107 906 m 350 165 q 456 181 408 165 q 536 230 503 196 q 588 319 569 264 q 607 457 607 375 q 588 592 607 538 q 536 680 569 647 q 456 726 503 713 q 350 740 408 740 l 311 740 l 311 165 l 350 165 m 626 -262 l 243 -262 l 243 -132 l 626 -132 l 626 -262 z "},"Đ":{"ha":917,"x_min":36,"x_max":851,"o":"m 385 165 q 490 181 443 165 q 571 230 538 196 q 623 319 604 264 q 642 457 642 375 q 623 592 642 538 q 571 680 604 647 q 490 726 538 713 q 385 740 443 740 l 346 740 l 346 517 l 519 517 l 519 418 l 346 418 l 346 165 l 385 165 m 397 906 q 585 879 501 906 q 728 798 668 853 q 819 658 788 743 q 851 457 851 574 q 819 254 851 340 q 729 112 788 168 q 590 28 671 56 q 408 0 508 0 l 142 0 l 142 418 l 36 418 l 36 510 l 142 517 l 142 906 l 397 906 z "},"È":{"ha":761,"x_min":107,"x_max":688,"o":"m 107 906 l 674 906 l 674 733 l 311 733 l 311 551 l 619 551 l 619 381 l 311 381 l 311 172 l 688 172 l 688 0 l 107 0 l 107 906 m 175 1142 l 392 1142 l 504 975 l 342 975 l 175 1142 z "},"É":{"ha":761,"x_min":107,"x_max":688,"o":"m 107 906 l 674 906 l 674 733 l 311 733 l 311 551 l 619 551 l 619 381 l 311 381 l 311 172 l 688 172 l 688 0 l 107 0 l 107 906 m 458 975 l 296 975 l 408 1142 l 625 1142 l 458 975 z "},"Ê":{"ha":761,"x_min":107,"x_max":688,"o":"m 107 906 l 674 906 l 674 733 l 311 733 l 311 551 l 619 551 l 619 381 l 311 381 l 311 172 l 688 172 l 688 0 l 107 0 l 107 906 m 167 975 l 300 1142 l 500 1142 l 633 975 l 476 975 l 403 1060 l 397 1060 l 324 975 l 167 975 z "},"Ě":{"ha":761,"x_min":107,"x_max":688,"o":"m 107 906 l 674 906 l 674 733 l 311 733 l 311 551 l 619 551 l 619 381 l 311 381 l 311 172 l 688 172 l 688 0 l 107 0 l 107 906 m 633 1142 l 500 975 l 300 975 l 167 1142 l 324 1142 l 397 1057 l 403 1057 l 476 1142 l 633 1142 z "},"Ë":{"ha":761,"x_min":107,"x_max":688,"o":"m 107 906 l 674 906 l 674 733 l 311 733 l 311 551 l 619 551 l 619 381 l 311 381 l 311 172 l 688 172 l 688 0 l 107 0 l 107 906 m 263 972 q 192 1000 219 972 q 165 1069 165 1028 q 192 1139 165 1111 q 263 1167 219 1167 q 333 1139 306 1167 q 360 1069 360 1111 q 333 1000 360 1028 q 263 972 306 972 m 538 972 q 467 1000 494 972 q 440 1069 440 1028 q 467 1139 440 1111 q 538 1167 494 1167 q 608 1139 581 1167 q 635 1069 635 1111 q 608 1000 635 1028 q 538 972 581 972 z "},"Ē":{"ha":761,"x_min":107,"x_max":688,"o":"m 107 906 l 674 906 l 674 733 l 311 733 l 311 551 l 619 551 l 619 381 l 311 381 l 311 172 l 688 172 l 688 0 l 107 0 l 107 906 m 204 1129 l 596 1129 l 596 1000 l 204 1000 l 204 1129 z "},"Ĕ":{"ha":761,"x_min":107,"x_max":688,"o":"m 107 906 l 674 906 l 674 733 l 311 733 l 311 551 l 619 551 l 619 381 l 311 381 l 311 172 l 688 172 l 688 0 l 107 0 l 107 906 m 400 975 q 263 1021 308 975 q 210 1142 218 1067 l 322 1142 q 347 1096 329 1114 q 400 1078 364 1078 q 453 1096 436 1078 q 478 1142 471 1114 l 590 1142 q 537 1021 582 1067 q 400 975 492 975 z "},"Ė":{"ha":761,"x_min":107,"x_max":688,"o":"m 107 906 l 674 906 l 674 733 l 311 733 l 311 551 l 619 551 l 619 381 l 311 381 l 311 172 l 688 172 l 688 0 l 107 0 l 107 906 m 400 974 q 315 1003 349 974 q 282 1081 282 1033 q 315 1158 282 1128 q 400 1188 349 1188 q 485 1158 451 1188 q 518 1081 518 1128 q 485 1003 518 1033 q 400 974 451 974 z "},"Ẹ":{"ha":761,"x_min":107,"x_max":688,"o":"m 107 906 l 674 906 l 674 733 l 311 733 l 311 551 l 619 551 l 619 381 l 311 381 l 311 172 l 688 172 l 688 0 l 107 0 l 107 906 m 410 -314 q 328 -284 360 -314 q 297 -207 297 -254 q 328 -130 297 -160 q 410 -100 360 -100 q 491 -130 460 -100 q 522 -207 522 -160 q 491 -284 522 -254 q 410 -314 460 -314 z "},"Ẻ":{"ha":761,"x_min":107,"x_max":688,"o":"m 107 906 l 674 906 l 674 733 l 311 733 l 311 551 l 619 551 l 619 381 l 311 381 l 311 172 l 688 172 l 688 0 l 107 0 l 107 906 m 336 1040 q 379 1054 361 1046 q 397 1082 397 1063 q 372 1113 397 1101 q 288 1129 347 1125 l 311 1231 q 492 1194 439 1228 q 544 1104 544 1160 q 529 1042 544 1068 q 488 999 514 1017 q 426 972 461 982 q 351 960 390 963 l 336 1040 z "},"Ẽ":{"ha":761,"x_min":107,"x_max":688,"o":"m 107 906 l 674 906 l 674 733 l 311 733 l 311 551 l 619 551 l 619 381 l 311 381 l 311 172 l 688 172 l 688 0 l 107 0 l 107 906 m 488 976 q 436 986 460 976 q 392 1008 413 996 q 355 1029 372 1019 q 321 1039 338 1039 q 289 1025 303 1039 q 268 976 275 1011 l 164 976 q 217 1119 175 1072 q 313 1165 258 1165 q 364 1156 340 1165 q 408 1134 388 1146 q 445 1113 428 1122 q 479 1103 463 1103 q 511 1117 497 1103 q 532 1165 525 1131 l 636 1165 q 583 1023 625 1069 q 488 976 542 976 z "},"Ế":{"ha":761,"x_min":107,"x_max":810,"o":"m 107 906 l 674 906 l 674 733 l 311 733 l 311 551 l 619 551 l 619 381 l 311 381 l 311 172 l 688 172 l 688 0 l 107 0 l 107 906 m 651 1236 l 810 1236 l 672 1069 l 557 1069 l 651 1236 m 313 1133 l 488 1133 l 619 975 l 475 975 l 403 1051 l 397 1051 l 325 975 l 181 975 l 313 1133 z "},"Ề":{"ha":761,"x_min":107,"x_max":731,"o":"m 107 906 l 674 906 l 674 733 l 311 733 l 311 551 l 619 551 l 619 381 l 311 381 l 311 172 l 688 172 l 688 0 l 107 0 l 107 906 m 731 1069 l 614 1069 l 478 1236 l 635 1236 l 731 1069 m 313 1133 l 488 1133 l 619 975 l 475 975 l 403 1051 l 397 1051 l 325 975 l 181 975 l 313 1133 z "},"Ể":{"ha":761,"x_min":107,"x_max":751,"o":"m 107 906 l 674 906 l 674 733 l 311 733 l 311 551 l 619 551 l 619 381 l 311 381 l 311 172 l 688 172 l 688 0 l 107 0 l 107 906 m 575 1107 q 607 1119 594 1111 q 619 1144 619 1126 q 601 1175 619 1164 q 529 1190 582 1186 l 547 1274 q 706 1240 661 1271 q 751 1163 751 1208 q 705 1074 751 1101 q 590 1042 658 1047 l 575 1107 m 313 1133 l 488 1133 l 619 975 l 475 975 l 403 1051 l 397 1051 l 325 975 l 181 975 l 313 1133 z "},"Ễ":{"ha":761,"x_min":107,"x_max":688,"o":"m 107 906 l 674 906 l 674 733 l 311 733 l 311 551 l 619 551 l 619 381 l 311 381 l 311 172 l 688 172 l 688 0 l 107 0 l 107 906 m 313 1133 l 488 1133 l 619 975 l 475 975 l 403 1051 l 397 1051 l 325 975 l 181 975 l 313 1133 m 193 1183 q 238 1303 201 1265 q 321 1342 275 1342 q 366 1333 346 1342 q 404 1315 386 1325 q 437 1296 422 1304 q 467 1288 451 1288 q 517 1342 504 1288 l 607 1342 q 562 1222 599 1260 q 479 1183 525 1183 q 434 1192 454 1183 q 396 1210 414 1200 q 363 1228 378 1219 q 333 1236 347 1236 q 283 1183 294 1236 l 193 1183 z "},"Ệ":{"ha":761,"x_min":107,"x_max":688,"o":"m 107 906 l 674 906 l 674 733 l 311 733 l 311 551 l 619 551 l 619 381 l 311 381 l 311 172 l 688 172 l 688 0 l 107 0 l 107 906 m 167 975 l 300 1142 l 500 1142 l 633 975 l 476 975 l 403 1060 l 397 1060 l 324 975 l 167 975 m 410 -314 q 328 -284 360 -314 q 297 -207 297 -254 q 328 -130 297 -160 q 410 -100 360 -100 q 491 -130 460 -100 q 522 -207 522 -160 q 491 -284 522 -254 q 410 -314 460 -314 z "},"Ę":{"ha":761,"x_min":107,"x_max":717,"o":"m 107 906 l 674 906 l 674 733 l 311 733 l 311 551 l 619 551 l 619 381 l 311 381 l 311 172 l 688 172 l 688 0 l 681 0 q 635 -12 657 -1 q 597 -41 614 -24 q 571 -81 581 -58 q 561 -125 561 -103 q 579 -165 561 -153 q 619 -178 597 -178 q 646 -172 633 -178 q 669 -158 658 -165 l 717 -261 q 648 -296 689 -282 q 571 -310 607 -310 q 458 -276 504 -310 q 411 -179 411 -242 q 422 -119 411 -147 q 448 -69 432 -92 q 483 -28 464 -46 q 521 0 503 -11 l 107 0 l 107 906 z "},"Ĝ":{"ha":886,"x_min":64,"x_max":806,"o":"m 64 447 q 99 648 64 560 q 195 797 135 736 q 337 890 256 858 q 510 922 418 922 q 676 886 606 922 q 790 804 746 850 l 678 678 q 608 728 644 710 q 513 746 571 746 q 416 726 460 746 q 340 668 372 706 q 291 576 308 631 q 274 454 274 522 q 337 237 274 314 q 528 160 400 160 q 582 167 556 160 q 625 188 608 174 l 625 343 l 475 343 l 475 510 l 806 510 l 806 93 q 678 15 757 47 q 503 -17 599 -17 q 331 13 411 -17 q 192 101 251 43 q 98 247 132 160 q 64 447 64 333 m 276 975 l 410 1142 l 610 1142 l 743 975 l 586 975 l 513 1060 l 507 1060 l 433 975 l 276 975 z "},"Ğ":{"ha":886,"x_min":64,"x_max":806,"o":"m 64 447 q 99 648 64 560 q 195 797 135 736 q 337 890 256 858 q 510 922 418 922 q 676 886 606 922 q 790 804 746 850 l 678 678 q 608 728 644 710 q 513 746 571 746 q 416 726 460 746 q 340 668 372 706 q 291 576 308 631 q 274 454 274 522 q 337 237 274 314 q 528 160 400 160 q 582 167 556 160 q 625 188 608 174 l 625 343 l 475 343 l 475 510 l 806 510 l 806 93 q 678 15 757 47 q 503 -17 599 -17 q 331 13 411 -17 q 192 101 251 43 q 98 247 132 160 q 64 447 64 333 m 510 975 q 373 1021 418 975 q 319 1142 328 1067 l 432 1142 q 456 1096 439 1114 q 510 1078 474 1078 q 563 1096 546 1078 q 588 1142 581 1114 l 700 1142 q 647 1021 692 1067 q 510 975 601 975 z "},"Ġ":{"ha":886,"x_min":64,"x_max":806,"o":"m 64 447 q 99 648 64 560 q 195 797 135 736 q 337 890 256 858 q 510 922 418 922 q 676 886 606 922 q 790 804 746 850 l 678 678 q 608 728 644 710 q 513 746 571 746 q 416 726 460 746 q 340 668 372 706 q 291 576 308 631 q 274 454 274 522 q 337 237 274 314 q 528 160 400 160 q 582 167 556 160 q 625 188 608 174 l 625 343 l 475 343 l 475 510 l 806 510 l 806 93 q 678 15 757 47 q 503 -17 599 -17 q 331 13 411 -17 q 192 101 251 43 q 98 247 132 160 q 64 447 64 333 m 510 974 q 425 1003 458 974 q 392 1081 392 1033 q 425 1158 392 1128 q 510 1188 458 1188 q 594 1158 561 1188 q 628 1081 628 1128 q 594 1003 628 1033 q 510 974 561 974 z "},"Ģ":{"ha":886,"x_min":64,"x_max":806,"o":"m 64 447 q 99 648 64 560 q 195 797 135 736 q 337 890 256 858 q 510 922 418 922 q 676 886 606 922 q 790 804 746 850 l 678 678 q 608 728 644 710 q 513 746 571 746 q 416 726 460 746 q 340 668 372 706 q 291 576 308 631 q 274 454 274 522 q 337 237 274 314 q 528 160 400 160 q 582 167 556 160 q 625 188 608 174 l 625 343 l 475 343 l 475 510 l 806 510 l 806 93 q 678 15 757 47 q 503 -17 599 -17 q 331 13 411 -17 q 192 101 251 43 q 98 247 132 160 q 64 447 64 333 m 454 -58 q 585 -95 549 -68 q 622 -175 622 -122 q 602 -237 622 -211 q 549 -280 582 -262 q 471 -306 515 -297 q 376 -318 426 -315 l 361 -236 q 444 -219 411 -231 q 476 -185 476 -208 q 462 -153 476 -165 q 415 -133 447 -142 l 454 -58 l 454 -58 z "},"Ǧ":{"ha":886,"x_min":64,"x_max":806,"o":"m 64 447 q 99 648 64 560 q 195 797 135 736 q 337 890 256 858 q 510 922 418 922 q 676 886 606 922 q 790 804 746 850 l 678 678 q 608 728 644 710 q 513 746 571 746 q 416 726 460 746 q 340 668 372 706 q 291 576 308 631 q 274 454 274 522 q 337 237 274 314 q 528 160 400 160 q 582 167 556 160 q 625 188 608 174 l 625 343 l 475 343 l 475 510 l 806 510 l 806 93 q 678 15 757 47 q 503 -17 599 -17 q 331 13 411 -17 q 192 101 251 43 q 98 247 132 160 q 64 447 64 333 m 743 1142 l 610 975 l 410 975 l 276 1142 l 433 1142 l 507 1057 l 513 1057 l 586 1142 l 743 1142 z "},"Ḡ":{"ha":886,"x_min":64,"x_max":806,"o":"m 64 447 q 99 648 64 560 q 195 797 135 736 q 337 890 256 858 q 510 922 418 922 q 676 886 606 922 q 790 804 746 850 l 678 678 q 608 728 644 710 q 513 746 571 746 q 416 726 460 746 q 340 668 372 706 q 291 576 308 631 q 274 454 274 522 q 337 237 274 314 q 528 160 400 160 q 582 167 556 160 q 625 188 608 174 l 625 343 l 475 343 l 475 510 l 806 510 l 806 93 q 678 15 757 47 q 503 -17 599 -17 q 331 13 411 -17 q 192 101 251 43 q 98 247 132 160 q 64 447 64 333 m 314 1129 l 706 1129 l 706 1000 l 314 1000 l 314 1129 z "},"Ĥ":{"ha":936,"x_min":107,"x_max":829,"o":"m 107 906 l 311 906 l 311 557 l 624 557 l 624 906 l 829 906 l 829 0 l 624 0 l 624 378 l 311 378 l 311 0 l 107 0 l 107 906 m 233 975 l 367 1142 l 567 1142 l 700 975 l 543 975 l 469 1060 l 464 1060 l 390 975 l 233 975 z "},"Ḥ":{"ha":936,"x_min":107,"x_max":829,"o":"m 107 906 l 311 906 l 311 557 l 624 557 l 624 906 l 829 906 l 829 0 l 624 0 l 624 378 l 311 378 l 311 0 l 107 0 l 107 906 m 467 -314 q 385 -284 417 -314 q 354 -207 354 -254 q 385 -130 354 -160 q 467 -100 417 -100 q 548 -130 517 -100 q 579 -207 579 -160 q 548 -284 579 -254 q 467 -314 517 -314 z "},"Ḫ":{"ha":936,"x_min":107,"x_max":829,"o":"m 107 906 l 311 906 l 311 557 l 624 557 l 624 906 l 829 906 l 829 0 l 624 0 l 624 378 l 311 378 l 311 0 l 107 0 l 107 906 m 467 -292 q 383 -276 418 -292 q 324 -233 347 -260 q 288 -172 300 -207 q 274 -99 275 -136 l 388 -99 q 411 -157 392 -133 q 467 -181 431 -181 q 522 -157 503 -181 q 546 -99 542 -133 l 660 -99 q 646 -172 658 -136 q 610 -233 633 -207 q 551 -276 586 -260 q 467 -292 515 -292 z "},"Ħ":{"ha":989,"x_min":35,"x_max":954,"o":"m 651 675 l 339 675 l 339 557 l 651 557 l 651 675 m 954 675 l 857 675 l 857 0 l 651 0 l 651 378 l 339 378 l 339 0 l 135 0 l 135 675 l 35 675 l 35 765 l 135 774 l 135 906 l 339 906 l 339 774 l 651 774 l 651 906 l 857 906 l 857 774 l 954 774 l 954 675 z "},"Ì":{"ha":418,"x_min":-17,"x_max":313,"o":"m 107 906 l 311 906 l 311 0 l 107 0 l 107 906 m -17 1142 l 200 1142 l 313 975 l 150 975 l -17 1142 z "},"Í":{"ha":418,"x_min":104,"x_max":433,"o":"m 107 906 l 311 906 l 311 0 l 107 0 l 107 906 m 267 975 l 104 975 l 217 1142 l 433 1142 l 267 975 z "},"Î":{"ha":418,"x_min":-25,"x_max":442,"o":"m 107 906 l 311 906 l 311 0 l 107 0 l 107 906 m -25 975 l 108 1142 l 308 1142 l 442 975 l 285 975 l 211 1060 l 206 1060 l 132 975 l -25 975 z "},"Ĩ":{"ha":418,"x_min":-28,"x_max":444,"o":"m 107 906 l 311 906 l 311 0 l 107 0 l 107 906 m 296 976 q 244 986 268 976 q 201 1008 221 996 q 163 1029 181 1019 q 129 1039 146 1039 q 97 1025 111 1039 q 76 976 83 1011 l -28 976 q 25 1119 -17 1072 q 121 1165 67 1165 q 172 1156 149 1165 q 216 1134 196 1146 q 253 1113 236 1122 q 288 1103 271 1103 q 319 1117 306 1103 q 340 1165 333 1131 l 444 1165 q 392 1023 433 1069 q 296 976 350 976 z "},"Ï":{"ha":418,"x_min":-26,"x_max":443,"o":"m 107 906 l 311 906 l 311 0 l 107 0 l 107 906 m 71 972 q 1 1000 28 972 q -26 1069 -26 1028 q 1 1139 -26 1111 q 71 1167 28 1167 q 141 1139 114 1167 q 168 1069 168 1111 q 141 1000 168 1028 q 71 972 114 972 m 346 972 q 276 1000 303 972 q 249 1069 249 1028 q 276 1139 249 1111 q 346 1167 303 1167 q 416 1139 389 1167 q 443 1069 443 1111 q 416 1000 443 1028 q 346 972 389 972 z "},"Ī":{"ha":418,"x_min":13,"x_max":404,"o":"m 107 906 l 311 906 l 311 0 l 107 0 l 107 906 m 13 1129 l 404 1129 l 404 1000 l 13 1000 l 13 1129 z "},"İ":{"ha":418,"x_min":90,"x_max":326,"o":"m 107 906 l 311 906 l 311 0 l 107 0 l 107 906 m 208 974 q 124 1003 157 974 q 90 1081 90 1033 q 124 1158 90 1128 q 208 1188 157 1188 q 293 1158 260 1188 q 326 1081 326 1128 q 293 1003 326 1033 q 208 974 260 974 z "},"Ǐ":{"ha":418,"x_min":-25,"x_max":442,"o":"m 107 906 l 311 906 l 311 0 l 107 0 l 107 906 m 442 1142 l 308 975 l 108 975 l -25 1142 l 132 1142 l 206 1057 l 211 1057 l 285 1142 l 442 1142 z "},"Ỉ":{"ha":418,"x_min":96,"x_max":353,"o":"m 107 906 l 311 906 l 311 0 l 107 0 l 107 906 m 144 1040 q 188 1054 169 1046 q 206 1082 206 1063 q 181 1113 206 1101 q 96 1129 156 1125 l 119 1231 q 300 1194 247 1228 q 353 1104 353 1160 q 338 1042 353 1068 q 296 999 322 1017 q 234 972 269 982 q 160 960 199 963 l 144 1040 z "},"Ị":{"ha":418,"x_min":96,"x_max":321,"o":"m 107 906 l 311 906 l 311 0 l 107 0 l 107 906 m 208 -314 q 127 -284 158 -314 q 96 -207 96 -254 q 127 -130 96 -160 q 208 -100 158 -100 q 290 -130 258 -100 q 321 -207 321 -160 q 290 -284 321 -254 q 208 -314 258 -314 z "},"Į":{"ha":418,"x_min":58,"x_max":363,"o":"m 107 906 l 311 906 l 311 0 q 232 -56 256 -24 q 208 -125 208 -89 q 226 -165 208 -153 q 265 -178 244 -178 q 294 -172 281 -178 q 317 -158 307 -165 l 363 -261 q 295 -296 336 -282 q 218 -310 254 -310 q 105 -276 151 -310 q 58 -179 58 -242 q 69 -118 58 -146 q 94 -67 79 -90 q 128 -28 110 -44 q 161 0 146 -11 l 107 0 l 107 906 z "},"Ĵ":{"ha":707,"x_min":22,"x_max":732,"o":"m 161 250 q 219 182 186 204 q 288 160 253 160 q 372 194 343 160 q 400 318 400 228 l 400 906 l 604 906 l 604 301 q 587 178 604 236 q 534 76 569 119 q 444 8 499 33 q 314 -17 389 -17 q 140 24 210 -17 q 22 147 69 64 l 161 250 m 265 975 l 399 1142 l 599 1142 l 732 975 l 575 975 l 501 1060 l 496 1060 l 422 975 l 265 975 z "},"Ķ":{"ha":853,"x_min":107,"x_max":861,"o":"m 107 906 l 311 906 l 311 535 l 317 535 l 586 906 l 811 906 l 538 544 l 861 0 l 638 0 l 417 382 l 311 243 l 311 0 l 107 0 l 107 906 m 411 -58 q 542 -95 506 -68 q 579 -175 579 -122 q 559 -237 579 -211 q 506 -280 539 -262 q 428 -306 472 -297 q 333 -318 383 -315 l 318 -236 q 401 -219 368 -231 q 433 -185 433 -208 q 419 -153 433 -165 q 372 -133 404 -142 l 411 -58 l 411 -58 z "},"Ĺ":{"ha":719,"x_min":107,"x_max":669,"o":"m 107 906 l 311 906 l 311 172 l 669 172 l 669 0 l 107 0 l 107 906 m 272 975 l 110 975 l 222 1142 l 439 1142 l 272 975 z "},"Ľ":{"ha":719,"x_min":107,"x_max":669,"o":"m 107 906 l 311 906 l 311 172 l 669 172 l 669 0 l 107 0 l 107 906 m 490 710 l 482 1018 l 614 1018 l 611 922 l 578 710 l 490 710 z "},"Ļ":{"ha":719,"x_min":107,"x_max":669,"o":"m 107 906 l 311 906 l 311 172 l 669 172 l 669 0 l 107 0 l 107 906 m 353 -58 q 484 -95 447 -68 q 521 -175 521 -122 q 501 -237 521 -211 q 447 -280 481 -262 q 369 -306 414 -297 q 275 -318 325 -315 l 260 -236 q 342 -219 310 -231 q 375 -185 375 -208 q 360 -153 375 -165 q 314 -133 346 -142 l 353 -58 l 353 -58 z "},"Ŀ":{"ha":719,"x_min":107,"x_max":693,"o":"m 107 906 l 311 906 l 311 172 l 669 172 l 669 0 l 107 0 l 107 906 m 446 456 q 481 548 446 511 q 569 585 517 585 q 658 548 622 585 q 693 456 693 511 q 658 365 693 401 q 569 328 622 328 q 481 365 517 328 q 446 456 446 401 z "},"Ḷ":{"ha":719,"x_min":107,"x_max":669,"o":"m 107 906 l 311 906 l 311 172 l 669 172 l 669 0 l 107 0 l 107 906 m 403 -314 q 322 -284 353 -314 q 290 -207 290 -254 q 322 -130 290 -160 q 403 -100 353 -100 q 484 -130 453 -100 q 515 -207 515 -160 q 484 -284 515 -254 q 403 -314 453 -314 z "},"Ḹ":{"ha":719,"x_min":18,"x_max":669,"o":"m 107 906 l 311 906 l 311 172 l 669 172 l 669 0 l 107 0 l 107 906 m 18 1129 l 410 1129 l 410 1000 l 18 1000 l 18 1129 m 403 -314 q 322 -284 353 -314 q 290 -207 290 -254 q 322 -130 290 -160 q 403 -100 353 -100 q 484 -130 453 -100 q 515 -207 515 -160 q 484 -284 515 -254 q 403 -314 453 -314 z "},"Ḻ":{"ha":719,"x_min":107,"x_max":669,"o":"m 107 906 l 311 906 l 311 172 l 669 172 l 669 0 l 107 0 l 107 906 m 594 -262 l 211 -262 l 211 -132 l 594 -132 l 594 -262 z "},"Ł":{"ha":728,"x_min":15,"x_max":679,"o":"m 679 172 l 679 0 l 117 0 l 117 292 l 15 232 l 15 390 l 117 450 l 117 906 l 322 906 l 322 544 l 563 676 l 563 518 l 322 386 l 322 172 l 679 172 z "},"Ṃ":{"ha":1058,"x_min":107,"x_max":951,"o":"m 107 906 l 324 906 l 475 499 l 529 340 l 535 340 l 589 499 l 736 906 l 951 906 l 951 0 l 761 0 l 761 332 q 764 406 761 365 q 771 487 767 446 q 779 567 775 528 q 788 640 783 607 l 782 640 l 707 431 l 568 79 l 486 79 l 347 431 l 275 640 l 269 640 q 278 567 274 607 q 285 487 282 528 q 292 406 289 446 q 294 332 294 365 l 294 0 l 107 0 l 107 906 m 532 -314 q 451 -284 482 -314 q 419 -207 419 -254 q 451 -130 419 -160 q 532 -100 482 -100 q 613 -130 582 -100 q 644 -207 644 -160 q 613 -284 644 -254 q 532 -314 582 -314 z "},"Ń":{"ha":924,"x_min":107,"x_max":817,"o":"m 107 906 l 317 906 l 553 456 l 642 256 l 647 256 q 631 417 640 328 q 622 586 622 506 l 622 906 l 817 906 l 817 0 l 607 0 l 371 451 l 282 649 l 276 649 q 292 488 283 574 q 301 321 301 401 l 301 0 l 107 0 l 107 906 m 521 975 l 358 975 l 471 1142 l 688 1142 l 521 975 z "},"Ň":{"ha":924,"x_min":107,"x_max":817,"o":"m 107 906 l 317 906 l 553 456 l 642 256 l 647 256 q 631 417 640 328 q 622 586 622 506 l 622 906 l 817 906 l 817 0 l 607 0 l 371 451 l 282 649 l 276 649 q 292 488 283 574 q 301 321 301 401 l 301 0 l 107 0 l 107 906 m 696 1142 l 563 975 l 363 975 l 229 1142 l 386 1142 l 460 1057 l 465 1057 l 539 1142 l 696 1142 z "},"Ñ":{"ha":924,"x_min":107,"x_max":817,"o":"m 107 906 l 317 906 l 553 456 l 642 256 l 647 256 q 631 417 640 328 q 622 586 622 506 l 622 906 l 817 906 l 817 0 l 607 0 l 371 451 l 282 649 l 276 649 q 292 488 283 574 q 301 321 301 401 l 301 0 l 107 0 l 107 906 m 550 976 q 499 986 522 976 q 455 1008 475 996 q 417 1029 435 1019 q 383 1039 400 1039 q 351 1025 365 1039 q 331 976 338 1011 l 226 976 q 279 1119 238 1072 q 375 1165 321 1165 q 426 1156 403 1165 q 470 1134 450 1146 q 508 1113 490 1122 q 542 1103 525 1103 q 574 1117 560 1103 q 594 1165 588 1131 l 699 1165 q 646 1023 688 1069 q 550 976 604 976 z "},"Ņ":{"ha":924,"x_min":107,"x_max":817,"o":"m 107 906 l 317 906 l 553 456 l 642 256 l 647 256 q 631 417 640 328 q 622 586 622 506 l 622 906 l 817 906 l 817 0 l 607 0 l 371 451 l 282 649 l 276 649 q 292 488 283 574 q 301 321 301 401 l 301 0 l 107 0 l 107 906 m 426 -58 q 558 -95 521 -68 q 594 -175 594 -122 q 574 -237 594 -211 q 521 -280 554 -262 q 443 -306 488 -297 q 349 -318 399 -315 l 333 -236 q 416 -219 383 -231 q 449 -185 449 -208 q 434 -153 449 -165 q 388 -133 419 -142 l 426 -58 l 426 -58 z "},"Ṅ":{"ha":924,"x_min":107,"x_max":817,"o":"m 107 906 l 317 906 l 553 456 l 642 256 l 647 256 q 631 417 640 328 q 622 586 622 506 l 622 906 l 817 906 l 817 0 l 607 0 l 371 451 l 282 649 l 276 649 q 292 488 283 574 q 301 321 301 401 l 301 0 l 107 0 l 107 906 m 463 974 q 378 1003 411 974 q 344 1081 344 1033 q 378 1158 344 1128 q 463 1188 411 1188 q 547 1158 514 1188 q 581 1081 581 1128 q 547 1003 581 1033 q 463 974 514 974 z "},"Ṇ":{"ha":924,"x_min":107,"x_max":817,"o":"m 107 906 l 317 906 l 553 456 l 642 256 l 647 256 q 631 417 640 328 q 622 586 622 506 l 622 906 l 817 906 l 817 0 l 607 0 l 371 451 l 282 649 l 276 649 q 292 488 283 574 q 301 321 301 401 l 301 0 l 107 0 l 107 906 m 476 -314 q 395 -284 426 -314 q 364 -207 364 -254 q 395 -130 364 -160 q 476 -100 426 -100 q 558 -130 526 -100 q 589 -207 589 -160 q 558 -284 589 -254 q 476 -314 526 -314 z "},"Ṉ":{"ha":924,"x_min":107,"x_max":817,"o":"m 107 906 l 317 906 l 553 456 l 642 256 l 647 256 q 631 417 640 328 q 622 586 622 506 l 622 906 l 817 906 l 817 0 l 607 0 l 371 451 l 282 649 l 276 649 q 292 488 283 574 q 301 321 301 401 l 301 0 l 107 0 l 107 906 m 668 -262 l 285 -262 l 285 -132 l 668 -132 l 668 -262 z "},"Ò":{"ha":950,"x_min":64,"x_max":886,"o":"m 475 -17 q 308 16 383 -17 q 178 110 232 49 q 94 258 124 171 q 64 457 64 346 q 94 655 64 568 q 178 801 124 742 q 308 891 232 860 q 475 922 383 922 q 642 891 567 922 q 772 800 718 860 q 856 653 826 740 q 886 457 886 567 q 856 258 886 346 q 772 110 826 171 q 642 16 718 49 q 475 -17 567 -17 m 475 160 q 622 240 568 160 q 676 457 676 319 q 622 669 676 593 q 475 746 568 746 q 328 669 382 746 q 274 457 274 593 q 328 240 274 319 q 475 160 382 160 m 250 1142 l 467 1142 l 579 975 l 417 975 l 250 1142 z "},"Ó":{"ha":950,"x_min":64,"x_max":886,"o":"m 475 -17 q 308 16 383 -17 q 178 110 232 49 q 94 258 124 171 q 64 457 64 346 q 94 655 64 568 q 178 801 124 742 q 308 891 232 860 q 475 922 383 922 q 642 891 567 922 q 772 800 718 860 q 856 653 826 740 q 886 457 886 567 q 856 258 886 346 q 772 110 826 171 q 642 16 718 49 q 475 -17 567 -17 m 475 160 q 622 240 568 160 q 676 457 676 319 q 622 669 676 593 q 475 746 568 746 q 328 669 382 746 q 274 457 274 593 q 328 240 274 319 q 475 160 382 160 m 533 975 l 371 975 l 483 1142 l 700 1142 l 533 975 z "},"Ô":{"ha":950,"x_min":64,"x_max":886,"o":"m 475 -17 q 308 16 383 -17 q 178 110 232 49 q 94 258 124 171 q 64 457 64 346 q 94 655 64 568 q 178 801 124 742 q 308 891 232 860 q 475 922 383 922 q 642 891 567 922 q 772 800 718 860 q 856 653 826 740 q 886 457 886 567 q 856 258 886 346 q 772 110 826 171 q 642 16 718 49 q 475 -17 567 -17 m 475 160 q 622 240 568 160 q 676 457 676 319 q 622 669 676 593 q 475 746 568 746 q 328 669 382 746 q 274 457 274 593 q 328 240 274 319 q 475 160 382 160 m 242 975 l 375 1142 l 575 1142 l 708 975 l 551 975 l 478 1060 l 472 1060 l 399 975 l 242 975 z "},"Õ":{"ha":950,"x_min":64,"x_max":886,"o":"m 475 -17 q 308 16 383 -17 q 178 110 232 49 q 94 258 124 171 q 64 457 64 346 q 94 655 64 568 q 178 801 124 742 q 308 891 232 860 q 475 922 383 922 q 642 891 567 922 q 772 800 718 860 q 856 653 826 740 q 886 457 886 567 q 856 258 886 346 q 772 110 826 171 q 642 16 718 49 q 475 -17 567 -17 m 475 160 q 622 240 568 160 q 676 457 676 319 q 622 669 676 593 q 475 746 568 746 q 328 669 382 746 q 274 457 274 593 q 328 240 274 319 q 475 160 382 160 m 563 976 q 511 986 535 976 q 467 1008 488 996 q 430 1029 447 1019 q 396 1039 413 1039 q 364 1025 378 1039 q 343 976 350 1011 l 239 976 q 292 1119 250 1072 q 388 1165 333 1165 q 439 1156 415 1165 q 483 1134 463 1146 q 520 1113 503 1122 q 554 1103 538 1103 q 586 1117 572 1103 q 607 1165 600 1131 l 711 1165 q 658 1023 700 1069 q 563 976 617 976 z "},"Ö":{"ha":950,"x_min":64,"x_max":886,"o":"m 475 -17 q 308 16 383 -17 q 178 110 232 49 q 94 258 124 171 q 64 457 64 346 q 94 655 64 568 q 178 801 124 742 q 308 891 232 860 q 475 922 383 922 q 642 891 567 922 q 772 800 718 860 q 856 653 826 740 q 886 457 886 567 q 856 258 886 346 q 772 110 826 171 q 642 16 718 49 q 475 -17 567 -17 m 475 160 q 622 240 568 160 q 676 457 676 319 q 622 669 676 593 q 475 746 568 746 q 328 669 382 746 q 274 457 274 593 q 328 240 274 319 q 475 160 382 160 m 338 972 q 267 1000 294 972 q 240 1069 240 1028 q 267 1139 240 1111 q 338 1167 294 1167 q 408 1139 381 1167 q 435 1069 435 1111 q 408 1000 435 1028 q 338 972 381 972 m 613 972 q 542 1000 569 972 q 515 1069 515 1028 q 542 1139 515 1111 q 613 1167 569 1167 q 683 1139 656 1167 q 710 1069 710 1111 q 683 1000 710 1028 q 613 972 656 972 z "},"Ō":{"ha":950,"x_min":64,"x_max":886,"o":"m 475 -17 q 308 16 383 -17 q 178 110 232 49 q 94 258 124 171 q 64 457 64 346 q 94 655 64 568 q 178 801 124 742 q 308 891 232 860 q 475 922 383 922 q 642 891 567 922 q 772 800 718 860 q 856 653 826 740 q 886 457 886 567 q 856 258 886 346 q 772 110 826 171 q 642 16 718 49 q 475 -17 567 -17 m 475 160 q 622 240 568 160 q 676 457 676 319 q 622 669 676 593 q 475 746 568 746 q 328 669 382 746 q 274 457 274 593 q 328 240 274 319 q 475 160 382 160 m 279 1129 l 671 1129 l 671 1000 l 279 1000 l 279 1129 z "},"Ő":{"ha":950,"x_min":64,"x_max":886,"o":"m 475 -17 q 308 16 383 -17 q 178 110 232 49 q 94 258 124 171 q 64 457 64 346 q 94 655 64 568 q 178 801 124 742 q 308 891 232 860 q 475 922 383 922 q 642 891 567 922 q 772 800 718 860 q 856 653 826 740 q 886 457 886 567 q 856 258 886 346 q 772 110 826 171 q 642 16 718 49 q 475 -17 567 -17 m 475 160 q 622 240 568 160 q 676 457 676 319 q 622 669 676 593 q 475 746 568 746 q 328 669 382 746 q 274 457 274 593 q 328 240 274 319 q 475 160 382 160 m 285 975 l 372 1142 l 546 1142 l 422 975 l 285 975 m 622 1142 l 796 1142 l 671 975 l 533 975 l 622 1142 z "},"Ǒ":{"ha":950,"x_min":64,"x_max":886,"o":"m 475 -17 q 308 16 383 -17 q 178 110 232 49 q 94 258 124 171 q 64 457 64 346 q 94 655 64 568 q 178 801 124 742 q 308 891 232 860 q 475 922 383 922 q 642 891 567 922 q 772 800 718 860 q 856 653 826 740 q 886 457 886 567 q 856 258 886 346 q 772 110 826 171 q 642 16 718 49 q 475 -17 567 -17 m 475 160 q 622 240 568 160 q 676 457 676 319 q 622 669 676 593 q 475 746 568 746 q 328 669 382 746 q 274 457 274 593 q 328 240 274 319 q 475 160 382 160 m 708 1142 l 575 975 l 375 975 l 242 1142 l 399 1142 l 472 1057 l 478 1057 l 551 1142 l 708 1142 z "},"Ọ":{"ha":950,"x_min":64,"x_max":886,"o":"m 475 -17 q 308 16 383 -17 q 178 110 232 49 q 94 258 124 171 q 64 457 64 346 q 94 655 64 568 q 178 801 124 742 q 308 891 232 860 q 475 922 383 922 q 642 891 567 922 q 772 800 718 860 q 856 653 826 740 q 886 457 886 567 q 856 258 886 346 q 772 110 826 171 q 642 16 718 49 q 475 -17 567 -17 m 475 160 q 622 240 568 160 q 676 457 676 319 q 622 669 676 593 q 475 746 568 746 q 328 669 382 746 q 274 457 274 593 q 328 240 274 319 q 475 160 382 160 m 475 -314 q 394 -284 425 -314 q 363 -207 363 -254 q 394 -130 363 -160 q 475 -100 425 -100 q 556 -130 525 -100 q 588 -207 588 -160 q 556 -284 588 -254 q 475 -314 525 -314 z "},"Ỏ":{"ha":950,"x_min":64,"x_max":886,"o":"m 475 -17 q 308 16 383 -17 q 178 110 232 49 q 94 258 124 171 q 64 457 64 346 q 94 655 64 568 q 178 801 124 742 q 308 891 232 860 q 475 922 383 922 q 642 891 567 922 q 772 800 718 860 q 856 653 826 740 q 886 457 886 567 q 856 258 886 346 q 772 110 826 171 q 642 16 718 49 q 475 -17 567 -17 m 475 160 q 622 240 568 160 q 676 457 676 319 q 622 669 676 593 q 475 746 568 746 q 328 669 382 746 q 274 457 274 593 q 328 240 274 319 q 475 160 382 160 m 411 1040 q 454 1054 436 1046 q 472 1082 472 1063 q 447 1113 472 1101 q 363 1129 422 1125 l 386 1231 q 567 1194 514 1228 q 619 1104 619 1160 q 604 1042 619 1068 q 563 999 589 1017 q 501 972 536 982 q 426 960 465 963 l 411 1040 z "},"Ố":{"ha":950,"x_min":64,"x_max":886,"o":"m 475 -17 q 308 16 383 -17 q 178 110 232 49 q 94 258 124 171 q 64 457 64 346 q 94 655 64 568 q 178 801 124 742 q 308 891 232 860 q 475 922 383 922 q 642 891 567 922 q 772 800 718 860 q 856 653 826 740 q 886 457 886 567 q 856 258 886 346 q 772 110 826 171 q 642 16 718 49 q 475 -17 567 -17 m 475 160 q 622 240 568 160 q 676 457 676 319 q 622 669 676 593 q 475 746 568 746 q 328 669 382 746 q 274 457 274 593 q 328 240 274 319 q 475 160 382 160 m 726 1236 l 885 1236 l 747 1069 l 632 1069 l 726 1236 m 388 1133 l 563 1133 l 694 975 l 550 975 l 478 1051 l 472 1051 l 400 975 l 256 975 l 388 1133 z "},"Ồ":{"ha":950,"x_min":64,"x_max":886,"o":"m 475 -17 q 308 16 383 -17 q 178 110 232 49 q 94 258 124 171 q 64 457 64 346 q 94 655 64 568 q 178 801 124 742 q 308 891 232 860 q 475 922 383 922 q 642 891 567 922 q 772 800 718 860 q 856 653 826 740 q 886 457 886 567 q 856 258 886 346 q 772 110 826 171 q 642 16 718 49 q 475 -17 567 -17 m 475 160 q 622 240 568 160 q 676 457 676 319 q 622 669 676 593 q 475 746 568 746 q 328 669 382 746 q 274 457 274 593 q 328 240 274 319 q 475 160 382 160 m 806 1069 l 689 1069 l 553 1236 l 710 1236 l 806 1069 m 388 1133 l 563 1133 l 694 975 l 550 975 l 478 1051 l 472 1051 l 400 975 l 256 975 l 388 1133 z "},"Ổ":{"ha":950,"x_min":64,"x_max":886,"o":"m 475 -17 q 308 16 383 -17 q 178 110 232 49 q 94 258 124 171 q 64 457 64 346 q 94 655 64 568 q 178 801 124 742 q 308 891 232 860 q 475 922 383 922 q 642 891 567 922 q 772 800 718 860 q 856 653 826 740 q 886 457 886 567 q 856 258 886 346 q 772 110 826 171 q 642 16 718 49 q 475 -17 567 -17 m 475 160 q 622 240 568 160 q 676 457 676 319 q 622 669 676 593 q 475 746 568 746 q 328 669 382 746 q 274 457 274 593 q 328 240 274 319 q 475 160 382 160 m 650 1107 q 682 1119 669 1111 q 694 1144 694 1126 q 676 1175 694 1164 q 604 1190 657 1186 l 622 1274 q 781 1240 736 1271 q 826 1163 826 1208 q 780 1074 826 1101 q 665 1042 733 1047 l 650 1107 m 388 1133 l 563 1133 l 694 975 l 550 975 l 478 1051 l 472 1051 l 400 975 l 256 975 l 388 1133 z "},"Ỗ":{"ha":950,"x_min":64,"x_max":886,"o":"m 475 -17 q 308 16 383 -17 q 178 110 232 49 q 94 258 124 171 q 64 457 64 346 q 94 655 64 568 q 178 801 124 742 q 308 891 232 860 q 475 922 383 922 q 642 891 567 922 q 772 800 718 860 q 856 653 826 740 q 886 457 886 567 q 856 258 886 346 q 772 110 826 171 q 642 16 718 49 q 475 -17 567 -17 m 475 160 q 622 240 568 160 q 676 457 676 319 q 622 669 676 593 q 475 746 568 746 q 328 669 382 746 q 274 457 274 593 q 328 240 274 319 q 475 160 382 160 m 388 1133 l 563 1133 l 694 975 l 550 975 l 478 1051 l 472 1051 l 400 975 l 256 975 l 388 1133 m 268 1183 q 313 1303 276 1265 q 396 1342 350 1342 q 441 1333 421 1342 q 479 1315 461 1325 q 512 1296 497 1304 q 542 1288 526 1288 q 592 1342 579 1288 l 682 1342 q 637 1222 674 1260 q 554 1183 600 1183 q 509 1192 529 1183 q 471 1210 489 1200 q 438 1228 453 1219 q 408 1236 422 1236 q 358 1183 369 1236 l 268 1183 z "},"Ộ":{"ha":950,"x_min":64,"x_max":886,"o":"m 475 -17 q 308 16 383 -17 q 178 110 232 49 q 94 258 124 171 q 64 457 64 346 q 94 655 64 568 q 178 801 124 742 q 308 891 232 860 q 475 922 383 922 q 642 891 567 922 q 772 800 718 860 q 856 653 826 740 q 886 457 886 567 q 856 258 886 346 q 772 110 826 171 q 642 16 718 49 q 475 -17 567 -17 m 475 160 q 622 240 568 160 q 676 457 676 319 q 622 669 676 593 q 475 746 568 746 q 328 669 382 746 q 274 457 274 593 q 328 240 274 319 q 475 160 382 160 m 242 975 l 375 1142 l 575 1142 l 708 975 l 551 975 l 478 1060 l 472 1060 l 399 975 l 242 975 m 475 -314 q 394 -284 425 -314 q 363 -207 363 -254 q 394 -130 363 -160 q 475 -100 425 -100 q 556 -130 525 -100 q 588 -207 588 -160 q 556 -284 588 -254 q 475 -314 525 -314 z "},"Ø":{"ha":950,"x_min":56,"x_max":917,"o":"m 367 199 q 476 160 414 160 q 624 240 569 160 q 678 457 678 319 q 665 569 678 519 l 367 199 m 599 699 q 476 746 549 746 q 329 669 383 746 q 275 457 275 593 q 280 383 275 418 q 293 319 285 349 l 599 699 m 811 750 q 867 620 847 693 q 888 457 888 547 q 858 258 888 346 q 774 110 828 171 q 644 16 719 49 q 476 -17 568 -17 q 247 50 346 -17 l 161 -57 l 56 24 l 151 143 q 88 282 111 203 q 65 457 65 361 q 95 655 65 568 q 179 801 125 742 q 309 891 233 860 q 476 922 385 922 q 719 849 618 922 l 811 963 l 917 881 l 811 750 z "},"Œ":{"ha":1210,"x_min":64,"x_max":1136,"o":"m 64 457 q 99 658 64 574 q 195 798 133 743 q 342 879 257 853 q 529 906 428 906 l 1122 906 l 1122 733 l 779 733 l 779 551 l 1068 551 l 1068 381 l 779 381 l 779 172 l 1136 172 l 1136 0 l 518 0 q 338 28 421 0 q 194 112 256 56 q 99 254 133 168 q 64 457 64 340 m 274 457 q 293 319 274 375 q 348 228 313 263 q 433 180 383 194 q 542 165 482 165 l 574 165 l 574 740 l 542 740 q 433 726 482 740 q 348 680 383 713 q 293 593 313 647 q 274 457 274 539 z "},"Ơ":{"ha":950,"x_min":65,"x_max":911,"o":"m 476 160 q 624 240 569 160 q 678 457 678 319 q 624 669 678 593 q 476 746 569 746 q 329 669 383 746 q 275 457 275 593 q 329 240 275 319 q 476 160 383 160 m 869 1089 q 899 1041 886 1069 q 911 978 911 1013 q 871 870 911 910 q 764 811 831 831 q 855 662 822 750 q 888 457 888 574 q 858 258 888 346 q 774 110 828 171 q 644 16 719 49 q 476 -17 568 -17 q 309 16 385 -17 q 179 110 233 49 q 95 258 125 171 q 65 457 65 346 q 95 655 65 568 q 179 801 125 742 q 309 891 233 860 q 476 922 385 922 q 669 879 583 922 q 731 907 710 889 q 753 964 753 925 q 746 999 753 983 q 731 1028 739 1015 l 869 1089 z "},"Ớ":{"ha":950,"x_min":65,"x_max":911,"o":"m 476 160 q 624 240 569 160 q 678 457 678 319 q 624 669 678 593 q 476 746 569 746 q 329 669 383 746 q 275 457 275 593 q 329 240 275 319 q 476 160 383 160 m 869 1089 q 899 1041 886 1069 q 911 978 911 1013 q 871 870 911 910 q 764 811 831 831 q 855 662 822 750 q 888 457 888 574 q 858 258 888 346 q 774 110 828 171 q 644 16 719 49 q 476 -17 568 -17 q 309 16 385 -17 q 179 110 233 49 q 95 258 125 171 q 65 457 65 346 q 95 655 65 568 q 179 801 125 742 q 309 891 233 860 q 476 922 385 922 q 669 879 583 922 q 731 907 710 889 q 753 964 753 925 q 746 999 753 983 q 731 1028 739 1015 l 869 1089 m 533 975 l 371 975 l 483 1142 l 700 1142 l 533 975 z "},"Ờ":{"ha":950,"x_min":65,"x_max":911,"o":"m 476 160 q 624 240 569 160 q 678 457 678 319 q 624 669 678 593 q 476 746 569 746 q 329 669 383 746 q 275 457 275 593 q 329 240 275 319 q 476 160 383 160 m 869 1089 q 899 1041 886 1069 q 911 978 911 1013 q 871 870 911 910 q 764 811 831 831 q 855 662 822 750 q 888 457 888 574 q 858 258 888 346 q 774 110 828 171 q 644 16 719 49 q 476 -17 568 -17 q 309 16 385 -17 q 179 110 233 49 q 95 258 125 171 q 65 457 65 346 q 95 655 65 568 q 179 801 125 742 q 309 891 233 860 q 476 922 385 922 q 669 879 583 922 q 731 907 710 889 q 753 964 753 925 q 746 999 753 983 q 731 1028 739 1015 l 869 1089 m 250 1142 l 467 1142 l 579 975 l 417 975 l 250 1142 z "},"Ở":{"ha":950,"x_min":65,"x_max":911,"o":"m 476 160 q 624 240 569 160 q 678 457 678 319 q 624 669 678 593 q 476 746 569 746 q 329 669 383 746 q 275 457 275 593 q 329 240 275 319 q 476 160 383 160 m 869 1089 q 899 1041 886 1069 q 911 978 911 1013 q 871 870 911 910 q 764 811 831 831 q 855 662 822 750 q 888 457 888 574 q 858 258 888 346 q 774 110 828 171 q 644 16 719 49 q 476 -17 568 -17 q 309 16 385 -17 q 179 110 233 49 q 95 258 125 171 q 65 457 65 346 q 95 655 65 568 q 179 801 125 742 q 309 891 233 860 q 476 922 385 922 q 669 879 583 922 q 731 907 710 889 q 753 964 753 925 q 746 999 753 983 q 731 1028 739 1015 l 869 1089 m 411 1040 q 454 1054 436 1046 q 472 1082 472 1063 q 447 1113 472 1101 q 363 1129 422 1125 l 386 1231 q 567 1194 514 1228 q 619 1104 619 1160 q 604 1042 619 1068 q 563 999 589 1017 q 501 972 536 982 q 426 960 465 963 l 411 1040 z "},"Ỡ":{"ha":950,"x_min":65,"x_max":911,"o":"m 476 160 q 624 240 569 160 q 678 457 678 319 q 624 669 678 593 q 476 746 569 746 q 329 669 383 746 q 275 457 275 593 q 329 240 275 319 q 476 160 383 160 m 869 1089 q 899 1041 886 1069 q 911 978 911 1013 q 871 870 911 910 q 764 811 831 831 q 855 662 822 750 q 888 457 888 574 q 858 258 888 346 q 774 110 828 171 q 644 16 719 49 q 476 -17 568 -17 q 309 16 385 -17 q 179 110 233 49 q 95 258 125 171 q 65 457 65 346 q 95 655 65 568 q 179 801 125 742 q 309 891 233 860 q 476 922 385 922 q 669 879 583 922 q 731 907 710 889 q 753 964 753 925 q 746 999 753 983 q 731 1028 739 1015 l 869 1089 m 563 976 q 511 986 535 976 q 467 1008 488 996 q 430 1029 447 1019 q 396 1039 413 1039 q 364 1025 378 1039 q 343 976 350 1011 l 239 976 q 292 1119 250 1072 q 388 1165 333 1165 q 439 1156 415 1165 q 483 1134 463 1146 q 520 1113 503 1122 q 554 1103 538 1103 q 586 1117 572 1103 q 607 1165 600 1131 l 711 1165 q 658 1023 700 1069 q 563 976 617 976 z "},"Ợ":{"ha":950,"x_min":65,"x_max":911,"o":"m 476 160 q 624 240 569 160 q 678 457 678 319 q 624 669 678 593 q 476 746 569 746 q 329 669 383 746 q 275 457 275 593 q 329 240 275 319 q 476 160 383 160 m 869 1089 q 899 1041 886 1069 q 911 978 911 1013 q 871 870 911 910 q 764 811 831 831 q 855 662 822 750 q 888 457 888 574 q 858 258 888 346 q 774 110 828 171 q 644 16 719 49 q 476 -17 568 -17 q 309 16 385 -17 q 179 110 233 49 q 95 258 125 171 q 65 457 65 346 q 95 655 65 568 q 179 801 125 742 q 309 891 233 860 q 476 922 385 922 q 669 879 583 922 q 731 907 710 889 q 753 964 753 925 q 746 999 753 983 q 731 1028 739 1015 l 869 1089 m 475 -314 q 394 -284 425 -314 q 363 -207 363 -254 q 394 -130 363 -160 q 475 -100 425 -100 q 556 -130 525 -100 q 588 -207 588 -160 q 556 -284 588 -254 q 475 -314 525 -314 z "},"Ǫ":{"ha":950,"x_min":64,"x_max":886,"o":"m 351 -179 q 379 -83 351 -125 q 439 -14 407 -42 q 283 27 353 -8 q 165 123 214 63 q 90 268 117 183 q 64 457 64 353 q 94 655 64 568 q 178 801 124 742 q 308 891 232 860 q 475 922 383 922 q 642 891 567 922 q 772 800 718 860 q 856 653 826 740 q 886 457 886 567 q 867 288 886 361 q 810 160 847 215 q 719 64 772 104 q 599 -7 665 24 q 523 -63 546 -31 q 500 -125 500 -96 q 518 -165 500 -153 q 558 -178 536 -178 q 585 -172 574 -178 q 608 -158 597 -165 l 656 -261 q 588 -296 628 -282 q 511 -310 547 -310 q 398 -276 444 -310 q 351 -179 351 -242 m 475 160 q 622 240 568 160 q 676 457 676 319 q 622 669 676 593 q 475 746 568 746 q 328 669 382 746 q 274 457 274 593 q 328 240 274 319 q 475 160 382 160 z "},"Ŕ":{"ha":856,"x_min":107,"x_max":826,"o":"m 311 489 l 417 489 q 540 523 497 489 q 582 624 582 557 q 540 717 582 690 q 417 743 497 743 l 311 743 l 311 489 m 597 0 l 424 326 l 311 326 l 311 0 l 107 0 l 107 906 l 433 906 q 569 892 506 906 q 679 845 632 878 q 754 758 726 813 q 782 624 782 704 q 738 459 782 524 q 621 363 694 394 l 826 0 l 597 0 m 489 975 l 326 975 l 439 1142 l 656 1142 l 489 975 z "},"Ř":{"ha":856,"x_min":107,"x_max":826,"o":"m 311 489 l 417 489 q 540 523 497 489 q 582 624 582 557 q 540 717 582 690 q 417 743 497 743 l 311 743 l 311 489 m 597 0 l 424 326 l 311 326 l 311 0 l 107 0 l 107 906 l 433 906 q 569 892 506 906 q 679 845 632 878 q 754 758 726 813 q 782 624 782 704 q 738 459 782 524 q 621 363 694 394 l 826 0 l 597 0 m 664 1142 l 531 975 l 331 975 l 197 1142 l 354 1142 l 428 1057 l 433 1057 l 507 1142 l 664 1142 z "},"Ŗ":{"ha":856,"x_min":107,"x_max":826,"o":"m 311 489 l 417 489 q 540 523 497 489 q 582 624 582 557 q 540 717 582 690 q 417 743 497 743 l 311 743 l 311 489 m 597 0 l 424 326 l 311 326 l 311 0 l 107 0 l 107 906 l 433 906 q 569 892 506 906 q 679 845 632 878 q 754 758 726 813 q 782 624 782 704 q 738 459 782 524 q 621 363 694 394 l 826 0 l 597 0 m 404 -58 q 535 -95 499 -68 q 572 -175 572 -122 q 552 -237 572 -211 q 499 -280 532 -262 q 421 -306 465 -297 q 326 -318 376 -315 l 311 -236 q 394 -219 361 -231 q 426 -185 426 -208 q 412 -153 426 -165 q 365 -133 397 -142 l 404 -58 l 404 -58 z "},"Ṛ":{"ha":856,"x_min":107,"x_max":826,"o":"m 311 489 l 417 489 q 540 523 497 489 q 582 624 582 557 q 540 717 582 690 q 417 743 497 743 l 311 743 l 311 489 m 597 0 l 424 326 l 311 326 l 311 0 l 107 0 l 107 906 l 433 906 q 569 892 506 906 q 679 845 632 878 q 754 758 726 813 q 782 624 782 704 q 738 459 782 524 q 621 363 694 394 l 826 0 l 597 0 m 454 -314 q 373 -284 404 -314 q 342 -207 342 -254 q 373 -130 342 -160 q 454 -100 404 -100 q 535 -130 504 -100 q 567 -207 567 -160 q 535 -284 567 -254 q 454 -314 504 -314 z "},"Ṝ":{"ha":856,"x_min":107,"x_max":826,"o":"m 311 489 l 417 489 q 540 523 497 489 q 582 624 582 557 q 540 717 582 690 q 417 743 497 743 l 311 743 l 311 489 m 597 0 l 424 326 l 311 326 l 311 0 l 107 0 l 107 906 l 433 906 q 569 892 506 906 q 679 845 632 878 q 754 758 726 813 q 782 624 782 704 q 738 459 782 524 q 621 363 694 394 l 826 0 l 597 0 m 235 1129 l 626 1129 l 626 1000 l 235 1000 l 235 1129 m 454 -314 q 373 -284 404 -314 q 342 -207 342 -254 q 373 -130 342 -160 q 454 -100 404 -100 q 535 -130 504 -100 q 567 -207 567 -160 q 535 -284 567 -254 q 454 -314 504 -314 z "},"Ṟ":{"ha":856,"x_min":107,"x_max":826,"o":"m 311 489 l 417 489 q 540 523 497 489 q 582 624 582 557 q 540 717 582 690 q 417 743 497 743 l 311 743 l 311 489 m 597 0 l 424 326 l 311 326 l 311 0 l 107 0 l 107 906 l 433 906 q 569 892 506 906 q 679 845 632 878 q 754 758 726 813 q 782 624 782 704 q 738 459 782 524 q 621 363 694 394 l 826 0 l 597 0 m 646 -262 l 263 -262 l 263 -132 l 646 -132 l 646 -262 z "},"Ś":{"ha":772,"x_min":49,"x_max":725,"o":"m 165 254 q 273 186 214 213 q 389 160 332 160 q 484 183 453 160 q 515 247 515 207 q 506 283 515 268 q 480 310 497 299 q 438 333 463 322 q 385 356 414 343 l 267 406 q 199 442 232 419 q 141 494 167 464 q 100 563 115 524 q 85 653 85 603 q 108 758 85 708 q 175 844 132 807 q 277 901 218 881 q 407 922 336 922 q 563 892 486 922 q 699 803 640 861 l 594 674 q 506 727 550 708 q 407 746 461 746 q 323 724 354 746 q 292 664 292 703 q 302 628 292 643 q 331 602 313 614 q 375 580 350 590 q 429 557 400 569 l 546 510 q 677 418 629 476 q 725 264 725 360 q 702 156 725 207 q 635 67 679 106 q 528 6 592 29 q 383 -17 464 -17 q 206 16 294 -17 q 49 114 118 49 l 165 254 m 463 975 l 300 975 l 413 1142 l 629 1142 l 463 975 z "},"Ŝ":{"ha":772,"x_min":49,"x_max":725,"o":"m 165 254 q 273 186 214 213 q 389 160 332 160 q 484 183 453 160 q 515 247 515 207 q 506 283 515 268 q 480 310 497 299 q 438 333 463 322 q 385 356 414 343 l 267 406 q 199 442 232 419 q 141 494 167 464 q 100 563 115 524 q 85 653 85 603 q 108 758 85 708 q 175 844 132 807 q 277 901 218 881 q 407 922 336 922 q 563 892 486 922 q 699 803 640 861 l 594 674 q 506 727 550 708 q 407 746 461 746 q 323 724 354 746 q 292 664 292 703 q 302 628 292 643 q 331 602 313 614 q 375 580 350 590 q 429 557 400 569 l 546 510 q 677 418 629 476 q 725 264 725 360 q 702 156 725 207 q 635 67 679 106 q 528 6 592 29 q 383 -17 464 -17 q 206 16 294 -17 q 49 114 118 49 l 165 254 m 171 975 l 304 1142 l 504 1142 l 638 975 l 481 975 l 407 1060 l 401 1060 l 328 975 l 171 975 z "},"Š":{"ha":772,"x_min":49,"x_max":725,"o":"m 165 254 q 273 186 214 213 q 389 160 332 160 q 484 183 453 160 q 515 247 515 207 q 506 283 515 268 q 480 310 497 299 q 438 333 463 322 q 385 356 414 343 l 267 406 q 199 442 232 419 q 141 494 167 464 q 100 563 115 524 q 85 653 85 603 q 108 758 85 708 q 175 844 132 807 q 277 901 218 881 q 407 922 336 922 q 563 892 486 922 q 699 803 640 861 l 594 674 q 506 727 550 708 q 407 746 461 746 q 323 724 354 746 q 292 664 292 703 q 302 628 292 643 q 331 602 313 614 q 375 580 350 590 q 429 557 400 569 l 546 510 q 677 418 629 476 q 725 264 725 360 q 702 156 725 207 q 635 67 679 106 q 528 6 592 29 q 383 -17 464 -17 q 206 16 294 -17 q 49 114 118 49 l 165 254 m 638 1142 l 504 975 l 304 975 l 171 1142 l 328 1142 l 401 1057 l 407 1057 l 481 1142 l 638 1142 z "},"Ş":{"ha":772,"x_min":49,"x_max":725,"o":"m 165 254 q 273 186 214 213 q 389 160 332 160 q 484 183 453 160 q 515 247 515 207 q 506 283 515 268 q 480 310 497 299 q 438 333 463 322 q 385 356 414 343 l 267 406 q 199 442 232 419 q 141 494 167 464 q 100 563 115 524 q 85 653 85 603 q 108 758 85 708 q 175 844 132 807 q 277 901 218 881 q 407 922 336 922 q 563 892 486 922 q 699 803 640 861 l 594 674 q 506 727 550 708 q 407 746 461 746 q 323 724 354 746 q 292 664 292 703 q 302 628 292 643 q 331 602 313 614 q 375 580 350 590 q 429 557 400 569 l 546 510 q 677 418 629 476 q 725 264 725 360 q 702 156 725 207 q 635 67 679 106 q 528 6 592 29 q 383 -17 464 -17 q 206 16 294 -17 q 49 114 118 49 l 165 254 m 335 6 l 454 6 l 426 -60 q 485 -95 463 -71 q 507 -162 507 -119 q 487 -224 507 -199 q 433 -268 467 -250 q 356 -295 400 -286 q 261 -307 311 -304 l 246 -225 q 328 -206 296 -219 q 361 -164 361 -192 q 344 -131 361 -146 q 279 -106 326 -117 l 335 6 z "},"Ș":{"ha":772,"x_min":49,"x_max":725,"o":"m 165 254 q 273 186 214 213 q 389 160 332 160 q 484 183 453 160 q 515 247 515 207 q 506 283 515 268 q 480 310 497 299 q 438 333 463 322 q 385 356 414 343 l 267 406 q 199 442 232 419 q 141 494 167 464 q 100 563 115 524 q 85 653 85 603 q 108 758 85 708 q 175 844 132 807 q 277 901 218 881 q 407 922 336 922 q 563 892 486 922 q 699 803 640 861 l 594 674 q 506 727 550 708 q 407 746 461 746 q 323 724 354 746 q 292 664 292 703 q 302 628 292 643 q 331 602 313 614 q 375 580 350 590 q 429 557 400 569 l 546 510 q 677 418 629 476 q 725 264 725 360 q 702 156 725 207 q 635 67 679 106 q 528 6 592 29 q 383 -17 464 -17 q 206 16 294 -17 q 49 114 118 49 l 165 254 m 339 -58 q 470 -95 433 -68 q 507 -175 507 -122 q 487 -237 507 -211 q 433 -280 467 -262 q 356 -306 400 -297 q 261 -318 311 -315 l 246 -236 q 328 -219 296 -231 q 361 -185 361 -208 q 347 -153 361 -165 q 300 -133 332 -142 l 339 -58 l 339 -58 z "},"Ṡ":{"ha":772,"x_min":49,"x_max":725,"o":"m 165 254 q 273 186 214 213 q 389 160 332 160 q 484 183 453 160 q 515 247 515 207 q 506 283 515 268 q 480 310 497 299 q 438 333 463 322 q 385 356 414 343 l 267 406 q 199 442 232 419 q 141 494 167 464 q 100 563 115 524 q 85 653 85 603 q 108 758 85 708 q 175 844 132 807 q 277 901 218 881 q 407 922 336 922 q 563 892 486 922 q 699 803 640 861 l 594 674 q 506 727 550 708 q 407 746 461 746 q 323 724 354 746 q 292 664 292 703 q 302 628 292 643 q 331 602 313 614 q 375 580 350 590 q 429 557 400 569 l 546 510 q 677 418 629 476 q 725 264 725 360 q 702 156 725 207 q 635 67 679 106 q 528 6 592 29 q 383 -17 464 -17 q 206 16 294 -17 q 49 114 118 49 l 165 254 m 404 974 q 319 1003 353 974 q 286 1081 286 1033 q 319 1158 286 1128 q 404 1188 353 1188 q 489 1158 456 1188 q 522 1081 522 1128 q 489 1003 522 1033 q 404 974 456 974 z "},"Ṣ":{"ha":772,"x_min":49,"x_max":725,"o":"m 165 254 q 273 186 214 213 q 389 160 332 160 q 484 183 453 160 q 515 247 515 207 q 506 283 515 268 q 480 310 497 299 q 438 333 463 322 q 385 356 414 343 l 267 406 q 199 442 232 419 q 141 494 167 464 q 100 563 115 524 q 85 653 85 603 q 108 758 85 708 q 175 844 132 807 q 277 901 218 881 q 407 922 336 922 q 563 892 486 922 q 699 803 640 861 l 594 674 q 506 727 550 708 q 407 746 461 746 q 323 724 354 746 q 292 664 292 703 q 302 628 292 643 q 331 602 313 614 q 375 580 350 590 q 429 557 400 569 l 546 510 q 677 418 629 476 q 725 264 725 360 q 702 156 725 207 q 635 67 679 106 q 528 6 592 29 q 383 -17 464 -17 q 206 16 294 -17 q 49 114 118 49 l 165 254 m 389 -314 q 308 -284 339 -314 q 276 -207 276 -254 q 308 -130 276 -160 q 389 -100 339 -100 q 470 -130 439 -100 q 501 -207 501 -160 q 470 -284 501 -254 q 389 -314 439 -314 z "},"ẞ":{"ha":979,"x_min":111,"x_max":925,"o":"m 111 568 q 134 709 111 644 q 205 821 157 774 q 326 895 253 868 q 501 922 400 922 q 726 852 638 922 q 846 668 814 782 l 696 499 q 789 460 747 482 q 861 408 831 438 q 908 338 892 378 q 925 247 925 299 q 906 143 925 192 q 852 59 888 94 q 764 3 817 24 q 643 -17 711 -17 q 488 14 553 -17 q 385 83 424 44 l 492 208 q 556 162 525 175 q 618 149 588 149 q 689 176 663 149 q 715 249 715 204 q 668 326 715 290 q 506 382 621 361 l 492 501 l 643 675 q 589 732 625 707 q 496 757 553 757 q 317 540 317 757 l 317 0 l 111 0 l 111 568 z "},"Ť":{"ha":772,"x_min":35,"x_max":738,"o":"m 283 733 l 35 733 l 35 906 l 738 906 l 738 733 l 489 733 l 489 0 l 283 0 l 283 733 m 619 1142 l 486 975 l 286 975 l 153 1142 l 310 1142 l 383 1057 l 389 1057 l 463 1142 l 619 1142 z "},"Ţ":{"ha":772,"x_min":35,"x_max":738,"o":"m 283 733 l 35 733 l 35 906 l 738 906 l 738 733 l 489 733 l 489 0 l 283 0 l 283 733 m 335 6 l 454 6 l 426 -60 q 485 -95 463 -71 q 507 -162 507 -119 q 487 -224 507 -199 q 433 -268 467 -250 q 356 -295 400 -286 q 261 -307 311 -304 l 246 -225 q 328 -206 296 -219 q 361 -164 361 -192 q 344 -131 361 -146 q 279 -106 326 -117 l 335 6 z "},"Ț":{"ha":772,"x_min":35,"x_max":738,"o":"m 283 733 l 35 733 l 35 906 l 738 906 l 738 733 l 489 733 l 489 0 l 283 0 l 283 733 m 336 -58 q 467 -95 431 -68 q 504 -175 504 -122 q 484 -237 504 -211 q 431 -280 464 -262 q 353 -306 397 -297 q 258 -318 308 -315 l 243 -236 q 326 -219 293 -231 q 358 -185 358 -208 q 344 -153 358 -165 q 297 -133 329 -142 l 336 -58 l 336 -58 z "},"Ṭ":{"ha":772,"x_min":35,"x_max":738,"o":"m 283 733 l 35 733 l 35 906 l 738 906 l 738 733 l 489 733 l 489 0 l 283 0 l 283 733 m 386 -314 q 305 -284 336 -314 q 274 -207 274 -254 q 305 -130 274 -160 q 386 -100 336 -100 q 467 -130 436 -100 q 499 -207 499 -160 q 467 -284 499 -254 q 386 -314 436 -314 z "},"Ṯ":{"ha":772,"x_min":35,"x_max":738,"o":"m 283 733 l 35 733 l 35 906 l 738 906 l 738 733 l 489 733 l 489 0 l 283 0 l 283 733 m 578 -262 l 194 -262 l 194 -132 l 578 -132 l 578 -262 z "},"Ù":{"ha":924,"x_min":101,"x_max":821,"o":"m 101 906 l 307 906 l 307 399 q 347 213 307 265 q 464 160 388 160 q 582 213 540 160 q 624 399 624 265 l 624 906 l 821 906 l 821 419 q 730 88 821 192 q 464 -17 639 -17 q 194 88 288 -17 q 101 419 101 192 l 101 906 m 236 1142 l 453 1142 l 565 975 l 403 975 l 236 1142 z "},"Ú":{"ha":924,"x_min":101,"x_max":821,"o":"m 101 906 l 307 906 l 307 399 q 347 213 307 265 q 464 160 388 160 q 582 213 540 160 q 624 399 624 265 l 624 906 l 821 906 l 821 419 q 730 88 821 192 q 464 -17 639 -17 q 194 88 288 -17 q 101 419 101 192 l 101 906 m 519 975 l 357 975 l 469 1142 l 686 1142 l 519 975 z "},"Û":{"ha":924,"x_min":101,"x_max":821,"o":"m 101 906 l 307 906 l 307 399 q 347 213 307 265 q 464 160 388 160 q 582 213 540 160 q 624 399 624 265 l 624 906 l 821 906 l 821 419 q 730 88 821 192 q 464 -17 639 -17 q 194 88 288 -17 q 101 419 101 192 l 101 906 m 228 975 l 361 1142 l 561 1142 l 694 975 l 538 975 l 464 1060 l 458 1060 l 385 975 l 228 975 z "},"Ũ":{"ha":924,"x_min":101,"x_max":821,"o":"m 101 906 l 307 906 l 307 399 q 347 213 307 265 q 464 160 388 160 q 582 213 540 160 q 624 399 624 265 l 624 906 l 821 906 l 821 419 q 730 88 821 192 q 464 -17 639 -17 q 194 88 288 -17 q 101 419 101 192 l 101 906 m 549 976 q 497 986 521 976 q 453 1008 474 996 q 416 1029 433 1019 q 382 1039 399 1039 q 350 1025 364 1039 q 329 976 336 1011 l 225 976 q 278 1119 236 1072 q 374 1165 319 1165 q 425 1156 401 1165 q 469 1134 449 1146 q 506 1113 489 1122 q 540 1103 524 1103 q 572 1117 558 1103 q 593 1165 586 1131 l 697 1165 q 644 1023 686 1069 q 549 976 603 976 z "},"Ü":{"ha":924,"x_min":101,"x_max":821,"o":"m 101 906 l 307 906 l 307 399 q 347 213 307 265 q 464 160 388 160 q 582 213 540 160 q 624 399 624 265 l 624 906 l 821 906 l 821 419 q 730 88 821 192 q 464 -17 639 -17 q 194 88 288 -17 q 101 419 101 192 l 101 906 m 324 972 q 253 1000 281 972 q 226 1069 226 1028 q 253 1139 226 1111 q 324 1167 281 1167 q 394 1139 367 1167 q 421 1069 421 1111 q 394 1000 421 1028 q 324 972 367 972 m 599 972 q 528 1000 556 972 q 501 1069 501 1028 q 528 1139 501 1111 q 599 1167 556 1167 q 669 1139 642 1167 q 696 1069 696 1111 q 669 1000 696 1028 q 599 972 642 972 z "},"Ū":{"ha":924,"x_min":101,"x_max":821,"o":"m 101 906 l 307 906 l 307 399 q 347 213 307 265 q 464 160 388 160 q 582 213 540 160 q 624 399 624 265 l 624 906 l 821 906 l 821 419 q 730 88 821 192 q 464 -17 639 -17 q 194 88 288 -17 q 101 419 101 192 l 101 906 m 265 1129 l 657 1129 l 657 1000 l 265 1000 l 265 1129 z "},"Ŭ":{"ha":924,"x_min":101,"x_max":821,"o":"m 101 906 l 307 906 l 307 399 q 347 213 307 265 q 464 160 388 160 q 582 213 540 160 q 624 399 624 265 l 624 906 l 821 906 l 821 419 q 730 88 821 192 q 464 -17 639 -17 q 194 88 288 -17 q 101 419 101 192 l 101 906 m 461 975 q 324 1021 369 975 q 271 1142 279 1067 l 383 1142 q 408 1096 390 1114 q 461 1078 425 1078 q 515 1096 497 1078 q 539 1142 532 1114 l 651 1142 q 598 1021 643 1067 q 461 975 553 975 z "},"Ů":{"ha":924,"x_min":101,"x_max":821,"o":"m 101 906 l 307 906 l 307 399 q 347 213 307 265 q 464 160 388 160 q 582 213 540 160 q 624 399 624 265 l 624 906 l 821 906 l 821 419 q 730 88 821 192 q 464 -17 639 -17 q 194 88 288 -17 q 101 419 101 192 l 101 906 m 461 968 q 347 1005 390 968 q 304 1104 304 1042 q 347 1203 304 1167 q 461 1240 390 1240 q 575 1203 532 1240 q 618 1104 618 1167 q 575 1005 618 1042 q 461 968 532 968 m 461 1044 q 501 1060 485 1044 q 517 1104 517 1076 q 501 1148 517 1132 q 461 1164 485 1164 q 421 1148 438 1164 q 404 1104 404 1132 q 421 1060 404 1076 q 461 1044 438 1044 z "},"Ű":{"ha":924,"x_min":101,"x_max":821,"o":"m 101 906 l 307 906 l 307 399 q 347 213 307 265 q 464 160 388 160 q 582 213 540 160 q 624 399 624 265 l 624 906 l 821 906 l 821 419 q 730 88 821 192 q 464 -17 639 -17 q 194 88 288 -17 q 101 419 101 192 l 101 906 m 271 975 l 358 1142 l 532 1142 l 408 975 l 271 975 m 608 1142 l 782 1142 l 657 975 l 519 975 l 608 1142 z "},"Ǔ":{"ha":924,"x_min":101,"x_max":821,"o":"m 101 906 l 307 906 l 307 399 q 347 213 307 265 q 464 160 388 160 q 582 213 540 160 q 624 399 624 265 l 624 906 l 821 906 l 821 419 q 730 88 821 192 q 464 -17 639 -17 q 194 88 288 -17 q 101 419 101 192 l 101 906 m 694 1142 l 561 975 l 361 975 l 228 1142 l 385 1142 l 458 1057 l 464 1057 l 538 1142 l 694 1142 z "},"Ǖ":{"ha":924,"x_min":101,"x_max":821,"o":"m 101 906 l 307 906 l 307 399 q 347 213 307 265 q 464 160 388 160 q 582 213 540 160 q 624 399 624 265 l 624 906 l 821 906 l 821 419 q 730 88 821 192 q 464 -17 639 -17 q 194 88 288 -17 q 101 419 101 192 l 101 906 m 265 1307 l 657 1307 l 657 1211 l 265 1211 l 265 1307 m 324 972 q 262 997 286 972 q 238 1058 238 1022 q 262 1119 238 1094 q 324 1143 286 1143 q 385 1119 361 1143 q 410 1058 410 1094 q 385 997 410 1022 q 324 972 361 972 m 599 972 q 537 997 561 972 q 513 1058 513 1022 q 537 1119 513 1094 q 599 1143 561 1143 q 660 1119 636 1143 q 685 1058 685 1094 q 660 997 685 1022 q 599 972 636 972 z "},"Ǘ":{"ha":924,"x_min":101,"x_max":821,"o":"m 101 906 l 307 906 l 307 399 q 347 213 307 265 q 464 160 388 160 q 582 213 540 160 q 624 399 624 265 l 624 906 l 821 906 l 821 419 q 730 88 821 192 q 464 -17 639 -17 q 194 88 288 -17 q 101 419 101 192 l 101 906 m 469 1353 l 683 1353 l 519 1186 l 357 1186 l 469 1353 m 324 972 q 262 997 286 972 q 238 1058 238 1022 q 262 1119 238 1094 q 324 1143 286 1143 q 385 1119 361 1143 q 410 1058 410 1094 q 385 997 410 1022 q 324 972 361 972 m 599 972 q 537 997 561 972 q 513 1058 513 1022 q 537 1119 513 1094 q 599 1143 561 1143 q 660 1119 636 1143 q 685 1058 685 1094 q 660 997 685 1022 q 599 972 636 972 z "},"Ǚ":{"ha":924,"x_min":101,"x_max":821,"o":"m 101 906 l 307 906 l 307 399 q 347 213 307 265 q 464 160 388 160 q 582 213 540 160 q 624 399 624 265 l 624 906 l 821 906 l 821 419 q 730 88 821 192 q 464 -17 639 -17 q 194 88 288 -17 q 101 419 101 192 l 101 906 m 324 972 q 262 997 286 972 q 238 1058 238 1022 q 262 1119 238 1094 q 324 1143 286 1143 q 385 1119 361 1143 q 410 1058 410 1094 q 385 997 410 1022 q 324 972 361 972 m 599 972 q 537 997 561 972 q 513 1058 513 1022 q 537 1119 513 1094 q 599 1143 561 1143 q 660 1119 636 1143 q 685 1058 685 1094 q 660 997 685 1022 q 599 972 636 972 m 694 1353 l 561 1186 l 361 1186 l 228 1353 l 385 1353 l 458 1269 l 464 1269 l 538 1353 l 694 1353 z "},"Ǜ":{"ha":924,"x_min":101,"x_max":821,"o":"m 101 906 l 307 906 l 307 399 q 347 213 307 265 q 464 160 388 160 q 582 213 540 160 q 624 399 624 265 l 624 906 l 821 906 l 821 419 q 730 88 821 192 q 464 -17 639 -17 q 194 88 288 -17 q 101 419 101 192 l 101 906 m 565 1186 l 403 1186 l 239 1353 l 453 1353 l 565 1186 m 599 972 q 537 997 561 972 q 513 1058 513 1022 q 537 1119 513 1094 q 599 1143 561 1143 q 660 1119 636 1143 q 685 1058 685 1094 q 660 997 685 1022 q 599 972 636 972 m 324 972 q 262 997 286 972 q 238 1058 238 1022 q 262 1119 238 1094 q 324 1143 286 1143 q 385 1119 361 1143 q 410 1058 410 1094 q 385 997 410 1022 q 324 972 361 972 z "},"Ụ":{"ha":924,"x_min":101,"x_max":821,"o":"m 101 906 l 307 906 l 307 399 q 347 213 307 265 q 464 160 388 160 q 582 213 540 160 q 624 399 624 265 l 624 906 l 821 906 l 821 419 q 730 88 821 192 q 464 -17 639 -17 q 194 88 288 -17 q 101 419 101 192 l 101 906 m 461 -314 q 380 -284 411 -314 q 349 -207 349 -254 q 380 -130 349 -160 q 461 -100 411 -100 q 542 -130 511 -100 q 574 -207 574 -160 q 542 -284 574 -254 q 461 -314 511 -314 z "},"Ủ":{"ha":924,"x_min":101,"x_max":821,"o":"m 101 906 l 307 906 l 307 399 q 347 213 307 265 q 464 160 388 160 q 582 213 540 160 q 624 399 624 265 l 624 906 l 821 906 l 821 419 q 730 88 821 192 q 464 -17 639 -17 q 194 88 288 -17 q 101 419 101 192 l 101 906 m 397 1040 q 440 1054 422 1046 q 458 1082 458 1063 q 433 1113 458 1101 q 349 1129 408 1125 l 372 1231 q 553 1194 500 1228 q 606 1104 606 1160 q 590 1042 606 1068 q 549 999 575 1017 q 487 972 522 982 q 413 960 451 963 l 397 1040 z "},"Ų":{"ha":924,"x_min":101,"x_max":821,"o":"m 101 906 l 307 906 l 307 399 q 347 213 307 265 q 464 160 388 160 q 582 213 540 160 q 624 399 624 265 l 624 906 l 821 906 l 821 419 q 807 256 821 324 q 764 138 793 188 q 690 55 735 89 q 585 -7 646 21 q 509 -64 532 -31 q 486 -125 486 -97 q 504 -165 486 -153 q 544 -178 522 -178 q 571 -172 558 -178 q 594 -158 583 -165 l 642 -261 q 573 -296 614 -282 q 496 -310 532 -310 q 383 -276 429 -310 q 338 -179 338 -242 q 348 -120 338 -147 q 373 -72 358 -93 q 402 -37 388 -51 q 426 -14 417 -22 q 184 101 267 -4 q 101 419 101 206 l 101 906 z "},"Ư":{"ha":949,"x_min":101,"x_max":994,"o":"m 953 1117 q 981 1069 968 1097 q 994 1006 994 1040 q 981 937 994 967 q 944 885 968 907 q 889 851 921 864 q 821 831 857 838 l 821 419 q 730 88 821 192 q 464 -17 639 -17 q 194 88 288 -17 q 101 419 101 192 l 101 906 l 307 906 l 307 399 q 347 213 307 265 q 464 160 388 160 q 582 213 540 160 q 624 399 624 265 l 624 906 l 721 906 q 763 909 742 906 q 799 922 783 913 q 826 948 815 932 q 836 992 836 964 q 829 1027 836 1011 q 814 1056 822 1043 l 953 1117 z "},"Ứ":{"ha":949,"x_min":101,"x_max":994,"o":"m 953 1117 q 981 1069 968 1097 q 994 1006 994 1040 q 981 937 994 967 q 944 885 968 907 q 889 851 921 864 q 821 831 857 838 l 821 419 q 730 88 821 192 q 464 -17 639 -17 q 194 88 288 -17 q 101 419 101 192 l 101 906 l 307 906 l 307 399 q 347 213 307 265 q 464 160 388 160 q 582 213 540 160 q 624 399 624 265 l 624 906 l 721 906 q 763 909 742 906 q 799 922 783 913 q 826 948 815 932 q 836 992 836 964 q 829 1027 836 1011 q 814 1056 822 1043 l 953 1117 m 519 975 l 357 975 l 469 1142 l 686 1142 l 519 975 z "},"Ừ":{"ha":949,"x_min":101,"x_max":994,"o":"m 953 1117 q 981 1069 968 1097 q 994 1006 994 1040 q 981 937 994 967 q 944 885 968 907 q 889 851 921 864 q 821 831 857 838 l 821 419 q 730 88 821 192 q 464 -17 639 -17 q 194 88 288 -17 q 101 419 101 192 l 101 906 l 307 906 l 307 399 q 347 213 307 265 q 464 160 388 160 q 582 213 540 160 q 624 399 624 265 l 624 906 l 721 906 q 763 909 742 906 q 799 922 783 913 q 826 948 815 932 q 836 992 836 964 q 829 1027 836 1011 q 814 1056 822 1043 l 953 1117 m 236 1142 l 453 1142 l 565 975 l 403 975 l 236 1142 z "},"Ử":{"ha":949,"x_min":101,"x_max":994,"o":"m 953 1117 q 981 1069 968 1097 q 994 1006 994 1040 q 981 937 994 967 q 944 885 968 907 q 889 851 921 864 q 821 831 857 838 l 821 419 q 730 88 821 192 q 464 -17 639 -17 q 194 88 288 -17 q 101 419 101 192 l 101 906 l 307 906 l 307 399 q 347 213 307 265 q 464 160 388 160 q 582 213 540 160 q 624 399 624 265 l 624 906 l 721 906 q 763 909 742 906 q 799 922 783 913 q 826 948 815 932 q 836 992 836 964 q 829 1027 836 1011 q 814 1056 822 1043 l 953 1117 m 397 1040 q 440 1054 422 1046 q 458 1082 458 1063 q 433 1113 458 1101 q 349 1129 408 1125 l 372 1231 q 553 1194 500 1228 q 606 1104 606 1160 q 590 1042 606 1068 q 549 999 575 1017 q 487 972 522 982 q 413 960 451 963 l 397 1040 z "},"Ữ":{"ha":949,"x_min":101,"x_max":994,"o":"m 953 1117 q 981 1069 968 1097 q 994 1006 994 1040 q 981 937 994 967 q 944 885 968 907 q 889 851 921 864 q 821 831 857 838 l 821 419 q 730 88 821 192 q 464 -17 639 -17 q 194 88 288 -17 q 101 419 101 192 l 101 906 l 307 906 l 307 399 q 347 213 307 265 q 464 160 388 160 q 582 213 540 160 q 624 399 624 265 l 624 906 l 721 906 q 763 909 742 906 q 799 922 783 913 q 826 948 815 932 q 836 992 836 964 q 829 1027 836 1011 q 814 1056 822 1043 l 953 1117 m 549 976 q 497 986 521 976 q 453 1008 474 996 q 416 1029 433 1019 q 382 1039 399 1039 q 350 1025 364 1039 q 329 976 336 1011 l 225 976 q 278 1119 236 1072 q 374 1165 319 1165 q 425 1156 401 1165 q 469 1134 449 1146 q 506 1113 489 1122 q 540 1103 524 1103 q 572 1117 558 1103 q 593 1165 586 1131 l 697 1165 q 644 1023 686 1069 q 549 976 603 976 z "},"Ự":{"ha":949,"x_min":101,"x_max":994,"o":"m 953 1117 q 981 1069 968 1097 q 994 1006 994 1040 q 981 937 994 967 q 944 885 968 907 q 889 851 921 864 q 821 831 857 838 l 821 419 q 730 88 821 192 q 464 -17 639 -17 q 194 88 288 -17 q 101 419 101 192 l 101 906 l 307 906 l 307 399 q 347 213 307 265 q 464 160 388 160 q 582 213 540 160 q 624 399 624 265 l 624 906 l 721 906 q 763 909 742 906 q 799 922 783 913 q 826 948 815 932 q 836 992 836 964 q 829 1027 836 1011 q 814 1056 822 1043 l 953 1117 m 461 -314 q 380 -284 411 -314 q 349 -207 349 -254 q 380 -130 349 -160 q 461 -100 411 -100 q 542 -130 511 -100 q 574 -207 574 -160 q 542 -284 574 -254 q 461 -314 511 -314 z "},"Ẁ":{"ha":1129,"x_min":19,"x_max":1111,"o":"m 19 906 l 229 906 l 292 482 q 310 340 300 411 q 328 196 319 268 l 333 196 q 360 340 347 268 q 388 482 374 411 l 485 906 l 658 906 l 756 482 q 783 341 769 413 q 810 196 796 269 l 815 196 q 834 340 825 269 q 853 482 843 411 l 915 906 l 1111 906 l 950 0 l 693 0 l 604 411 q 584 517 593 464 q 568 621 575 571 l 563 621 q 545 517 554 571 q 525 411 536 464 l 440 0 l 188 0 l 19 906 m 339 1142 l 556 1142 l 668 975 l 506 975 l 339 1142 z "},"Ẃ":{"ha":1129,"x_min":19,"x_max":1111,"o":"m 19 906 l 229 906 l 292 482 q 310 340 300 411 q 328 196 319 268 l 333 196 q 360 340 347 268 q 388 482 374 411 l 485 906 l 658 906 l 756 482 q 783 341 769 413 q 810 196 796 269 l 815 196 q 834 340 825 269 q 853 482 843 411 l 915 906 l 1111 906 l 950 0 l 693 0 l 604 411 q 584 517 593 464 q 568 621 575 571 l 563 621 q 545 517 554 571 q 525 411 536 464 l 440 0 l 188 0 l 19 906 m 622 975 l 460 975 l 572 1142 l 789 1142 l 622 975 z "},"Ŵ":{"ha":1129,"x_min":19,"x_max":1111,"o":"m 19 906 l 229 906 l 292 482 q 310 340 300 411 q 328 196 319 268 l 333 196 q 360 340 347 268 q 388 482 374 411 l 485 906 l 658 906 l 756 482 q 783 341 769 413 q 810 196 796 269 l 815 196 q 834 340 825 269 q 853 482 843 411 l 915 906 l 1111 906 l 950 0 l 693 0 l 604 411 q 584 517 593 464 q 568 621 575 571 l 563 621 q 545 517 554 571 q 525 411 536 464 l 440 0 l 188 0 l 19 906 m 331 975 l 464 1142 l 664 1142 l 797 975 l 640 975 l 567 1060 l 561 1060 l 488 975 l 331 975 z "},"Ẅ":{"ha":1129,"x_min":19,"x_max":1111,"o":"m 19 906 l 229 906 l 292 482 q 310 340 300 411 q 328 196 319 268 l 333 196 q 360 340 347 268 q 388 482 374 411 l 485 906 l 658 906 l 756 482 q 783 341 769 413 q 810 196 796 269 l 815 196 q 834 340 825 269 q 853 482 843 411 l 915 906 l 1111 906 l 950 0 l 693 0 l 604 411 q 584 517 593 464 q 568 621 575 571 l 563 621 q 545 517 554 571 q 525 411 536 464 l 440 0 l 188 0 l 19 906 m 426 972 q 356 1000 383 972 q 329 1069 329 1028 q 356 1139 329 1111 q 426 1167 383 1167 q 497 1139 469 1167 q 524 1069 524 1111 q 497 1000 524 1028 q 426 972 469 972 m 701 972 q 631 1000 658 972 q 604 1069 604 1028 q 631 1139 604 1111 q 701 1167 658 1167 q 772 1139 744 1167 q 799 1069 799 1111 q 772 1000 799 1028 q 701 972 744 972 z "},"Ỳ":{"ha":729,"x_min":-11,"x_max":740,"o":"m 263 322 l -11 906 l 208 906 l 289 697 q 326 598 308 646 q 363 497 343 550 l 368 497 q 406 598 388 550 q 444 697 425 646 l 526 906 l 740 906 l 467 322 l 467 0 l 263 0 l 263 322 m 139 1142 l 356 1142 l 468 975 l 306 975 l 139 1142 z "},"Ý":{"ha":729,"x_min":-11,"x_max":740,"o":"m 263 322 l -11 906 l 208 906 l 289 697 q 326 598 308 646 q 363 497 343 550 l 368 497 q 406 598 388 550 q 444 697 425 646 l 526 906 l 740 906 l 467 322 l 467 0 l 263 0 l 263 322 m 422 975 l 260 975 l 372 1142 l 589 1142 l 422 975 z "},"Ŷ":{"ha":729,"x_min":-11,"x_max":740,"o":"m 263 322 l -11 906 l 208 906 l 289 697 q 326 598 308 646 q 363 497 343 550 l 368 497 q 406 598 388 550 q 444 697 425 646 l 526 906 l 740 906 l 467 322 l 467 0 l 263 0 l 263 322 m 131 975 l 264 1142 l 464 1142 l 597 975 l 440 975 l 367 1060 l 361 1060 l 288 975 l 131 975 z "},"Ÿ":{"ha":729,"x_min":-11,"x_max":740,"o":"m 263 322 l -11 906 l 208 906 l 289 697 q 326 598 308 646 q 363 497 343 550 l 368 497 q 406 598 388 550 q 444 697 425 646 l 526 906 l 740 906 l 467 322 l 467 0 l 263 0 l 263 322 m 226 972 q 156 1000 183 972 q 129 1069 129 1028 q 156 1139 129 1111 q 226 1167 183 1167 q 297 1139 269 1167 q 324 1069 324 1111 q 297 1000 324 1028 q 226 972 269 972 m 501 972 q 431 1000 458 972 q 404 1069 404 1028 q 431 1139 404 1111 q 501 1167 458 1167 q 572 1139 544 1167 q 599 1069 599 1111 q 572 1000 599 1028 q 501 972 544 972 z "},"Ẏ":{"ha":729,"x_min":-11,"x_max":740,"o":"m 263 322 l -11 906 l 208 906 l 289 697 q 326 598 308 646 q 363 497 343 550 l 368 497 q 406 598 388 550 q 444 697 425 646 l 526 906 l 740 906 l 467 322 l 467 0 l 263 0 l 263 322 m 364 974 q 279 1003 313 974 q 246 1081 246 1033 q 279 1158 246 1128 q 364 1188 313 1188 q 449 1158 415 1188 q 482 1081 482 1128 q 449 1003 482 1033 q 364 974 415 974 z "},"Ỵ":{"ha":729,"x_min":-11,"x_max":740,"o":"m 263 322 l -11 906 l 208 906 l 289 697 q 326 598 308 646 q 363 497 343 550 l 368 497 q 406 598 388 550 q 444 697 425 646 l 526 906 l 740 906 l 467 322 l 467 0 l 263 0 l 263 322 m 367 -314 q 285 -284 317 -314 q 254 -207 254 -254 q 285 -130 254 -160 q 367 -100 317 -100 q 448 -130 417 -100 q 479 -207 479 -160 q 448 -284 479 -254 q 367 -314 417 -314 z "},"Ỷ":{"ha":729,"x_min":-11,"x_max":740,"o":"m 263 322 l -11 906 l 208 906 l 289 697 q 326 598 308 646 q 363 497 343 550 l 368 497 q 406 598 388 550 q 444 697 425 646 l 526 906 l 740 906 l 467 322 l 467 0 l 263 0 l 263 322 m 300 1040 q 343 1054 325 1046 q 361 1082 361 1063 q 336 1113 361 1101 q 251 1129 311 1125 l 275 1231 q 456 1194 403 1228 q 508 1104 508 1160 q 493 1042 508 1068 q 451 999 478 1017 q 390 972 425 982 q 315 960 354 963 l 300 1040 z "},"Ỹ":{"ha":729,"x_min":-11,"x_max":740,"o":"m 263 322 l -11 906 l 208 906 l 289 697 q 326 598 308 646 q 363 497 343 550 l 368 497 q 406 598 388 550 q 444 697 425 646 l 526 906 l 740 906 l 467 322 l 467 0 l 263 0 l 263 322 m 451 976 q 400 986 424 976 q 356 1008 376 996 q 319 1029 336 1019 q 285 1039 301 1039 q 253 1025 267 1039 q 232 976 239 1011 l 128 976 q 181 1119 139 1072 q 276 1165 222 1165 q 328 1156 304 1165 q 372 1134 351 1146 q 409 1113 392 1122 q 443 1103 426 1103 q 475 1117 461 1103 q 496 1165 489 1131 l 600 1165 q 547 1023 589 1069 q 451 976 506 976 z "},"Ź":{"ha":751,"x_min":50,"x_max":706,"o":"m 50 124 l 450 733 l 88 733 l 88 906 l 701 906 l 701 782 l 301 172 l 706 172 l 706 0 l 50 0 l 50 124 m 450 975 l 288 975 l 400 1142 l 617 1142 l 450 975 z "},"Ž":{"ha":751,"x_min":50,"x_max":706,"o":"m 50 124 l 450 733 l 88 733 l 88 906 l 701 906 l 701 782 l 301 172 l 706 172 l 706 0 l 50 0 l 50 124 m 625 1142 l 492 975 l 292 975 l 158 1142 l 315 1142 l 389 1057 l 394 1057 l 468 1142 l 625 1142 z "},"Ż":{"ha":751,"x_min":50,"x_max":706,"o":"m 50 124 l 450 733 l 88 733 l 88 906 l 701 906 l 701 782 l 301 172 l 706 172 l 706 0 l 50 0 l 50 124 m 392 974 q 307 1003 340 974 q 274 1081 274 1033 q 307 1158 274 1128 q 392 1188 340 1188 q 476 1158 443 1188 q 510 1081 510 1128 q 476 1003 510 1033 q 392 974 443 974 z "},"Ẓ":{"ha":751,"x_min":50,"x_max":706,"o":"m 50 124 l 450 733 l 88 733 l 88 906 l 701 906 l 701 782 l 301 172 l 706 172 l 706 0 l 50 0 l 50 124 m 390 -314 q 309 -284 340 -314 q 278 -207 278 -254 q 309 -130 278 -160 q 390 -100 340 -100 q 472 -130 440 -100 q 503 -207 503 -160 q 472 -284 503 -254 q 390 -314 440 -314 z "},"Ð":{"ha":917,"x_min":36,"x_max":851,"o":"m 385 165 q 490 181 443 165 q 571 230 538 196 q 623 319 604 264 q 642 457 642 375 q 623 592 642 538 q 571 680 604 647 q 490 726 538 713 q 385 740 443 740 l 346 740 l 346 517 l 519 517 l 519 418 l 346 418 l 346 165 l 385 165 m 397 906 q 585 879 501 906 q 728 798 668 853 q 819 658 788 743 q 851 457 851 574 q 819 254 851 340 q 729 112 788 168 q 590 28 671 56 q 408 0 508 0 l 142 0 l 142 418 l 36 418 l 36 510 l 142 517 l 142 906 l 397 906 z "},"Þ":{"ha":857,"x_min":107,"x_max":792,"o":"m 107 906 l 311 906 l 311 768 l 438 768 q 576 753 511 768 q 688 705 640 739 q 764 615 736 671 q 792 478 792 560 q 763 340 792 397 q 686 244 735 282 q 574 189 638 207 q 438 171 510 171 l 311 171 l 311 0 l 107 0 l 107 906 m 425 333 q 592 478 592 333 q 549 577 592 549 q 425 606 507 606 l 311 606 l 311 333 l 425 333 z "},"Ə":{"ha":940,"x_min":71,"x_max":876,"o":"m 279 367 q 340 204 288 258 q 469 150 393 150 q 597 205 544 150 q 667 367 650 260 l 279 367 m 158 810 q 291 890 213 858 q 475 922 369 922 q 637 891 563 922 q 764 799 711 860 q 847 652 817 739 q 876 454 876 565 q 847 256 876 343 q 763 108 817 168 q 633 15 708 47 q 469 -17 558 -17 q 307 15 381 -17 q 181 106 233 46 q 100 252 129 165 q 71 449 71 339 q 75 517 71 481 l 671 517 q 603 694 660 633 q 450 754 547 754 q 338 728 386 754 q 253 669 289 703 l 158 810 z "},"à":{"ha":742,"x_min":65,"x_max":657,"o":"m 65 192 q 157 361 65 300 q 453 443 249 422 q 425 516 450 489 q 344 543 400 543 q 256 526 300 543 q 161 481 211 510 l 89 615 q 228 681 156 656 q 383 706 301 706 q 587 630 517 706 q 657 394 657 554 l 657 0 l 490 0 l 475 71 l 471 71 q 377 8 426 32 q 269 -17 328 -17 q 185 -1 222 -17 q 121 44 147 15 q 80 110 94 72 q 65 192 65 147 m 260 207 q 281 158 260 174 q 339 142 303 142 q 400 157 375 142 q 453 200 425 172 l 453 321 q 301 276 343 306 q 260 207 260 247 m 183 1006 l 381 1006 l 504 797 l 356 797 l 183 1006 z "},"á":{"ha":742,"x_min":65,"x_max":657,"o":"m 65 192 q 157 361 65 300 q 453 443 249 422 q 425 516 450 489 q 344 543 400 543 q 256 526 300 543 q 161 481 211 510 l 89 615 q 228 681 156 656 q 383 706 301 706 q 587 630 517 706 q 657 394 657 554 l 657 0 l 490 0 l 475 71 l 471 71 q 377 8 426 32 q 269 -17 328 -17 q 185 -1 222 -17 q 121 44 147 15 q 80 110 94 72 q 65 192 65 147 m 260 207 q 281 158 260 174 q 339 142 303 142 q 400 157 375 142 q 453 200 425 172 l 453 321 q 301 276 343 306 q 260 207 260 247 m 425 797 l 276 797 l 400 1006 l 597 1006 l 425 797 z "},"â":{"ha":742,"x_min":65,"x_max":657,"o":"m 65 192 q 157 361 65 300 q 453 443 249 422 q 425 516 450 489 q 344 543 400 543 q 256 526 300 543 q 161 481 211 510 l 89 615 q 228 681 156 656 q 383 706 301 706 q 587 630 517 706 q 657 394 657 554 l 657 0 l 490 0 l 475 71 l 471 71 q 377 8 426 32 q 269 -17 328 -17 q 185 -1 222 -17 q 121 44 147 15 q 80 110 94 72 q 65 192 65 147 m 260 207 q 281 158 260 174 q 339 142 303 142 q 400 157 375 142 q 453 200 425 172 l 453 321 q 301 276 343 306 q 260 207 260 247 m 310 1006 l 471 1006 l 604 797 l 467 797 l 393 907 l 388 907 l 314 797 l 176 797 l 310 1006 z "},"ã":{"ha":742,"x_min":65,"x_max":657,"o":"m 65 192 q 157 361 65 300 q 453 443 249 422 q 425 516 450 489 q 344 543 400 543 q 256 526 300 543 q 161 481 211 510 l 89 615 q 228 681 156 656 q 383 706 301 706 q 587 630 517 706 q 657 394 657 554 l 657 0 l 490 0 l 475 71 l 471 71 q 377 8 426 32 q 269 -17 328 -17 q 185 -1 222 -17 q 121 44 147 15 q 80 110 94 72 q 65 192 65 147 m 260 207 q 281 158 260 174 q 339 142 303 142 q 400 157 375 142 q 453 200 425 172 l 453 321 q 301 276 343 306 q 260 207 260 247 m 160 799 q 210 940 171 894 q 304 986 249 986 q 356 976 332 986 q 399 956 379 967 q 435 935 418 944 q 468 925 453 925 q 497 939 486 925 q 517 986 508 953 l 621 986 q 571 845 610 892 q 476 799 532 799 q 426 808 449 799 q 383 830 403 818 q 345 851 363 842 q 313 861 328 861 q 283 847 294 861 q 264 799 272 833 l 160 799 l 160 799 z "},"ä":{"ha":742,"x_min":65,"x_max":657,"o":"m 65 192 q 157 361 65 300 q 453 443 249 422 q 425 516 450 489 q 344 543 400 543 q 256 526 300 543 q 161 481 211 510 l 89 615 q 228 681 156 656 q 383 706 301 706 q 587 630 517 706 q 657 394 657 554 l 657 0 l 490 0 l 475 71 l 471 71 q 377 8 426 32 q 269 -17 328 -17 q 185 -1 222 -17 q 121 44 147 15 q 80 110 94 72 q 65 192 65 147 m 260 207 q 281 158 260 174 q 339 142 303 142 q 400 157 375 142 q 453 200 425 172 l 453 321 q 301 276 343 306 q 260 207 260 247 m 253 793 q 183 821 210 793 q 156 890 156 849 q 183 958 156 931 q 253 986 210 986 q 323 958 296 986 q 350 890 350 931 q 323 821 350 849 q 253 793 296 793 m 528 793 q 458 821 485 793 q 431 890 431 849 q 458 958 431 931 q 528 986 485 986 q 598 958 571 986 q 625 890 625 931 q 598 821 625 849 q 528 793 571 793 z "},"ā":{"ha":742,"x_min":65,"x_max":657,"o":"m 65 192 q 157 361 65 300 q 453 443 249 422 q 425 516 450 489 q 344 543 400 543 q 256 526 300 543 q 161 481 211 510 l 89 615 q 228 681 156 656 q 383 706 301 706 q 587 630 517 706 q 657 394 657 554 l 657 0 l 490 0 l 475 71 l 471 71 q 377 8 426 32 q 269 -17 328 -17 q 185 -1 222 -17 q 121 44 147 15 q 80 110 94 72 q 65 192 65 147 m 260 207 q 281 158 260 174 q 339 142 303 142 q 400 157 375 142 q 453 200 425 172 l 453 321 q 301 276 343 306 q 260 207 260 247 m 199 951 l 582 951 l 582 822 l 199 822 l 199 951 z "},"ă":{"ha":742,"x_min":65,"x_max":657,"o":"m 65 192 q 157 361 65 300 q 453 443 249 422 q 425 516 450 489 q 344 543 400 543 q 256 526 300 543 q 161 481 211 510 l 89 615 q 228 681 156 656 q 383 706 301 706 q 587 630 517 706 q 657 394 657 554 l 657 0 l 490 0 l 475 71 l 471 71 q 377 8 426 32 q 269 -17 328 -17 q 185 -1 222 -17 q 121 44 147 15 q 80 110 94 72 q 65 192 65 147 m 260 207 q 281 158 260 174 q 339 142 303 142 q 400 157 375 142 q 453 200 425 172 l 453 321 q 301 276 343 306 q 260 207 260 247 m 390 797 q 306 813 342 797 q 247 856 271 829 q 211 918 224 883 q 197 990 199 953 l 311 990 q 335 933 315 957 q 390 910 354 910 q 446 933 426 910 q 469 990 465 957 l 583 990 q 569 918 582 953 q 533 856 557 883 q 474 813 510 829 q 390 797 439 797 z "},"å":{"ha":742,"x_min":65,"x_max":657,"o":"m 65 192 q 157 361 65 300 q 453 443 249 422 q 425 516 450 489 q 344 543 400 543 q 256 526 300 543 q 161 481 211 510 l 89 615 q 228 681 156 656 q 383 706 301 706 q 587 630 517 706 q 657 394 657 554 l 657 0 l 490 0 l 475 71 l 471 71 q 377 8 426 32 q 269 -17 328 -17 q 185 -1 222 -17 q 121 44 147 15 q 80 110 94 72 q 65 192 65 147 m 260 207 q 281 158 260 174 q 339 142 303 142 q 400 157 375 142 q 453 200 425 172 l 453 321 q 301 276 343 306 q 260 207 260 247 m 390 761 q 276 799 319 761 q 233 903 233 838 q 276 1006 233 968 q 390 1044 319 1044 q 504 1006 461 1044 q 547 903 547 968 q 504 799 547 838 q 390 761 461 761 m 390 838 q 431 856 414 838 q 447 903 447 874 q 431 950 447 932 q 390 968 414 968 q 350 950 367 968 q 333 903 333 932 q 350 856 333 874 q 390 838 367 838 z "},"ǎ":{"ha":742,"x_min":65,"x_max":657,"o":"m 65 192 q 157 361 65 300 q 453 443 249 422 q 425 516 450 489 q 344 543 400 543 q 256 526 300 543 q 161 481 211 510 l 89 615 q 228 681 156 656 q 383 706 301 706 q 587 630 517 706 q 657 394 657 554 l 657 0 l 490 0 l 475 71 l 471 71 q 377 8 426 32 q 269 -17 328 -17 q 185 -1 222 -17 q 121 44 147 15 q 80 110 94 72 q 65 192 65 147 m 260 207 q 281 158 260 174 q 339 142 303 142 q 400 157 375 142 q 453 200 425 172 l 453 321 q 301 276 343 306 q 260 207 260 247 m 176 1006 l 314 1006 l 388 896 l 393 896 l 467 1006 l 604 1006 l 471 797 l 310 797 l 176 1006 z "},"ạ":{"ha":742,"x_min":65,"x_max":657,"o":"m 65 192 q 157 361 65 300 q 453 443 249 422 q 425 516 450 489 q 344 543 400 543 q 256 526 300 543 q 161 481 211 510 l 89 615 q 228 681 156 656 q 383 706 301 706 q 587 630 517 706 q 657 394 657 554 l 657 0 l 490 0 l 475 71 l 471 71 q 377 8 426 32 q 269 -17 328 -17 q 185 -1 222 -17 q 121 44 147 15 q 80 110 94 72 q 65 192 65 147 m 260 207 q 281 158 260 174 q 339 142 303 142 q 400 157 375 142 q 453 200 425 172 l 453 321 q 301 276 343 306 q 260 207 260 247 m 367 -314 q 285 -284 317 -314 q 254 -207 254 -254 q 285 -130 254 -160 q 367 -100 317 -100 q 448 -130 417 -100 q 479 -207 479 -160 q 448 -284 479 -254 q 367 -314 417 -314 z "},"ả":{"ha":742,"x_min":65,"x_max":657,"o":"m 65 192 q 157 361 65 300 q 453 443 249 422 q 425 516 450 489 q 344 543 400 543 q 256 526 300 543 q 161 481 211 510 l 89 615 q 228 681 156 656 q 383 706 301 706 q 587 630 517 706 q 657 394 657 554 l 657 0 l 490 0 l 475 71 l 471 71 q 377 8 426 32 q 269 -17 328 -17 q 185 -1 222 -17 q 121 44 147 15 q 80 110 94 72 q 65 192 65 147 m 260 207 q 281 158 260 174 q 339 142 303 142 q 400 157 375 142 q 453 200 425 172 l 453 321 q 301 276 343 306 q 260 207 260 247 m 326 854 q 369 867 351 858 q 388 896 388 876 q 363 927 388 915 q 278 942 338 939 l 301 1044 q 482 1006 429 1040 q 535 917 535 972 q 519 855 535 881 q 478 812 504 829 q 416 785 451 794 q 342 774 381 776 l 326 854 z "},"ấ":{"ha":742,"x_min":65,"x_max":785,"o":"m 65 192 q 157 361 65 300 q 453 443 249 422 q 425 516 450 489 q 344 543 400 543 q 256 526 300 543 q 161 481 211 510 l 89 615 q 228 681 156 656 q 383 706 301 706 q 587 630 517 706 q 657 394 657 554 l 657 0 l 490 0 l 475 71 l 471 71 q 377 8 426 32 q 269 -17 328 -17 q 185 -1 222 -17 q 121 44 147 15 q 80 110 94 72 q 65 192 65 147 m 260 207 q 281 158 260 174 q 339 142 303 142 q 400 157 375 142 q 453 200 425 172 l 453 321 q 301 276 343 306 q 260 207 260 247 m 310 975 l 471 975 l 583 797 l 458 797 l 393 888 l 388 888 l 322 797 l 197 797 l 310 975 m 633 1061 l 785 1061 l 653 897 l 539 897 l 633 1061 z "},"ầ":{"ha":742,"x_min":65,"x_max":736,"o":"m 65 192 q 157 361 65 300 q 453 443 249 422 q 425 516 450 489 q 344 543 400 543 q 256 526 300 543 q 161 481 211 510 l 89 615 q 228 681 156 656 q 383 706 301 706 q 587 630 517 706 q 657 394 657 554 l 657 0 l 490 0 l 475 71 l 471 71 q 377 8 426 32 q 269 -17 328 -17 q 185 -1 222 -17 q 121 44 147 15 q 80 110 94 72 q 65 192 65 147 m 260 207 q 281 158 260 174 q 339 142 303 142 q 400 157 375 142 q 453 200 425 172 l 453 321 q 301 276 343 306 q 260 207 260 247 m 310 975 l 471 975 l 583 797 l 458 797 l 393 888 l 388 888 l 322 797 l 197 797 l 310 975 m 736 897 l 622 897 l 490 1061 l 642 1061 l 736 897 z "},"ẩ":{"ha":742,"x_min":65,"x_max":743,"o":"m 65 192 q 157 361 65 300 q 453 443 249 422 q 425 516 450 489 q 344 543 400 543 q 256 526 300 543 q 161 481 211 510 l 89 615 q 228 681 156 656 q 383 706 301 706 q 587 630 517 706 q 657 394 657 554 l 657 0 l 490 0 l 475 71 l 471 71 q 377 8 426 32 q 269 -17 328 -17 q 185 -1 222 -17 q 121 44 147 15 q 80 110 94 72 q 65 192 65 147 m 260 207 q 281 158 260 174 q 339 142 303 142 q 400 157 375 142 q 453 200 425 172 l 453 321 q 301 276 343 306 q 260 207 260 247 m 310 975 l 471 975 l 583 797 l 458 797 l 393 888 l 388 888 l 322 797 l 197 797 l 310 975 m 568 942 q 599 954 588 946 q 610 981 610 963 q 591 1012 610 1000 q 519 1026 572 1024 l 539 1113 q 698 1081 653 1110 q 743 1003 743 1051 q 730 945 743 968 q 695 908 717 922 q 644 885 674 893 q 582 872 615 876 l 568 942 z "},"ẫ":{"ha":742,"x_min":65,"x_max":657,"o":"m 65 192 q 157 361 65 300 q 453 443 249 422 q 425 516 450 489 q 344 543 400 543 q 256 526 300 543 q 161 481 211 510 l 89 615 q 228 681 156 656 q 383 706 301 706 q 587 630 517 706 q 657 394 657 554 l 657 0 l 490 0 l 475 71 l 471 71 q 377 8 426 32 q 269 -17 328 -17 q 185 -1 222 -17 q 121 44 147 15 q 80 110 94 72 q 65 192 65 147 m 260 207 q 281 158 260 174 q 339 142 303 142 q 400 157 375 142 q 453 200 425 172 l 453 321 q 301 276 343 306 q 260 207 260 247 m 297 950 l 483 950 l 594 796 l 463 796 l 393 878 l 388 878 l 318 796 l 186 796 l 297 950 m 188 1000 q 233 1121 197 1083 q 314 1158 268 1158 q 362 1150 342 1158 q 398 1132 382 1142 q 427 1114 414 1122 q 456 1106 440 1106 q 504 1158 494 1106 l 593 1158 q 548 1038 583 1076 q 467 1000 513 1000 q 419 1008 439 1000 q 383 1026 399 1017 q 353 1044 367 1036 q 325 1053 339 1053 q 276 1000 286 1053 l 188 1000 z "},"ậ":{"ha":742,"x_min":65,"x_max":657,"o":"m 65 192 q 157 361 65 300 q 453 443 249 422 q 425 516 450 489 q 344 543 400 543 q 256 526 300 543 q 161 481 211 510 l 89 615 q 228 681 156 656 q 383 706 301 706 q 587 630 517 706 q 657 394 657 554 l 657 0 l 490 0 l 475 71 l 471 71 q 377 8 426 32 q 269 -17 328 -17 q 185 -1 222 -17 q 121 44 147 15 q 80 110 94 72 q 65 192 65 147 m 260 207 q 281 158 260 174 q 339 142 303 142 q 400 157 375 142 q 453 200 425 172 l 453 321 q 301 276 343 306 q 260 207 260 247 m 310 1006 l 471 1006 l 604 797 l 467 797 l 393 907 l 388 907 l 314 797 l 176 797 l 310 1006 m 367 -314 q 285 -284 317 -314 q 254 -207 254 -254 q 285 -130 254 -160 q 367 -100 317 -100 q 448 -130 417 -100 q 479 -207 479 -160 q 448 -284 479 -254 q 367 -314 417 -314 z "},"ắ":{"ha":742,"x_min":65,"x_max":657,"o":"m 65 192 q 157 361 65 300 q 453 443 249 422 q 425 516 450 489 q 344 543 400 543 q 256 526 300 543 q 161 481 211 510 l 89 615 q 228 681 156 656 q 383 706 301 706 q 587 630 517 706 q 657 394 657 554 l 657 0 l 490 0 l 475 71 l 471 71 q 377 8 426 32 q 269 -17 328 -17 q 185 -1 222 -17 q 121 44 147 15 q 80 110 94 72 q 65 192 65 147 m 260 207 q 281 158 260 174 q 339 142 303 142 q 400 157 375 142 q 453 200 425 172 l 453 321 q 301 276 343 306 q 260 207 260 247 m 406 1125 l 553 1125 l 429 961 l 326 961 l 406 1125 m 390 797 q 306 813 342 797 q 247 856 271 829 q 211 918 224 883 q 197 990 199 953 l 288 990 q 319 924 294 951 q 390 897 343 897 q 462 924 438 897 q 493 990 486 951 l 583 990 q 569 918 582 953 q 533 856 557 883 q 474 813 510 829 q 390 797 439 797 z "},"ằ":{"ha":742,"x_min":65,"x_max":657,"o":"m 65 192 q 157 361 65 300 q 453 443 249 422 q 425 516 450 489 q 344 543 400 543 q 256 526 300 543 q 161 481 211 510 l 89 615 q 228 681 156 656 q 383 706 301 706 q 587 630 517 706 q 657 394 657 554 l 657 0 l 490 0 l 475 71 l 471 71 q 377 8 426 32 q 269 -17 328 -17 q 185 -1 222 -17 q 121 44 147 15 q 80 110 94 72 q 65 192 65 147 m 260 207 q 281 158 260 174 q 339 142 303 142 q 400 157 375 142 q 453 200 425 172 l 453 321 q 301 276 343 306 q 260 207 260 247 m 454 961 l 351 961 l 228 1125 l 375 1125 l 454 961 m 390 797 q 306 813 342 797 q 247 856 271 829 q 211 918 224 883 q 197 990 199 953 l 288 990 q 319 924 294 951 q 390 897 343 897 q 462 924 438 897 q 493 990 486 951 l 583 990 q 569 918 582 953 q 533 856 557 883 q 474 813 510 829 q 390 797 439 797 z "},"ẳ":{"ha":742,"x_min":65,"x_max":657,"o":"m 65 192 q 157 361 65 300 q 453 443 249 422 q 425 516 450 489 q 344 543 400 543 q 256 526 300 543 q 161 481 211 510 l 89 615 q 228 681 156 656 q 383 706 301 706 q 587 630 517 706 q 657 394 657 554 l 657 0 l 490 0 l 475 71 l 471 71 q 377 8 426 32 q 269 -17 328 -17 q 185 -1 222 -17 q 121 44 147 15 q 80 110 94 72 q 65 192 65 147 m 260 207 q 281 158 260 174 q 339 142 303 142 q 400 157 375 142 q 453 200 425 172 l 453 321 q 301 276 343 306 q 260 207 260 247 m 390 797 q 306 813 342 797 q 247 856 271 829 q 211 918 224 883 q 197 990 199 953 l 288 990 q 319 924 294 951 q 390 897 343 897 q 462 924 438 897 q 493 990 486 951 l 583 990 q 569 918 582 953 q 533 856 557 883 q 474 813 510 829 q 390 797 439 797 m 329 1039 q 360 1051 349 1043 q 371 1078 371 1058 q 352 1108 371 1097 q 281 1124 333 1119 l 299 1210 q 458 1176 413 1206 q 504 1099 504 1147 q 491 1042 504 1065 q 456 1005 478 1019 q 405 982 435 990 q 342 969 375 974 l 329 1039 z "},"ẵ":{"ha":742,"x_min":65,"x_max":657,"o":"m 65 192 q 157 361 65 300 q 453 443 249 422 q 425 516 450 489 q 344 543 400 543 q 256 526 300 543 q 161 481 211 510 l 89 615 q 228 681 156 656 q 383 706 301 706 q 587 630 517 706 q 657 394 657 554 l 657 0 l 490 0 l 475 71 l 471 71 q 377 8 426 32 q 269 -17 328 -17 q 185 -1 222 -17 q 121 44 147 15 q 80 110 94 72 q 65 192 65 147 m 260 207 q 281 158 260 174 q 339 142 303 142 q 400 157 375 142 q 453 200 425 172 l 453 321 q 301 276 343 306 q 260 207 260 247 m 390 797 q 306 810 342 797 q 247 847 271 824 q 211 899 224 869 q 197 963 199 929 l 293 963 q 322 914 300 935 q 390 893 343 893 q 459 914 438 893 q 488 963 481 935 l 583 963 q 569 899 582 929 q 533 847 557 869 q 474 810 510 824 q 390 797 439 797 m 188 1000 q 233 1121 197 1083 q 314 1158 268 1158 q 362 1150 342 1158 q 398 1132 382 1142 q 427 1114 414 1122 q 456 1106 440 1106 q 504 1158 494 1106 l 593 1158 q 548 1038 583 1076 q 467 1000 513 1000 q 419 1008 439 1000 q 383 1026 399 1017 q 353 1044 367 1036 q 325 1053 339 1053 q 276 1000 286 1053 l 188 1000 z "},"ặ":{"ha":742,"x_min":65,"x_max":657,"o":"m 65 192 q 157 361 65 300 q 453 443 249 422 q 425 516 450 489 q 344 543 400 543 q 256 526 300 543 q 161 481 211 510 l 89 615 q 228 681 156 656 q 383 706 301 706 q 587 630 517 706 q 657 394 657 554 l 657 0 l 490 0 l 475 71 l 471 71 q 377 8 426 32 q 269 -17 328 -17 q 185 -1 222 -17 q 121 44 147 15 q 80 110 94 72 q 65 192 65 147 m 260 207 q 281 158 260 174 q 339 142 303 142 q 400 157 375 142 q 453 200 425 172 l 453 321 q 301 276 343 306 q 260 207 260 247 m 390 797 q 306 813 342 797 q 247 856 271 829 q 211 918 224 883 q 197 990 199 953 l 311 990 q 335 933 315 957 q 390 910 354 910 q 446 933 426 910 q 469 990 465 957 l 583 990 q 569 918 582 953 q 533 856 557 883 q 474 813 510 829 q 390 797 439 797 m 367 -314 q 285 -284 317 -314 q 254 -207 254 -254 q 285 -130 254 -160 q 367 -100 317 -100 q 448 -130 417 -100 q 479 -207 479 -160 q 448 -284 479 -254 q 367 -314 417 -314 z "},"ą":{"ha":742,"x_min":65,"x_max":685,"o":"m 260 207 q 281 158 260 174 q 339 142 303 142 q 400 157 375 142 q 453 200 425 172 l 453 321 q 301 276 343 306 q 260 207 260 247 m 65 190 q 157 361 65 300 q 453 443 249 422 q 425 516 450 489 q 344 543 400 543 q 256 526 300 543 q 161 481 211 510 l 89 615 q 228 681 156 656 q 383 706 301 706 q 587 630 517 706 q 657 394 657 554 l 657 0 q 562 -53 589 -19 q 535 -118 535 -86 q 553 -158 535 -146 q 593 -171 571 -171 q 620 -166 607 -171 q 643 -154 633 -161 l 685 -246 q 618 -279 658 -267 q 544 -292 578 -292 q 440 -260 482 -292 q 397 -165 397 -228 q 407 -109 397 -135 q 431 -62 417 -83 q 463 -26 446 -42 q 493 -3 479 -11 l 475 71 l 471 71 q 377 8 426 32 q 269 -17 328 -17 q 185 -1 222 -17 q 121 44 147 15 q 80 110 94 72 q 65 190 65 147 z "},"æ":{"ha":1092,"x_min":65,"x_max":1040,"o":"m 260 207 q 281 158 260 174 q 339 142 303 142 q 408 157 375 142 q 468 200 440 172 q 449 292 453 243 l 447 321 q 303 276 346 306 q 260 207 260 247 m 89 615 q 226 681 156 656 q 371 706 296 706 q 483 678 435 706 q 563 601 532 650 q 656 678 607 651 q 767 706 704 706 q 886 680 835 706 q 972 609 938 654 q 1023 503 1006 564 q 1040 371 1040 442 q 1038 320 1040 343 q 1032 285 1035 297 l 635 285 q 692 178 646 213 q 800 143 738 143 q 874 157 839 143 q 946 193 908 171 l 1015 61 q 898 4 963 25 q 772 -17 833 -17 q 637 13 694 -17 q 535 90 579 42 q 400 8 461 32 q 269 -17 339 -17 q 185 -1 222 -17 q 121 44 147 15 q 80 110 94 72 q 65 190 65 147 q 156 362 65 300 q 449 444 246 424 q 423 516 446 489 q 342 543 400 543 q 256 526 300 543 q 161 481 211 510 l 89 615 m 867 410 q 842 511 867 472 q 760 550 817 550 q 677 516 711 550 q 635 410 643 482 l 867 410 z "},"ç":{"ha":649,"x_min":50,"x_max":619,"o":"m 50 344 q 79 498 50 431 q 158 611 108 565 q 272 681 207 657 q 408 706 338 706 q 524 684 472 706 q 610 626 575 663 l 517 500 q 421 540 468 540 q 303 488 346 540 q 260 344 260 435 q 303 201 260 254 q 414 149 347 149 q 482 164 451 149 q 538 199 513 179 l 619 69 q 508 4 569 25 q 390 -17 447 -17 q 256 8 318 -17 q 149 78 194 32 q 76 191 103 124 q 50 344 50 258 m 338 6 l 457 6 l 429 -60 q 488 -95 465 -71 q 510 -162 510 -119 q 490 -224 510 -199 q 436 -268 469 -250 q 358 -295 403 -286 q 264 -307 314 -304 l 249 -225 q 331 -206 299 -219 q 364 -164 364 -192 q 347 -131 364 -146 q 282 -106 329 -117 l 338 6 z "},"ć":{"ha":649,"x_min":50,"x_max":619,"o":"m 50 344 q 79 498 50 431 q 158 611 108 565 q 272 681 207 657 q 408 706 338 706 q 524 684 472 706 q 610 626 575 663 l 517 500 q 421 540 468 540 q 303 488 346 540 q 260 344 260 435 q 303 201 260 254 q 414 149 347 149 q 482 164 451 149 q 538 199 513 179 l 619 69 q 508 4 569 25 q 390 -17 447 -17 q 256 8 318 -17 q 149 78 194 32 q 76 191 103 124 q 50 344 50 258 m 438 797 l 289 797 l 413 1006 l 610 1006 l 438 797 z "},"ĉ":{"ha":649,"x_min":50,"x_max":619,"o":"m 50 344 q 79 498 50 431 q 158 611 108 565 q 272 681 207 657 q 408 706 338 706 q 524 684 472 706 q 610 626 575 663 l 517 500 q 421 540 468 540 q 303 488 346 540 q 260 344 260 435 q 303 201 260 254 q 414 149 347 149 q 482 164 451 149 q 538 199 513 179 l 619 69 q 508 4 569 25 q 390 -17 447 -17 q 256 8 318 -17 q 149 78 194 32 q 76 191 103 124 q 50 344 50 258 m 322 1006 l 483 1006 l 617 797 l 479 797 l 406 907 l 400 907 l 326 797 l 189 797 l 322 1006 z "},"č":{"ha":649,"x_min":50,"x_max":619,"o":"m 50 344 q 79 498 50 431 q 158 611 108 565 q 272 681 207 657 q 408 706 338 706 q 524 684 472 706 q 610 626 575 663 l 517 500 q 421 540 468 540 q 303 488 346 540 q 260 344 260 435 q 303 201 260 254 q 414 149 347 149 q 482 164 451 149 q 538 199 513 179 l 619 69 q 508 4 569 25 q 390 -17 447 -17 q 256 8 318 -17 q 149 78 194 32 q 76 191 103 124 q 50 344 50 258 m 189 1006 l 326 1006 l 400 896 l 406 896 l 479 1006 l 617 1006 l 483 797 l 322 797 l 189 1006 z "},"ċ":{"ha":649,"x_min":50,"x_max":619,"o":"m 50 344 q 79 498 50 431 q 158 611 108 565 q 272 681 207 657 q 408 706 338 706 q 524 684 472 706 q 610 626 575 663 l 517 500 q 421 540 468 540 q 303 488 346 540 q 260 344 260 435 q 303 201 260 254 q 414 149 347 149 q 482 164 451 149 q 538 199 513 179 l 619 69 q 508 4 569 25 q 390 -17 447 -17 q 256 8 318 -17 q 149 78 194 32 q 76 191 103 124 q 50 344 50 258 m 403 790 q 322 820 353 790 q 290 897 290 850 q 322 974 290 944 q 403 1004 353 1004 q 484 974 453 1004 q 515 897 515 944 q 484 820 515 850 q 403 790 453 790 z "},"ď":{"ha":853,"x_min":54,"x_max":890,"o":"m 54 344 q 78 496 54 429 q 142 609 103 563 q 234 681 182 656 q 340 706 286 706 q 436 686 399 706 q 510 633 474 667 l 501 739 l 501 974 l 706 974 l 706 0 l 539 0 l 525 68 l 519 68 q 435 8 483 32 q 336 -17 386 -17 q 220 8 272 -17 q 131 80 168 33 q 74 193 94 126 q 54 344 54 260 m 264 347 q 297 197 264 244 q 389 150 329 150 q 449 164 422 150 q 501 213 476 178 l 501 494 q 444 529 474 519 q 388 539 415 539 q 301 492 339 539 q 264 347 264 446 m 767 761 l 758 1069 l 890 1069 l 888 974 l 854 761 l 767 761 z "},"ḍ":{"ha":796,"x_min":54,"x_max":706,"o":"m 54 344 q 78 496 54 429 q 142 609 103 563 q 234 681 182 656 q 340 706 286 706 q 436 686 399 706 q 510 633 474 667 l 501 739 l 501 974 l 706 974 l 706 0 l 539 0 l 525 68 l 519 68 q 435 8 483 32 q 336 -17 386 -17 q 220 8 272 -17 q 131 80 168 33 q 74 193 94 126 q 54 344 54 260 m 264 347 q 297 197 264 244 q 389 150 329 150 q 449 164 422 150 q 501 213 476 178 l 501 494 q 444 529 474 519 q 388 539 415 539 q 301 492 339 539 q 264 347 264 446 m 433 -314 q 352 -284 383 -314 q 321 -207 321 -254 q 352 -130 321 -160 q 433 -100 383 -100 q 515 -130 483 -100 q 546 -207 546 -160 q 515 -284 546 -254 q 433 -314 483 -314 z "},"ḏ":{"ha":796,"x_min":54,"x_max":706,"o":"m 54 344 q 78 496 54 429 q 142 609 103 563 q 234 681 182 656 q 340 706 286 706 q 436 686 399 706 q 510 633 474 667 l 501 739 l 501 974 l 706 974 l 706 0 l 539 0 l 525 68 l 519 68 q 435 8 483 32 q 336 -17 386 -17 q 220 8 272 -17 q 131 80 168 33 q 74 193 94 126 q 54 344 54 260 m 264 347 q 297 197 264 244 q 389 150 329 150 q 449 164 422 150 q 501 213 476 178 l 501 494 q 444 529 474 519 q 388 539 415 539 q 301 492 339 539 q 264 347 264 446 m 624 -262 l 240 -262 l 240 -132 l 624 -132 l 624 -262 z "},"đ":{"ha":796,"x_min":54,"x_max":800,"o":"m 501 467 q 444 501 474 492 q 388 511 415 511 q 301 468 339 511 q 264 333 264 425 q 297 193 264 236 q 389 150 329 150 q 449 164 422 150 q 501 213 476 178 l 501 467 m 800 781 l 706 774 l 706 0 l 535 0 l 522 61 l 517 61 q 435 5 481 26 q 336 -17 389 -17 q 131 74 207 -17 q 54 331 54 165 q 78 475 54 411 q 142 584 103 539 q 234 653 182 629 q 340 678 286 678 q 436 658 399 678 q 510 606 474 639 l 501 711 l 501 772 l 294 772 l 294 871 l 501 871 l 501 974 l 706 974 l 706 871 l 800 871 l 800 781 z "},"è":{"ha":719,"x_min":50,"x_max":668,"o":"m 50 344 q 78 495 50 428 q 151 609 106 563 q 254 681 196 656 q 375 706 313 706 q 503 681 449 706 q 595 611 558 656 q 650 506 632 567 q 668 375 668 446 q 665 324 668 347 q 660 289 663 301 l 247 289 q 309 174 261 210 q 426 139 357 139 q 575 185 500 139 l 643 61 q 526 4 590 25 q 399 -17 461 -17 q 261 8 325 -17 q 150 78 197 32 q 76 192 103 125 q 50 344 50 258 m 494 415 q 468 513 494 475 q 379 550 442 550 q 294 517 331 550 q 246 415 257 485 l 494 415 m 168 1006 l 365 1006 l 489 797 l 340 797 l 168 1006 z "},"é":{"ha":719,"x_min":50,"x_max":668,"o":"m 50 344 q 78 495 50 428 q 151 609 106 563 q 254 681 196 656 q 375 706 313 706 q 503 681 449 706 q 595 611 558 656 q 650 506 632 567 q 668 375 668 446 q 665 324 668 347 q 660 289 663 301 l 247 289 q 309 174 261 210 q 426 139 357 139 q 575 185 500 139 l 643 61 q 526 4 590 25 q 399 -17 461 -17 q 261 8 325 -17 q 150 78 197 32 q 76 192 103 125 q 50 344 50 258 m 494 415 q 468 513 494 475 q 379 550 442 550 q 294 517 331 550 q 246 415 257 485 l 494 415 m 410 797 l 261 797 l 385 1006 l 582 1006 l 410 797 z "},"ê":{"ha":719,"x_min":50,"x_max":668,"o":"m 50 344 q 78 495 50 428 q 151 609 106 563 q 254 681 196 656 q 375 706 313 706 q 503 681 449 706 q 595 611 558 656 q 650 506 632 567 q 668 375 668 446 q 665 324 668 347 q 660 289 663 301 l 247 289 q 309 174 261 210 q 426 139 357 139 q 575 185 500 139 l 643 61 q 526 4 590 25 q 399 -17 461 -17 q 261 8 325 -17 q 150 78 197 32 q 76 192 103 125 q 50 344 50 258 m 494 415 q 468 513 494 475 q 379 550 442 550 q 294 517 331 550 q 246 415 257 485 l 494 415 m 294 1006 l 456 1006 l 589 797 l 451 797 l 378 907 l 372 907 l 299 797 l 161 797 l 294 1006 z "},"ě":{"ha":719,"x_min":50,"x_max":668,"o":"m 50 344 q 78 495 50 428 q 151 609 106 563 q 254 681 196 656 q 375 706 313 706 q 503 681 449 706 q 595 611 558 656 q 650 506 632 567 q 668 375 668 446 q 665 324 668 347 q 660 289 663 301 l 247 289 q 309 174 261 210 q 426 139 357 139 q 575 185 500 139 l 643 61 q 526 4 590 25 q 399 -17 461 -17 q 261 8 325 -17 q 150 78 197 32 q 76 192 103 125 q 50 344 50 258 m 494 415 q 468 513 494 475 q 379 550 442 550 q 294 517 331 550 q 246 415 257 485 l 494 415 m 161 1006 l 299 1006 l 372 896 l 378 896 l 451 1006 l 589 1006 l 456 797 l 294 797 l 161 1006 z "},"ë":{"ha":719,"x_min":50,"x_max":668,"o":"m 50 344 q 78 495 50 428 q 151 609 106 563 q 254 681 196 656 q 375 706 313 706 q 503 681 449 706 q 595 611 558 656 q 650 506 632 567 q 668 375 668 446 q 665 324 668 347 q 660 289 663 301 l 247 289 q 309 174 261 210 q 426 139 357 139 q 575 185 500 139 l 643 61 q 526 4 590 25 q 399 -17 461 -17 q 261 8 325 -17 q 150 78 197 32 q 76 192 103 125 q 50 344 50 258 m 494 415 q 468 513 494 475 q 379 550 442 550 q 294 517 331 550 q 246 415 257 485 l 494 415 m 238 793 q 167 821 194 793 q 140 890 140 849 q 167 958 140 931 q 238 986 194 986 q 308 958 281 986 q 335 890 335 931 q 308 821 335 849 q 238 793 281 793 m 513 793 q 442 821 469 793 q 415 890 415 849 q 442 958 415 931 q 513 986 469 986 q 583 958 556 986 q 610 890 610 931 q 583 821 610 849 q 513 793 556 793 z "},"ē":{"ha":719,"x_min":50,"x_max":668,"o":"m 50 344 q 78 495 50 428 q 151 609 106 563 q 254 681 196 656 q 375 706 313 706 q 503 681 449 706 q 595 611 558 656 q 650 506 632 567 q 668 375 668 446 q 665 324 668 347 q 660 289 663 301 l 247 289 q 309 174 261 210 q 426 139 357 139 q 575 185 500 139 l 643 61 q 526 4 590 25 q 399 -17 461 -17 q 261 8 325 -17 q 150 78 197 32 q 76 192 103 125 q 50 344 50 258 m 494 415 q 468 513 494 475 q 379 550 442 550 q 294 517 331 550 q 246 415 257 485 l 494 415 m 183 951 l 567 951 l 567 822 l 183 822 l 183 951 z "},"ĕ":{"ha":719,"x_min":50,"x_max":668,"o":"m 50 344 q 78 495 50 428 q 151 609 106 563 q 254 681 196 656 q 375 706 313 706 q 503 681 449 706 q 595 611 558 656 q 650 506 632 567 q 668 375 668 446 q 665 324 668 347 q 660 289 663 301 l 247 289 q 309 174 261 210 q 426 139 357 139 q 575 185 500 139 l 643 61 q 526 4 590 25 q 399 -17 461 -17 q 261 8 325 -17 q 150 78 197 32 q 76 192 103 125 q 50 344 50 258 m 494 415 q 468 513 494 475 q 379 550 442 550 q 294 517 331 550 q 246 415 257 485 l 494 415 m 375 797 q 291 813 326 797 q 232 856 256 829 q 196 918 208 883 q 182 990 183 953 l 296 990 q 319 933 300 957 q 375 910 339 910 q 431 933 411 910 q 454 990 450 957 l 568 990 q 554 918 567 953 q 518 856 542 883 q 459 813 494 829 q 375 797 424 797 z "},"ė":{"ha":719,"x_min":50,"x_max":668,"o":"m 50 344 q 78 495 50 428 q 151 609 106 563 q 254 681 196 656 q 375 706 313 706 q 503 681 449 706 q 595 611 558 656 q 650 506 632 567 q 668 375 668 446 q 665 324 668 347 q 660 289 663 301 l 247 289 q 309 174 261 210 q 426 139 357 139 q 575 185 500 139 l 643 61 q 526 4 590 25 q 399 -17 461 -17 q 261 8 325 -17 q 150 78 197 32 q 76 192 103 125 q 50 344 50 258 m 494 415 q 468 513 494 475 q 379 550 442 550 q 294 517 331 550 q 246 415 257 485 l 494 415 m 375 790 q 294 820 325 790 q 263 897 263 850 q 294 974 263 944 q 375 1004 325 1004 q 456 974 425 1004 q 488 897 488 944 q 456 820 488 850 q 375 790 425 790 z "},"ẹ":{"ha":719,"x_min":50,"x_max":668,"o":"m 50 344 q 78 495 50 428 q 151 609 106 563 q 254 681 196 656 q 375 706 313 706 q 503 681 449 706 q 595 611 558 656 q 650 506 632 567 q 668 375 668 446 q 665 324 668 347 q 660 289 663 301 l 247 289 q 309 174 261 210 q 426 139 357 139 q 575 185 500 139 l 643 61 q 526 4 590 25 q 399 -17 461 -17 q 261 8 325 -17 q 150 78 197 32 q 76 192 103 125 q 50 344 50 258 m 494 415 q 468 513 494 475 q 379 550 442 550 q 294 517 331 550 q 246 415 257 485 l 494 415 m 375 -314 q 294 -284 325 -314 q 263 -207 263 -254 q 294 -130 263 -160 q 375 -100 325 -100 q 456 -130 425 -100 q 488 -207 488 -160 q 456 -284 488 -254 q 375 -314 425 -314 z "},"ẻ":{"ha":719,"x_min":50,"x_max":668,"o":"m 50 344 q 78 495 50 428 q 151 609 106 563 q 254 681 196 656 q 375 706 313 706 q 503 681 449 706 q 595 611 558 656 q 650 506 632 567 q 668 375 668 446 q 665 324 668 347 q 660 289 663 301 l 247 289 q 309 174 261 210 q 426 139 357 139 q 575 185 500 139 l 643 61 q 526 4 590 25 q 399 -17 461 -17 q 261 8 325 -17 q 150 78 197 32 q 76 192 103 125 q 50 344 50 258 m 494 415 q 468 513 494 475 q 379 550 442 550 q 294 517 331 550 q 246 415 257 485 l 494 415 m 311 854 q 354 867 336 858 q 372 896 372 876 q 347 927 372 915 q 263 942 322 939 l 286 1044 q 467 1006 414 1040 q 519 917 519 972 q 504 855 519 881 q 463 812 489 829 q 401 785 436 794 q 326 774 365 776 l 311 854 z "},"ẽ":{"ha":719,"x_min":50,"x_max":668,"o":"m 50 344 q 78 495 50 428 q 151 609 106 563 q 254 681 196 656 q 375 706 313 706 q 503 681 449 706 q 595 611 558 656 q 650 506 632 567 q 668 375 668 446 q 665 324 668 347 q 660 289 663 301 l 247 289 q 309 174 261 210 q 426 139 357 139 q 575 185 500 139 l 643 61 q 526 4 590 25 q 399 -17 461 -17 q 261 8 325 -17 q 150 78 197 32 q 76 192 103 125 q 50 344 50 258 m 494 415 q 468 513 494 475 q 379 550 442 550 q 294 517 331 550 q 246 415 257 485 l 494 415 m 144 799 q 194 940 156 894 q 289 986 233 986 q 340 976 317 986 q 383 956 364 967 q 420 935 403 944 q 453 925 438 925 q 482 939 471 925 q 501 986 493 953 l 606 986 q 556 845 594 892 q 461 799 517 799 q 410 808 433 799 q 367 830 388 818 q 330 851 347 842 q 297 861 313 861 q 268 847 279 861 q 249 799 257 833 l 144 799 l 144 799 z "},"ế":{"ha":719,"x_min":50,"x_max":769,"o":"m 50 344 q 78 495 50 428 q 151 609 106 563 q 254 681 196 656 q 375 706 313 706 q 503 681 449 706 q 595 611 558 656 q 650 506 632 567 q 668 375 668 446 q 665 324 668 347 q 660 289 663 301 l 247 289 q 309 174 261 210 q 426 139 357 139 q 575 185 500 139 l 643 61 q 526 4 590 25 q 399 -17 461 -17 q 261 8 325 -17 q 150 78 197 32 q 76 192 103 125 q 50 344 50 258 m 494 415 q 468 513 494 475 q 379 550 442 550 q 294 517 331 550 q 246 415 257 485 l 494 415 m 294 975 l 456 975 l 568 797 l 443 797 l 378 888 l 372 888 l 307 797 l 182 797 l 294 975 m 618 1061 l 769 1061 l 638 897 l 524 897 l 618 1061 z "},"ề":{"ha":719,"x_min":50,"x_max":721,"o":"m 50 344 q 78 495 50 428 q 151 609 106 563 q 254 681 196 656 q 375 706 313 706 q 503 681 449 706 q 595 611 558 656 q 650 506 632 567 q 668 375 668 446 q 665 324 668 347 q 660 289 663 301 l 247 289 q 309 174 261 210 q 426 139 357 139 q 575 185 500 139 l 643 61 q 526 4 590 25 q 399 -17 461 -17 q 261 8 325 -17 q 150 78 197 32 q 76 192 103 125 q 50 344 50 258 m 494 415 q 468 513 494 475 q 379 550 442 550 q 294 517 331 550 q 246 415 257 485 l 494 415 m 294 975 l 456 975 l 568 797 l 443 797 l 378 888 l 372 888 l 307 797 l 182 797 l 294 975 m 721 897 l 607 897 l 475 1061 l 626 1061 l 721 897 z "},"ể":{"ha":719,"x_min":50,"x_max":728,"o":"m 50 344 q 78 495 50 428 q 151 609 106 563 q 254 681 196 656 q 375 706 313 706 q 503 681 449 706 q 595 611 558 656 q 650 506 632 567 q 668 375 668 446 q 665 324 668 347 q 660 289 663 301 l 247 289 q 309 174 261 210 q 426 139 357 139 q 575 185 500 139 l 643 61 q 526 4 590 25 q 399 -17 461 -17 q 261 8 325 -17 q 150 78 197 32 q 76 192 103 125 q 50 344 50 258 m 494 415 q 468 513 494 475 q 379 550 442 550 q 294 517 331 550 q 246 415 257 485 l 494 415 m 294 975 l 456 975 l 568 797 l 443 797 l 378 888 l 372 888 l 307 797 l 182 797 l 294 975 m 553 942 q 583 954 572 946 q 594 981 594 963 q 576 1012 594 1000 q 504 1026 557 1024 l 524 1113 q 683 1081 638 1110 q 728 1003 728 1051 q 715 945 728 968 q 680 908 701 922 q 629 885 658 893 q 567 872 600 876 l 553 942 z "},"ễ":{"ha":719,"x_min":50,"x_max":668,"o":"m 50 344 q 78 495 50 428 q 151 609 106 563 q 254 681 196 656 q 375 706 313 706 q 503 681 449 706 q 595 611 558 656 q 650 506 632 567 q 668 375 668 446 q 665 324 668 347 q 660 289 663 301 l 247 289 q 309 174 261 210 q 426 139 357 139 q 575 185 500 139 l 643 61 q 526 4 590 25 q 399 -17 461 -17 q 261 8 325 -17 q 150 78 197 32 q 76 192 103 125 q 50 344 50 258 m 494 415 q 468 513 494 475 q 379 550 442 550 q 294 517 331 550 q 246 415 257 485 l 494 415 m 282 950 l 468 950 l 579 796 l 447 796 l 378 878 l 372 878 l 303 796 l 171 796 l 282 950 m 172 1000 q 217 1121 182 1083 q 299 1158 253 1158 q 347 1150 326 1158 q 383 1132 367 1142 q 412 1114 399 1122 q 440 1106 425 1106 q 489 1158 479 1106 l 578 1158 q 533 1038 568 1076 q 451 1000 497 1000 q 403 1008 424 1000 q 367 1026 383 1017 q 338 1044 351 1036 q 310 1053 324 1053 q 261 1000 271 1053 l 172 1000 z "},"ệ":{"ha":719,"x_min":50,"x_max":668,"o":"m 50 344 q 78 495 50 428 q 151 609 106 563 q 254 681 196 656 q 375 706 313 706 q 503 681 449 706 q 595 611 558 656 q 650 506 632 567 q 668 375 668 446 q 665 324 668 347 q 660 289 663 301 l 247 289 q 309 174 261 210 q 426 139 357 139 q 575 185 500 139 l 643 61 q 526 4 590 25 q 399 -17 461 -17 q 261 8 325 -17 q 150 78 197 32 q 76 192 103 125 q 50 344 50 258 m 494 415 q 468 513 494 475 q 379 550 442 550 q 294 517 331 550 q 246 415 257 485 l 494 415 m 294 1006 l 456 1006 l 589 797 l 451 797 l 378 907 l 372 907 l 299 797 l 161 797 l 294 1006 m 374 -314 q 292 -284 324 -314 q 261 -207 261 -254 q 292 -130 261 -160 q 374 -100 324 -100 q 455 -130 424 -100 q 486 -207 486 -160 q 455 -284 486 -254 q 374 -314 424 -314 z "},"ę":{"ha":719,"x_min":50,"x_max":668,"o":"m 50 344 q 78 495 50 428 q 151 609 106 563 q 254 681 196 656 q 375 706 313 706 q 503 681 449 706 q 595 611 558 656 q 650 506 632 567 q 668 375 668 446 q 665 324 668 347 q 660 289 663 301 l 247 289 q 309 174 261 210 q 426 139 357 139 q 575 185 500 139 l 643 61 q 568 5 597 29 q 522 -40 539 -19 q 499 -79 506 -61 q 493 -118 493 -97 q 510 -158 493 -146 q 553 -171 528 -171 q 578 -166 567 -171 q 601 -154 590 -161 l 643 -246 q 576 -279 617 -267 q 503 -292 536 -292 q 399 -260 440 -292 q 358 -165 358 -228 q 384 -75 358 -114 q 436 -12 410 -36 q 415 -16 424 -15 q 399 -17 406 -17 q 261 8 325 -17 q 150 78 197 32 q 76 192 103 125 q 50 344 50 258 m 494 415 q 468 513 494 475 q 379 550 442 550 q 294 518 331 550 q 246 415 257 486 l 494 415 z "},"ĝ":{"ha":742,"x_min":47,"x_max":721,"o":"m 215 -86 q 257 -145 215 -125 q 368 -165 299 -165 q 482 -141 438 -165 q 526 -81 526 -117 q 499 -37 526 -49 q 421 -26 472 -26 l 350 -26 q 292 -24 314 -26 q 253 -18 269 -22 q 215 -86 215 -51 m 47 -118 q 146 21 47 -35 l 146 26 q 100 72 118 44 q 82 143 82 100 q 104 215 82 181 q 160 272 126 249 l 160 278 q 95 349 124 303 q 67 457 67 396 q 90 566 67 519 q 153 644 114 613 q 244 690 193 675 q 351 706 296 706 q 458 689 413 706 l 710 689 l 710 540 l 600 540 q 616 501 610 525 q 622 450 622 478 q 601 347 622 390 q 544 274 581 303 q 458 232 507 246 q 351 218 408 218 q 268 232 311 218 q 249 210 254 221 q 243 181 243 199 q 266 142 243 154 q 347 129 289 129 l 458 129 q 653 88 586 129 q 721 -46 721 47 q 694 -145 721 -100 q 617 -223 667 -190 q 496 -274 567 -256 q 336 -293 425 -293 q 223 -283 275 -293 q 131 -251 171 -272 q 69 -197 92 -231 q 47 -118 47 -164 m 351 342 q 419 370 392 342 q 446 457 446 399 q 419 540 446 511 q 351 568 392 568 q 284 540 311 568 q 257 457 257 513 q 284 370 257 399 q 351 342 311 342 m 268 1006 l 429 1006 l 563 797 l 425 797 l 351 907 l 346 907 l 272 797 l 135 797 l 268 1006 z "},"ğ":{"ha":742,"x_min":47,"x_max":721,"o":"m 215 -86 q 257 -145 215 -125 q 368 -165 299 -165 q 482 -141 438 -165 q 526 -81 526 -117 q 499 -37 526 -49 q 421 -26 472 -26 l 350 -26 q 292 -24 314 -26 q 253 -18 269 -22 q 215 -86 215 -51 m 47 -118 q 146 21 47 -35 l 146 26 q 100 72 118 44 q 82 143 82 100 q 104 215 82 181 q 160 272 126 249 l 160 278 q 95 349 124 303 q 67 457 67 396 q 90 566 67 519 q 153 644 114 613 q 244 690 193 675 q 351 706 296 706 q 458 689 413 706 l 710 689 l 710 540 l 600 540 q 616 501 610 525 q 622 450 622 478 q 601 347 622 390 q 544 274 581 303 q 458 232 507 246 q 351 218 408 218 q 268 232 311 218 q 249 210 254 221 q 243 181 243 199 q 266 142 243 154 q 347 129 289 129 l 458 129 q 653 88 586 129 q 721 -46 721 47 q 694 -145 721 -100 q 617 -223 667 -190 q 496 -274 567 -256 q 336 -293 425 -293 q 223 -283 275 -293 q 131 -251 171 -272 q 69 -197 92 -231 q 47 -118 47 -164 m 351 342 q 419 370 392 342 q 446 457 446 399 q 419 540 446 511 q 351 568 392 568 q 284 540 311 568 q 257 457 257 513 q 284 370 257 399 q 351 342 311 342 m 349 797 q 265 813 300 797 q 206 856 229 829 q 169 918 182 883 q 156 990 157 953 l 269 990 q 293 933 274 957 q 349 910 313 910 q 404 933 385 910 q 428 990 424 957 l 542 990 q 528 918 540 953 q 492 856 515 883 q 433 813 468 829 q 349 797 397 797 z "},"ġ":{"ha":742,"x_min":47,"x_max":721,"o":"m 215 -86 q 257 -145 215 -125 q 368 -165 299 -165 q 482 -141 438 -165 q 526 -81 526 -117 q 499 -37 526 -49 q 421 -26 472 -26 l 350 -26 q 292 -24 314 -26 q 253 -18 269 -22 q 215 -86 215 -51 m 47 -118 q 146 21 47 -35 l 146 26 q 100 72 118 44 q 82 143 82 100 q 104 215 82 181 q 160 272 126 249 l 160 278 q 95 349 124 303 q 67 457 67 396 q 90 566 67 519 q 153 644 114 613 q 244 690 193 675 q 351 706 296 706 q 458 689 413 706 l 710 689 l 710 540 l 600 540 q 616 501 610 525 q 622 450 622 478 q 601 347 622 390 q 544 274 581 303 q 458 232 507 246 q 351 218 408 218 q 268 232 311 218 q 249 210 254 221 q 243 181 243 199 q 266 142 243 154 q 347 129 289 129 l 458 129 q 653 88 586 129 q 721 -46 721 47 q 694 -145 721 -100 q 617 -223 667 -190 q 496 -274 567 -256 q 336 -293 425 -293 q 223 -283 275 -293 q 131 -251 171 -272 q 69 -197 92 -231 q 47 -118 47 -164 m 351 342 q 419 370 392 342 q 446 457 446 399 q 419 540 446 511 q 351 568 392 568 q 284 540 311 568 q 257 457 257 513 q 284 370 257 399 q 351 342 311 342 m 349 790 q 267 820 299 790 q 236 897 236 850 q 267 974 236 944 q 349 1004 299 1004 q 430 974 399 1004 q 461 897 461 944 q 430 820 461 850 q 349 790 399 790 z "},"ģ":{"ha":742,"x_min":47,"x_max":721,"o":"m 215 -86 q 257 -145 215 -125 q 368 -165 299 -165 q 482 -141 438 -165 q 526 -81 526 -117 q 499 -37 526 -49 q 421 -26 472 -26 l 350 -26 q 292 -24 314 -26 q 253 -18 269 -22 q 215 -86 215 -51 m 47 -118 q 146 21 47 -35 l 146 26 q 100 72 118 44 q 82 143 82 100 q 104 215 82 181 q 160 272 126 249 l 160 278 q 95 349 124 303 q 67 457 67 396 q 90 566 67 519 q 153 644 114 613 q 244 690 193 675 q 351 706 296 706 q 458 689 413 706 l 710 689 l 710 540 l 600 540 q 616 501 610 525 q 622 450 622 478 q 601 347 622 390 q 544 274 581 303 q 458 232 507 246 q 351 218 408 218 q 268 232 311 218 q 249 210 254 221 q 243 181 243 199 q 266 142 243 154 q 347 129 289 129 l 458 129 q 653 88 586 129 q 721 -46 721 47 q 694 -145 721 -100 q 617 -223 667 -190 q 496 -274 567 -256 q 336 -293 425 -293 q 223 -283 275 -293 q 131 -251 171 -272 q 69 -197 92 -231 q 47 -118 47 -164 m 351 342 q 419 370 392 342 q 446 457 446 399 q 419 540 446 511 q 351 568 392 568 q 284 540 311 568 q 257 457 257 513 q 284 370 257 399 q 351 342 311 342 m 397 757 q 267 792 304 765 q 229 872 229 819 q 249 933 229 907 q 303 977 269 960 q 382 1004 338 994 q 476 1017 426 1014 l 492 935 q 409 917 442 929 q 376 882 376 906 q 436 832 376 846 l 397 757 l 397 757 z "},"ǧ":{"ha":742,"x_min":47,"x_max":721,"o":"m 215 -86 q 257 -145 215 -125 q 368 -165 299 -165 q 482 -141 438 -165 q 526 -81 526 -117 q 499 -37 526 -49 q 421 -26 472 -26 l 350 -26 q 292 -24 314 -26 q 253 -18 269 -22 q 215 -86 215 -51 m 47 -118 q 146 21 47 -35 l 146 26 q 100 72 118 44 q 82 143 82 100 q 104 215 82 181 q 160 272 126 249 l 160 278 q 95 349 124 303 q 67 457 67 396 q 90 566 67 519 q 153 644 114 613 q 244 690 193 675 q 351 706 296 706 q 458 689 413 706 l 710 689 l 710 540 l 600 540 q 616 501 610 525 q 622 450 622 478 q 601 347 622 390 q 544 274 581 303 q 458 232 507 246 q 351 218 408 218 q 268 232 311 218 q 249 210 254 221 q 243 181 243 199 q 266 142 243 154 q 347 129 289 129 l 458 129 q 653 88 586 129 q 721 -46 721 47 q 694 -145 721 -100 q 617 -223 667 -190 q 496 -274 567 -256 q 336 -293 425 -293 q 223 -283 275 -293 q 131 -251 171 -272 q 69 -197 92 -231 q 47 -118 47 -164 m 351 342 q 419 370 392 342 q 446 457 446 399 q 419 540 446 511 q 351 568 392 568 q 284 540 311 568 q 257 457 257 513 q 284 370 257 399 q 351 342 311 342 m 135 1006 l 272 1006 l 346 896 l 351 896 l 425 1006 l 563 1006 l 429 797 l 268 797 l 135 1006 z "},"ḡ":{"ha":742,"x_min":47,"x_max":721,"o":"m 215 -86 q 257 -145 215 -125 q 368 -165 299 -165 q 482 -141 438 -165 q 526 -81 526 -117 q 499 -37 526 -49 q 421 -26 472 -26 l 350 -26 q 292 -24 314 -26 q 253 -18 269 -22 q 215 -86 215 -51 m 47 -118 q 146 21 47 -35 l 146 26 q 100 72 118 44 q 82 143 82 100 q 104 215 82 181 q 160 272 126 249 l 160 278 q 95 349 124 303 q 67 457 67 396 q 90 566 67 519 q 153 644 114 613 q 244 690 193 675 q 351 706 296 706 q 458 689 413 706 l 710 689 l 710 540 l 600 540 q 616 501 610 525 q 622 450 622 478 q 601 347 622 390 q 544 274 581 303 q 458 232 507 246 q 351 218 408 218 q 268 232 311 218 q 249 210 254 221 q 243 181 243 199 q 266 142 243 154 q 347 129 289 129 l 458 129 q 653 88 586 129 q 721 -46 721 47 q 694 -145 721 -100 q 617 -223 667 -190 q 496 -274 567 -256 q 336 -293 425 -293 q 223 -283 275 -293 q 131 -251 171 -272 q 69 -197 92 -231 q 47 -118 47 -164 m 351 342 q 419 370 392 342 q 446 457 446 399 q 419 540 446 511 q 351 568 392 568 q 284 540 311 568 q 257 457 257 513 q 284 370 257 399 q 351 342 311 342 m 157 951 l 540 951 l 540 822 l 157 822 l 157 951 z "},"ĥ":{"ha":793,"x_min":-44,"x_max":711,"o":"m 90 974 l 294 974 l 294 735 l 285 611 q 375 676 324 646 q 497 706 426 706 q 660 632 610 706 q 711 428 711 558 l 711 0 l 507 0 l 507 401 q 487 504 507 476 q 422 532 467 532 q 356 515 383 532 q 294 465 328 497 l 294 0 l 90 0 l 90 974 m -44 1042 l 89 1208 l 289 1208 l 422 1042 l 265 1042 l 192 1126 l 186 1126 l 113 1042 l -44 1042 z "},"ḥ":{"ha":793,"x_min":90,"x_max":711,"o":"m 90 974 l 294 974 l 294 735 l 285 611 q 375 676 324 646 q 497 706 426 706 q 660 632 610 706 q 711 428 711 558 l 711 0 l 507 0 l 507 401 q 487 504 507 476 q 422 532 467 532 q 356 515 383 532 q 294 465 328 497 l 294 0 l 90 0 l 90 974 m 406 -314 q 324 -284 356 -314 q 293 -207 293 -254 q 324 -130 293 -160 q 406 -100 356 -100 q 487 -130 456 -100 q 518 -207 518 -160 q 487 -284 518 -254 q 406 -314 456 -314 z "},"ḫ":{"ha":793,"x_min":90,"x_max":711,"o":"m 90 974 l 294 974 l 294 735 l 285 611 q 375 676 324 646 q 497 706 426 706 q 660 632 610 706 q 711 428 711 558 l 711 0 l 507 0 l 507 401 q 487 504 507 476 q 422 532 467 532 q 356 515 383 532 q 294 465 328 497 l 294 0 l 90 0 l 90 974 m 406 -292 q 322 -276 357 -292 q 263 -233 286 -260 q 226 -172 239 -207 q 213 -99 214 -136 l 326 -99 q 350 -157 331 -133 q 406 -181 369 -181 q 461 -157 442 -181 q 485 -99 481 -133 l 599 -99 q 585 -172 597 -136 q 549 -233 572 -207 q 490 -276 525 -260 q 406 -292 454 -292 z "},"ħ":{"ha":793,"x_min":-4,"x_max":711,"o":"m 285 583 q 375 648 324 618 q 497 678 426 678 q 660 604 610 678 q 711 400 711 531 l 711 0 l 507 0 l 507 374 q 487 476 507 449 q 422 504 467 504 q 356 487 383 504 q 294 438 328 469 l 294 0 l 90 0 l 90 772 l -4 772 l -4 863 l 90 869 l 90 974 l 294 974 l 294 871 l 529 871 l 529 772 l 294 772 l 294 707 l 285 583 z "},"ì":{"ha":383,"x_min":-15,"x_max":306,"o":"m 90 689 l 294 689 l 294 0 l 90 0 l 90 689 m -15 1006 l 182 1006 l 306 797 l 157 797 l -15 1006 z "},"í":{"ha":383,"x_min":78,"x_max":399,"o":"m 90 689 l 294 689 l 294 0 l 90 0 l 90 689 m 226 797 l 78 797 l 201 1006 l 399 1006 l 226 797 z "},"î":{"ha":383,"x_min":-22,"x_max":406,"o":"m 90 689 l 294 689 l 294 0 l 90 0 l 90 689 m 111 1006 l 272 1006 l 406 797 l 268 797 l 194 907 l 189 907 l 115 797 l -22 797 l 111 1006 z "},"ĩ":{"ha":383,"x_min":-39,"x_max":422,"o":"m 90 689 l 294 689 l 294 0 l 90 0 l 90 689 m -39 799 q 11 940 -28 894 q 106 986 50 986 q 157 976 133 986 q 200 956 181 967 q 237 935 219 944 q 269 925 254 925 q 299 939 288 925 q 318 986 310 953 l 422 986 q 372 845 411 892 q 278 799 333 799 q 227 808 250 799 q 184 830 204 818 q 147 851 164 842 q 114 861 129 861 q 85 847 96 861 q 65 799 74 833 l -39 799 l -39 799 z "},"ï":{"ha":383,"x_min":-43,"x_max":426,"o":"m 90 689 l 294 689 l 294 0 l 90 0 l 90 689 m 54 793 q -16 821 11 793 q -43 890 -43 849 q -16 958 -43 931 q 54 986 11 986 q 124 958 97 986 q 151 890 151 931 q 124 821 151 849 q 54 793 97 793 m 329 793 q 259 821 286 793 q 232 890 232 849 q 259 958 232 931 q 329 986 286 986 q 399 958 372 986 q 426 890 426 931 q 399 821 426 849 q 329 793 372 793 z "},"ī":{"ha":383,"x_min":0,"x_max":383,"o":"m 90 689 l 294 689 l 294 0 l 90 0 l 90 689 m 0 951 l 383 951 l 383 822 l 0 822 l 0 951 z "},"ǐ":{"ha":383,"x_min":-22,"x_max":406,"o":"m 90 689 l 294 689 l 294 0 l 90 0 l 90 689 m -22 1006 l 115 1006 l 189 896 l 194 896 l 268 1006 l 406 1006 l 272 797 l 111 797 l -22 1006 z "},"ỉ":{"ha":383,"x_min":79,"x_max":336,"o":"m 90 689 l 294 689 l 294 0 l 90 0 l 90 689 m 128 854 q 171 867 153 858 q 189 896 189 876 q 164 927 189 915 q 79 942 139 939 l 103 1044 q 283 1006 231 1040 q 336 917 336 972 q 321 855 336 881 q 279 812 306 829 q 217 785 253 794 q 143 774 182 776 l 128 854 z "},"ị":{"ha":383,"x_min":74,"x_max":310,"o":"m 192 790 q 107 820 140 790 q 74 897 74 850 q 107 974 74 944 q 192 1003 140 1003 q 277 974 244 1003 q 310 897 310 944 q 277 820 310 850 q 192 790 244 790 m 90 689 l 294 689 l 294 0 l 90 0 l 90 689 m 192 -314 q 110 -284 142 -314 q 79 -207 79 -254 q 110 -130 79 -160 q 192 -100 142 -100 q 273 -130 242 -100 q 304 -207 304 -160 q 273 -284 304 -254 q 192 -314 242 -314 z "},"į":{"ha":383,"x_min":57,"x_max":344,"o":"m 90 689 l 294 689 l 294 0 q 217 -53 239 -21 q 194 -118 194 -86 q 213 -158 194 -146 q 254 -171 231 -171 q 278 -166 267 -171 q 303 -154 290 -161 l 344 -246 q 277 -279 318 -267 q 204 -292 236 -292 q 99 -260 142 -292 q 57 -165 57 -228 q 66 -109 57 -135 q 89 -62 75 -83 q 119 -26 103 -42 q 147 0 135 -11 l 90 0 l 90 689 m 192 790 q 107 820 140 790 q 74 897 74 850 q 107 974 74 944 q 192 1003 140 1003 q 276 974 243 1003 q 310 897 310 944 q 276 820 310 850 q 192 790 243 790 z "},"ı":{"ha":383,"x_min":90,"x_max":294,"o":"m 90 689 l 294 689 l 294 0 l 90 0 l 90 689 z "},"ĵ":{"ha":386,"x_min":-71,"x_max":408,"o":"m 92 689 l 296 689 l 296 4 q 284 -103 296 -53 q 244 -190 272 -153 q 168 -250 215 -228 q 50 -272 121 -272 q -22 -267 7 -272 q -71 -253 -50 -261 l -35 -103 q -8 -110 -21 -107 q 19 -112 4 -112 q 76 -86 60 -112 q 92 -1 92 -60 l 92 689 m 114 1006 l 275 1006 l 408 797 l 271 797 l 197 907 l 192 907 l 118 797 l -19 797 l 114 1006 z "},"ķ":{"ha":761,"x_min":90,"x_max":753,"o":"m 90 974 l 289 974 l 289 415 l 294 415 l 513 689 l 735 689 l 493 406 l 753 0 l 532 0 l 376 268 l 289 169 l 289 0 l 90 0 l 90 974 m 360 -58 q 491 -95 454 -68 q 528 -175 528 -122 q 508 -237 528 -211 q 454 -280 488 -262 q 376 -306 421 -297 q 282 -318 332 -315 l 267 -236 q 349 -219 317 -231 q 382 -185 382 -208 q 367 -153 382 -165 q 321 -133 353 -142 l 360 -58 l 360 -58 z "},"ĸ":{"ha":761,"x_min":90,"x_max":753,"o":"m 90 689 l 294 689 l 294 411 l 299 411 l 513 689 l 735 689 l 499 406 l 753 0 l 532 0 l 376 263 l 294 163 l 294 0 l 90 0 l 90 689 z "},"ĺ":{"ha":397,"x_min":90,"x_max":421,"o":"m 90 974 l 294 974 l 294 206 q 306 161 294 174 q 331 149 318 149 q 342 149 338 149 q 356 151 347 149 l 381 0 q 338 -12 364 -7 q 278 -17 313 -17 q 189 0 225 -17 q 131 47 153 17 q 100 119 110 76 q 90 214 90 161 l 90 974 m 254 1051 l 92 1051 l 204 1218 l 421 1218 l 254 1051 z "},"ľ":{"ha":440,"x_min":90,"x_max":478,"o":"m 90 974 l 294 974 l 294 206 q 306 161 294 174 q 331 149 318 149 q 342 149 338 149 q 356 151 347 149 l 381 0 q 338 -12 364 -7 q 278 -17 313 -17 q 189 0 225 -17 q 131 47 153 17 q 100 119 110 76 q 90 214 90 161 l 90 974 m 354 761 l 346 1069 l 478 1069 l 475 974 l 442 761 l 354 761 z "},"ŀ":{"ha":629,"x_min":90,"x_max":629,"o":"m 90 974 l 294 974 l 294 206 q 306 161 294 174 q 331 149 318 149 q 342 149 338 149 q 356 151 347 149 l 381 0 q 338 -12 364 -7 q 278 -17 313 -17 q 189 0 225 -17 q 131 47 153 17 q 100 119 110 76 q 90 214 90 161 l 90 974 m 382 456 q 417 548 382 511 q 506 585 453 585 q 594 548 558 585 q 629 456 629 511 q 594 365 629 401 q 506 328 558 328 q 417 365 453 328 q 382 456 382 401 z "},"ļ":{"ha":397,"x_min":90,"x_max":382,"o":"m 90 974 l 294 974 l 294 206 q 306 161 294 174 q 331 149 318 149 q 342 149 338 149 q 356 151 347 149 l 381 0 q 338 -12 364 -7 q 278 -17 313 -17 q 189 0 225 -17 q 131 47 153 17 q 100 119 110 76 q 90 214 90 161 l 90 974 m 214 -58 q 345 -95 308 -68 q 382 -175 382 -122 q 362 -237 382 -211 q 308 -280 342 -262 q 231 -306 275 -297 q 136 -318 186 -315 l 121 -236 q 203 -219 171 -231 q 236 -185 236 -208 q 222 -153 236 -165 q 175 -133 207 -142 l 214 -58 l 214 -58 z "},"ḷ":{"ha":397,"x_min":90,"x_max":381,"o":"m 90 974 l 294 974 l 294 206 q 306 161 294 174 q 331 149 318 149 q 342 149 338 149 q 356 151 347 149 l 381 0 q 338 -12 364 -7 q 278 -17 313 -17 q 189 0 225 -17 q 131 47 153 17 q 100 119 110 76 q 90 214 90 161 l 90 974 m 264 -314 q 183 -284 214 -314 q 151 -207 151 -254 q 183 -130 151 -160 q 264 -100 214 -100 q 345 -130 314 -100 q 376 -207 376 -160 q 345 -284 376 -254 q 264 -314 314 -314 z "},"ḹ":{"ha":397,"x_min":-1,"x_max":382,"o":"m 90 974 l 294 974 l 294 206 q 306 161 294 174 q 331 149 318 149 q 342 149 338 149 q 356 151 347 149 l 381 0 q 338 -12 364 -7 q 278 -17 313 -17 q 189 0 225 -17 q 131 47 153 17 q 100 119 110 76 q 90 214 90 161 l 90 974 m -1 1246 l 382 1246 l 382 1117 l -1 1117 l -1 1246 m 264 -314 q 183 -284 214 -314 q 151 -207 151 -254 q 183 -130 151 -160 q 264 -100 214 -100 q 345 -130 314 -100 q 376 -207 376 -160 q 345 -284 376 -254 q 264 -314 314 -314 z "},"ḻ":{"ha":397,"x_min":72,"x_max":456,"o":"m 90 974 l 294 974 l 294 206 q 306 161 294 174 q 331 149 318 149 q 342 149 338 149 q 356 151 347 149 l 381 0 q 338 -12 364 -7 q 278 -17 313 -17 q 189 0 225 -17 q 131 47 153 17 q 100 119 110 76 q 90 214 90 161 l 90 974 m 456 -262 l 72 -262 l 72 -132 l 456 -132 l 456 -262 z "},"ł":{"ha":421,"x_min":21,"x_max":399,"o":"m 308 485 l 308 206 q 320 161 308 174 q 344 149 332 149 q 356 149 351 149 q 369 151 361 149 l 394 0 q 351 -12 376 -7 q 292 -17 326 -17 q 203 0 239 -17 q 145 47 167 17 q 114 119 124 76 q 104 214 104 161 l 104 383 l 21 333 l 21 496 l 104 547 l 104 974 l 308 974 l 308 649 l 399 703 l 399 539 l 308 485 z "},"ṃ":{"ha":1190,"x_min":90,"x_max":1107,"o":"m 90 689 l 257 689 l 271 600 l 276 600 q 368 674 319 643 q 485 706 417 706 q 603 676 558 706 q 675 590 649 646 q 772 672 721 638 q 892 706 822 706 q 1055 631 1003 706 q 1107 428 1107 557 l 1107 0 l 903 0 l 903 401 q 883 504 903 476 q 818 532 863 532 q 700 465 767 532 l 700 0 l 496 0 l 496 401 q 476 504 496 476 q 411 532 456 532 q 294 465 358 532 l 294 0 l 90 0 l 90 689 m 610 -314 q 528 -284 560 -314 q 497 -207 497 -254 q 528 -130 497 -160 q 610 -100 560 -100 q 691 -130 660 -100 q 722 -207 722 -160 q 691 -284 722 -254 q 610 -314 660 -314 z "},"ń":{"ha":794,"x_min":90,"x_max":711,"o":"m 90 689 l 257 689 l 271 601 l 276 601 q 374 674 321 643 q 497 706 426 706 q 660 632 610 706 q 711 428 711 558 l 711 0 l 507 0 l 507 401 q 487 504 507 476 q 422 532 467 532 q 356 515 383 532 q 294 465 328 497 l 294 0 l 90 0 l 90 689 m 463 797 l 314 797 l 438 1006 l 635 1006 l 463 797 z "},"ň":{"ha":794,"x_min":90,"x_max":711,"o":"m 90 689 l 257 689 l 271 601 l 276 601 q 374 674 321 643 q 497 706 426 706 q 660 632 610 706 q 711 428 711 558 l 711 0 l 507 0 l 507 401 q 487 504 507 476 q 422 532 467 532 q 356 515 383 532 q 294 465 328 497 l 294 0 l 90 0 l 90 689 m 214 1006 l 351 1006 l 425 896 l 431 896 l 504 1006 l 642 1006 l 508 797 l 347 797 l 214 1006 z "},"ñ":{"ha":794,"x_min":90,"x_max":711,"o":"m 90 689 l 257 689 l 271 601 l 276 601 q 374 674 321 643 q 497 706 426 706 q 660 632 610 706 q 711 428 711 558 l 711 0 l 507 0 l 507 401 q 487 504 507 476 q 422 532 467 532 q 356 515 383 532 q 294 465 328 497 l 294 0 l 90 0 l 90 689 m 197 799 q 247 940 208 894 q 342 986 286 986 q 393 976 369 986 q 436 956 417 967 q 473 935 456 944 q 506 925 490 925 q 535 939 524 925 q 554 986 546 953 l 658 986 q 608 845 647 892 q 514 799 569 799 q 463 808 486 799 q 420 830 440 818 q 383 851 400 842 q 350 861 365 861 q 321 847 332 861 q 301 799 310 833 l 197 799 l 197 799 z "},"ņ":{"ha":794,"x_min":90,"x_max":711,"o":"m 90 689 l 257 689 l 271 601 l 276 601 q 374 674 321 643 q 497 706 426 706 q 660 632 610 706 q 711 428 711 558 l 711 0 l 507 0 l 507 401 q 487 504 507 476 q 422 532 467 532 q 356 515 383 532 q 294 465 328 497 l 294 0 l 90 0 l 90 689 m 354 -58 q 485 -95 449 -68 q 522 -175 522 -122 q 502 -237 522 -211 q 449 -280 482 -262 q 371 -306 415 -297 q 276 -318 326 -315 l 261 -236 q 344 -219 311 -231 q 376 -185 376 -208 q 362 -153 376 -165 q 315 -133 347 -142 l 354 -58 l 354 -58 z "},"ṅ":{"ha":794,"x_min":90,"x_max":711,"o":"m 90 689 l 257 689 l 271 601 l 276 601 q 374 674 321 643 q 497 706 426 706 q 660 632 610 706 q 711 428 711 558 l 711 0 l 507 0 l 507 401 q 487 504 507 476 q 422 532 467 532 q 356 515 383 532 q 294 465 328 497 l 294 0 l 90 0 l 90 689 m 428 790 q 347 820 378 790 q 315 897 315 850 q 347 974 315 944 q 428 1004 378 1004 q 509 974 478 1004 q 540 897 540 944 q 509 820 540 850 q 428 790 478 790 z "},"ṇ":{"ha":794,"x_min":90,"x_max":711,"o":"m 90 689 l 257 689 l 271 601 l 276 601 q 374 674 321 643 q 497 706 426 706 q 660 632 610 706 q 711 428 711 558 l 711 0 l 507 0 l 507 401 q 487 504 507 476 q 422 532 467 532 q 356 515 383 532 q 294 465 328 497 l 294 0 l 90 0 l 90 689 m 404 -314 q 323 -284 354 -314 q 292 -207 292 -254 q 323 -130 292 -160 q 404 -100 354 -100 q 485 -130 454 -100 q 517 -207 517 -160 q 485 -284 517 -254 q 404 -314 454 -314 z "},"ṉ":{"ha":794,"x_min":90,"x_max":711,"o":"m 90 689 l 257 689 l 271 601 l 276 601 q 374 674 321 643 q 497 706 426 706 q 660 632 610 706 q 711 428 711 558 l 711 0 l 507 0 l 507 401 q 487 504 507 476 q 422 532 467 532 q 356 515 383 532 q 294 465 328 497 l 294 0 l 90 0 l 90 689 m 596 -262 l 213 -262 l 213 -132 l 596 -132 l 596 -262 z "},"ŉ":{"ha":1183,"x_min":99,"x_max":1097,"o":"m 99 578 q 192 651 161 610 q 224 754 224 692 q 211 753 219 753 q 135 780 167 753 q 104 854 104 807 q 134 938 104 907 q 211 968 164 968 q 308 921 275 968 q 342 786 342 874 q 292 613 342 688 q 143 489 243 538 l 99 578 m 476 689 l 643 689 l 657 601 l 663 601 q 760 674 707 643 q 883 706 813 706 q 1047 632 996 706 q 1097 428 1097 558 l 1097 0 l 893 0 l 893 401 q 873 504 893 476 q 808 532 853 532 q 742 515 769 532 q 681 465 714 497 l 681 0 l 476 0 l 476 689 z "},"ò":{"ha":771,"x_min":50,"x_max":721,"o":"m 50 344 q 78 498 50 431 q 152 611 106 565 q 260 681 199 657 q 386 706 321 706 q 512 681 451 706 q 619 611 572 657 q 693 498 665 565 q 721 344 721 431 q 693 191 721 258 q 619 78 665 124 q 512 8 572 32 q 386 -17 451 -17 q 260 8 321 -17 q 152 78 199 32 q 78 191 106 124 q 50 344 50 258 m 260 344 q 291 201 260 254 q 386 149 322 149 q 481 201 449 149 q 513 344 513 254 q 481 488 513 435 q 386 540 449 540 q 291 488 322 540 q 260 344 260 435 m 178 1006 l 375 1006 l 499 797 l 350 797 l 178 1006 z "},"ó":{"ha":771,"x_min":50,"x_max":721,"o":"m 50 344 q 78 498 50 431 q 152 611 106 565 q 260 681 199 657 q 386 706 321 706 q 512 681 451 706 q 619 611 572 657 q 693 498 665 565 q 721 344 721 431 q 693 191 721 258 q 619 78 665 124 q 512 8 572 32 q 386 -17 451 -17 q 260 8 321 -17 q 152 78 199 32 q 78 191 106 124 q 50 344 50 258 m 260 344 q 291 201 260 254 q 386 149 322 149 q 481 201 449 149 q 513 344 513 254 q 481 488 513 435 q 386 540 449 540 q 291 488 322 540 q 260 344 260 435 m 419 797 l 271 797 l 394 1006 l 592 1006 l 419 797 z "},"ô":{"ha":771,"x_min":50,"x_max":721,"o":"m 50 344 q 78 498 50 431 q 152 611 106 565 q 260 681 199 657 q 386 706 321 706 q 512 681 451 706 q 619 611 572 657 q 693 498 665 565 q 721 344 721 431 q 693 191 721 258 q 619 78 665 124 q 512 8 572 32 q 386 -17 451 -17 q 260 8 321 -17 q 152 78 199 32 q 78 191 106 124 q 50 344 50 258 m 260 344 q 291 201 260 254 q 386 149 322 149 q 481 201 449 149 q 513 344 513 254 q 481 488 513 435 q 386 540 449 540 q 291 488 322 540 q 260 344 260 435 m 304 1006 l 465 1006 l 599 797 l 461 797 l 388 907 l 382 907 l 308 797 l 171 797 l 304 1006 z "},"õ":{"ha":771,"x_min":50,"x_max":721,"o":"m 50 344 q 78 498 50 431 q 152 611 106 565 q 260 681 199 657 q 386 706 321 706 q 512 681 451 706 q 619 611 572 657 q 693 498 665 565 q 721 344 721 431 q 693 191 721 258 q 619 78 665 124 q 512 8 572 32 q 386 -17 451 -17 q 260 8 321 -17 q 152 78 199 32 q 78 191 106 124 q 50 344 50 258 m 260 344 q 291 201 260 254 q 386 149 322 149 q 481 201 449 149 q 513 344 513 254 q 481 488 513 435 q 386 540 449 540 q 291 488 322 540 q 260 344 260 435 m 154 799 q 204 940 165 894 q 299 986 243 986 q 350 976 326 986 q 393 956 374 967 q 430 935 413 944 q 463 925 447 925 q 492 939 481 925 q 511 986 503 953 l 615 986 q 565 845 604 892 q 471 799 526 799 q 420 808 443 799 q 377 830 397 818 q 340 851 357 842 q 307 861 322 861 q 278 847 289 861 q 258 799 267 833 l 154 799 l 154 799 z "},"ö":{"ha":771,"x_min":50,"x_max":721,"o":"m 50 344 q 78 498 50 431 q 152 611 106 565 q 260 681 199 657 q 386 706 321 706 q 512 681 451 706 q 619 611 572 657 q 693 498 665 565 q 721 344 721 431 q 693 191 721 258 q 619 78 665 124 q 512 8 572 32 q 386 -17 451 -17 q 260 8 321 -17 q 152 78 199 32 q 78 191 106 124 q 50 344 50 258 m 260 344 q 291 201 260 254 q 386 149 322 149 q 481 201 449 149 q 513 344 513 254 q 481 488 513 435 q 386 540 449 540 q 291 488 322 540 q 260 344 260 435 m 247 793 q 177 821 204 793 q 150 890 150 849 q 177 958 150 931 q 247 986 204 986 q 317 958 290 986 q 344 890 344 931 q 317 821 344 849 q 247 793 290 793 m 522 793 q 452 821 479 793 q 425 890 425 849 q 452 958 425 931 q 522 986 479 986 q 592 958 565 986 q 619 890 619 931 q 592 821 619 849 q 522 793 565 793 z "},"ō":{"ha":771,"x_min":50,"x_max":721,"o":"m 50 344 q 78 498 50 431 q 152 611 106 565 q 260 681 199 657 q 386 706 321 706 q 512 681 451 706 q 619 611 572 657 q 693 498 665 565 q 721 344 721 431 q 693 191 721 258 q 619 78 665 124 q 512 8 572 32 q 386 -17 451 -17 q 260 8 321 -17 q 152 78 199 32 q 78 191 106 124 q 50 344 50 258 m 260 344 q 291 201 260 254 q 386 149 322 149 q 481 201 449 149 q 513 344 513 254 q 481 488 513 435 q 386 540 449 540 q 291 488 322 540 q 260 344 260 435 m 193 951 l 576 951 l 576 822 l 193 822 l 193 951 z "},"ő":{"ha":771,"x_min":50,"x_max":721,"o":"m 50 344 q 78 498 50 431 q 152 611 106 565 q 260 681 199 657 q 386 706 321 706 q 512 681 451 706 q 619 611 572 657 q 693 498 665 565 q 721 344 721 431 q 693 191 721 258 q 619 78 665 124 q 512 8 572 32 q 386 -17 451 -17 q 260 8 321 -17 q 152 78 199 32 q 78 191 106 124 q 50 344 50 258 m 260 344 q 291 201 260 254 q 386 149 322 149 q 481 201 449 149 q 513 344 513 254 q 481 488 513 435 q 386 540 449 540 q 291 488 322 540 q 260 344 260 435 m 306 1006 l 468 1006 l 336 796 l 211 796 l 306 1006 m 543 1006 l 706 1006 l 574 796 l 447 796 l 543 1006 z "},"ǒ":{"ha":771,"x_min":50,"x_max":721,"o":"m 50 344 q 78 498 50 431 q 152 611 106 565 q 260 681 199 657 q 386 706 321 706 q 512 681 451 706 q 619 611 572 657 q 693 498 665 565 q 721 344 721 431 q 693 191 721 258 q 619 78 665 124 q 512 8 572 32 q 386 -17 451 -17 q 260 8 321 -17 q 152 78 199 32 q 78 191 106 124 q 50 344 50 258 m 260 344 q 291 201 260 254 q 386 149 322 149 q 481 201 449 149 q 513 344 513 254 q 481 488 513 435 q 386 540 449 540 q 291 488 322 540 q 260 344 260 435 m 171 1006 l 308 1006 l 382 896 l 388 896 l 461 1006 l 599 1006 l 465 797 l 304 797 l 171 1006 z "},"ọ":{"ha":771,"x_min":50,"x_max":721,"o":"m 50 344 q 78 498 50 431 q 152 611 106 565 q 260 681 199 657 q 386 706 321 706 q 512 681 451 706 q 619 611 572 657 q 693 498 665 565 q 721 344 721 431 q 693 191 721 258 q 619 78 665 124 q 512 8 572 32 q 386 -17 451 -17 q 260 8 321 -17 q 152 78 199 32 q 78 191 106 124 q 50 344 50 258 m 260 344 q 291 201 260 254 q 386 149 322 149 q 481 201 449 149 q 513 344 513 254 q 481 488 513 435 q 386 540 449 540 q 291 488 322 540 q 260 344 260 435 m 385 -314 q 303 -284 335 -314 q 272 -207 272 -254 q 303 -130 272 -160 q 385 -100 335 -100 q 466 -130 435 -100 q 497 -207 497 -160 q 466 -284 497 -254 q 385 -314 435 -314 z "},"ỏ":{"ha":771,"x_min":50,"x_max":721,"o":"m 50 344 q 78 498 50 431 q 152 611 106 565 q 260 681 199 657 q 386 706 321 706 q 512 681 451 706 q 619 611 572 657 q 693 498 665 565 q 721 344 721 431 q 693 191 721 258 q 619 78 665 124 q 512 8 572 32 q 386 -17 451 -17 q 260 8 321 -17 q 152 78 199 32 q 78 191 106 124 q 50 344 50 258 m 260 344 q 291 201 260 254 q 386 149 322 149 q 481 201 449 149 q 513 344 513 254 q 481 488 513 435 q 386 540 449 540 q 291 488 322 540 q 260 344 260 435 m 321 854 q 364 867 346 858 q 382 896 382 876 q 357 927 382 915 q 272 942 332 939 l 296 1044 q 476 1006 424 1040 q 529 917 529 972 q 514 855 529 881 q 472 812 499 829 q 410 785 446 794 q 336 774 375 776 l 321 854 z "},"ố":{"ha":771,"x_min":50,"x_max":779,"o":"m 50 344 q 78 498 50 431 q 152 611 106 565 q 260 681 199 657 q 386 706 321 706 q 512 681 451 706 q 619 611 572 657 q 693 498 665 565 q 721 344 721 431 q 693 191 721 258 q 619 78 665 124 q 512 8 572 32 q 386 -17 451 -17 q 260 8 321 -17 q 152 78 199 32 q 78 191 106 124 q 50 344 50 258 m 260 344 q 291 201 260 254 q 386 149 322 149 q 481 201 449 149 q 513 344 513 254 q 481 488 513 435 q 386 540 449 540 q 291 488 322 540 q 260 344 260 435 m 304 975 l 465 975 l 578 797 l 453 797 l 388 888 l 382 888 l 317 797 l 192 797 l 304 975 m 628 1061 l 779 1061 l 647 897 l 533 897 l 628 1061 z "},"ồ":{"ha":771,"x_min":50,"x_max":731,"o":"m 50 344 q 78 498 50 431 q 152 611 106 565 q 260 681 199 657 q 386 706 321 706 q 512 681 451 706 q 619 611 572 657 q 693 498 665 565 q 721 344 721 431 q 693 191 721 258 q 619 78 665 124 q 512 8 572 32 q 386 -17 451 -17 q 260 8 321 -17 q 152 78 199 32 q 78 191 106 124 q 50 344 50 258 m 260 344 q 291 201 260 254 q 386 149 322 149 q 481 201 449 149 q 513 344 513 254 q 481 488 513 435 q 386 540 449 540 q 291 488 322 540 q 260 344 260 435 m 304 975 l 465 975 l 578 797 l 453 797 l 388 888 l 382 888 l 317 797 l 192 797 l 304 975 m 731 897 l 617 897 l 485 1061 l 636 1061 l 731 897 z "},"ổ":{"ha":771,"x_min":50,"x_max":738,"o":"m 50 344 q 78 498 50 431 q 152 611 106 565 q 260 681 199 657 q 386 706 321 706 q 512 681 451 706 q 619 611 572 657 q 693 498 665 565 q 721 344 721 431 q 693 191 721 258 q 619 78 665 124 q 512 8 572 32 q 386 -17 451 -17 q 260 8 321 -17 q 152 78 199 32 q 78 191 106 124 q 50 344 50 258 m 260 344 q 291 201 260 254 q 386 149 322 149 q 481 201 449 149 q 513 344 513 254 q 481 488 513 435 q 386 540 449 540 q 291 488 322 540 q 260 344 260 435 m 304 975 l 465 975 l 578 797 l 453 797 l 388 888 l 382 888 l 317 797 l 192 797 l 304 975 m 563 942 q 593 954 582 946 q 604 981 604 963 q 585 1012 604 1000 q 514 1026 567 1024 l 533 1113 q 692 1081 647 1110 q 738 1003 738 1051 q 724 945 738 968 q 690 908 711 922 q 639 885 668 893 q 576 872 610 876 l 563 942 z "},"ỗ":{"ha":771,"x_min":50,"x_max":721,"o":"m 50 344 q 78 498 50 431 q 152 611 106 565 q 260 681 199 657 q 386 706 321 706 q 512 681 451 706 q 619 611 572 657 q 693 498 665 565 q 721 344 721 431 q 693 191 721 258 q 619 78 665 124 q 512 8 572 32 q 386 -17 451 -17 q 260 8 321 -17 q 152 78 199 32 q 78 191 106 124 q 50 344 50 258 m 260 344 q 291 201 260 254 q 386 149 322 149 q 481 201 449 149 q 513 344 513 254 q 481 488 513 435 q 386 540 449 540 q 291 488 322 540 q 260 344 260 435 m 292 950 l 478 950 l 589 796 l 457 796 l 388 878 l 382 878 l 313 796 l 181 796 l 292 950 m 182 1000 q 227 1121 192 1083 q 308 1158 263 1158 q 356 1150 336 1158 q 392 1132 376 1142 q 422 1114 408 1122 q 450 1106 435 1106 q 499 1158 489 1106 l 588 1158 q 542 1038 578 1076 q 461 1000 507 1000 q 413 1008 433 1000 q 377 1026 393 1017 q 347 1044 361 1036 q 319 1053 333 1053 q 271 1000 281 1053 l 182 1000 z "},"ộ":{"ha":771,"x_min":50,"x_max":721,"o":"m 50 344 q 78 498 50 431 q 152 611 106 565 q 260 681 199 657 q 386 706 321 706 q 512 681 451 706 q 619 611 572 657 q 693 498 665 565 q 721 344 721 431 q 693 191 721 258 q 619 78 665 124 q 512 8 572 32 q 386 -17 451 -17 q 260 8 321 -17 q 152 78 199 32 q 78 191 106 124 q 50 344 50 258 m 260 344 q 291 201 260 254 q 386 149 322 149 q 481 201 449 149 q 513 344 513 254 q 481 488 513 435 q 386 540 449 540 q 291 488 322 540 q 260 344 260 435 m 304 1006 l 465 1006 l 599 797 l 461 797 l 388 907 l 382 907 l 308 797 l 171 797 l 304 1006 m 385 -314 q 303 -284 335 -314 q 272 -207 272 -254 q 303 -130 272 -160 q 385 -100 335 -100 q 466 -130 435 -100 q 497 -207 497 -160 q 466 -284 497 -254 q 385 -314 435 -314 z "},"ø":{"ha":771,"x_min":50,"x_max":721,"o":"m 306 169 q 386 142 338 142 q 486 194 449 142 q 524 333 524 246 q 514 428 524 390 l 306 169 m 464 521 q 386 547 433 547 q 285 495 322 547 q 247 356 247 443 q 257 263 247 300 l 464 521 m 642 586 q 699 480 678 540 q 721 344 721 419 q 693 191 721 258 q 619 78 665 124 q 512 8 572 32 q 386 -17 451 -17 q 200 39 283 -17 l 140 -35 l 64 24 l 129 104 q 72 209 93 149 q 50 344 50 269 q 78 498 50 431 q 152 611 106 565 q 260 681 199 657 q 386 706 321 706 q 482 692 435 706 q 569 651 529 678 l 631 726 l 707 667 l 642 586 z "},"œ":{"ha":1142,"x_min":50,"x_max":1092,"o":"m 257 344 q 288 201 257 254 q 375 149 318 149 q 464 201 432 149 q 496 344 496 254 q 464 488 496 435 q 375 540 432 540 q 288 488 318 540 q 257 344 257 435 m 50 344 q 76 498 50 431 q 147 611 103 565 q 251 681 192 657 q 375 706 310 706 q 503 674 449 706 q 599 585 558 642 q 697 674 640 643 q 817 706 754 706 q 936 680 885 706 q 1022 609 988 654 q 1074 503 1057 564 q 1092 371 1092 442 q 1089 320 1092 343 q 1083 285 1086 297 l 685 285 q 742 178 696 213 q 850 143 788 143 q 924 157 889 143 q 996 193 958 171 l 1067 61 q 949 4 1014 25 q 822 -17 883 -17 q 701 15 760 -17 q 600 104 643 46 q 502 14 557 44 q 371 -17 447 -17 q 246 8 304 -17 q 144 78 188 32 q 75 191 100 124 q 50 344 50 258 m 917 410 q 892 511 917 472 q 810 550 867 550 q 727 516 761 550 q 685 410 693 482 l 917 410 z "},"ơ":{"ha":771,"x_min":50,"x_max":753,"o":"m 386 149 q 481 201 449 149 q 513 344 513 254 q 481 488 513 435 q 386 540 449 540 q 291 488 322 540 q 260 344 260 435 q 291 201 260 254 q 386 149 322 149 m 713 886 q 740 838 728 867 q 753 775 753 810 q 715 668 753 708 q 618 611 676 628 q 693 499 665 565 q 721 344 721 432 q 693 191 721 258 q 619 78 665 124 q 512 8 572 32 q 386 -17 451 -17 q 260 8 321 -17 q 152 78 199 32 q 78 191 106 124 q 50 344 50 258 q 78 498 50 431 q 152 611 106 565 q 260 681 199 657 q 386 706 321 706 q 453 699 421 706 q 518 679 486 692 q 573 704 551 686 q 594 761 594 722 q 588 797 594 781 q 574 825 581 814 l 713 886 z "},"ớ":{"ha":771,"x_min":50,"x_max":753,"o":"m 386 149 q 481 201 449 149 q 513 344 513 254 q 481 488 513 435 q 386 540 449 540 q 291 488 322 540 q 260 344 260 435 q 291 201 260 254 q 386 149 322 149 m 713 886 q 740 838 728 867 q 753 775 753 810 q 715 668 753 708 q 618 611 676 628 q 693 499 665 565 q 721 344 721 432 q 693 191 721 258 q 619 78 665 124 q 512 8 572 32 q 386 -17 451 -17 q 260 8 321 -17 q 152 78 199 32 q 78 191 106 124 q 50 344 50 258 q 78 498 50 431 q 152 611 106 565 q 260 681 199 657 q 386 706 321 706 q 453 699 421 706 q 518 679 486 692 q 573 704 551 686 q 594 761 594 722 q 588 797 594 781 q 574 825 581 814 l 713 886 m 419 797 l 271 797 l 394 1006 l 592 1006 l 419 797 z "},"ờ":{"ha":771,"x_min":50,"x_max":753,"o":"m 386 149 q 481 201 449 149 q 513 344 513 254 q 481 488 513 435 q 386 540 449 540 q 291 488 322 540 q 260 344 260 435 q 291 201 260 254 q 386 149 322 149 m 713 886 q 740 838 728 867 q 753 775 753 810 q 715 668 753 708 q 618 611 676 628 q 693 499 665 565 q 721 344 721 432 q 693 191 721 258 q 619 78 665 124 q 512 8 572 32 q 386 -17 451 -17 q 260 8 321 -17 q 152 78 199 32 q 78 191 106 124 q 50 344 50 258 q 78 498 50 431 q 152 611 106 565 q 260 681 199 657 q 386 706 321 706 q 453 699 421 706 q 518 679 486 692 q 573 704 551 686 q 594 761 594 722 q 588 797 594 781 q 574 825 581 814 l 713 886 m 178 1006 l 375 1006 l 499 797 l 350 797 l 178 1006 z "},"ở":{"ha":771,"x_min":50,"x_max":753,"o":"m 386 149 q 481 201 449 149 q 513 344 513 254 q 481 488 513 435 q 386 540 449 540 q 291 488 322 540 q 260 344 260 435 q 291 201 260 254 q 386 149 322 149 m 713 886 q 740 838 728 867 q 753 775 753 810 q 715 668 753 708 q 618 611 676 628 q 693 499 665 565 q 721 344 721 432 q 693 191 721 258 q 619 78 665 124 q 512 8 572 32 q 386 -17 451 -17 q 260 8 321 -17 q 152 78 199 32 q 78 191 106 124 q 50 344 50 258 q 78 498 50 431 q 152 611 106 565 q 260 681 199 657 q 386 706 321 706 q 453 699 421 706 q 518 679 486 692 q 573 704 551 686 q 594 761 594 722 q 588 797 594 781 q 574 825 581 814 l 713 886 m 321 854 q 364 867 346 858 q 382 896 382 876 q 357 927 382 915 q 272 942 332 939 l 296 1044 q 476 1006 424 1040 q 529 917 529 972 q 514 855 529 881 q 472 812 499 829 q 410 785 446 794 q 336 774 375 776 l 321 854 z "},"ỡ":{"ha":771,"x_min":50,"x_max":753,"o":"m 386 149 q 481 201 449 149 q 513 344 513 254 q 481 488 513 435 q 386 540 449 540 q 291 488 322 540 q 260 344 260 435 q 291 201 260 254 q 386 149 322 149 m 713 886 q 740 838 728 867 q 753 775 753 810 q 715 668 753 708 q 618 611 676 628 q 693 499 665 565 q 721 344 721 432 q 693 191 721 258 q 619 78 665 124 q 512 8 572 32 q 386 -17 451 -17 q 260 8 321 -17 q 152 78 199 32 q 78 191 106 124 q 50 344 50 258 q 78 498 50 431 q 152 611 106 565 q 260 681 199 657 q 386 706 321 706 q 453 699 421 706 q 518 679 486 692 q 573 704 551 686 q 594 761 594 722 q 588 797 594 781 q 574 825 581 814 l 713 886 m 154 799 q 204 940 165 894 q 299 986 243 986 q 350 976 326 986 q 393 956 374 967 q 430 935 413 944 q 463 925 447 925 q 492 939 481 925 q 511 986 503 953 l 615 986 q 565 845 604 892 q 471 799 526 799 q 420 808 443 799 q 377 830 397 818 q 340 851 357 842 q 307 861 322 861 q 278 847 289 861 q 258 799 267 833 l 154 799 l 154 799 z "},"ợ":{"ha":771,"x_min":50,"x_max":753,"o":"m 386 149 q 481 201 449 149 q 513 344 513 254 q 481 488 513 435 q 386 540 449 540 q 291 488 322 540 q 260 344 260 435 q 291 201 260 254 q 386 149 322 149 m 713 886 q 740 838 728 867 q 753 775 753 810 q 715 668 753 708 q 618 611 676 628 q 693 499 665 565 q 721 344 721 432 q 693 191 721 258 q 619 78 665 124 q 512 8 572 32 q 386 -17 451 -17 q 260 8 321 -17 q 152 78 199 32 q 78 191 106 124 q 50 344 50 258 q 78 498 50 431 q 152 611 106 565 q 260 681 199 657 q 386 706 321 706 q 453 699 421 706 q 518 679 486 692 q 573 704 551 686 q 594 761 594 722 q 588 797 594 781 q 574 825 581 814 l 713 886 m 385 -314 q 303 -284 335 -314 q 272 -207 272 -254 q 303 -130 272 -160 q 385 -100 335 -100 q 466 -130 435 -100 q 497 -207 497 -160 q 466 -284 497 -254 q 385 -314 435 -314 z "},"ǫ":{"ha":771,"x_min":50,"x_max":721,"o":"m 265 -165 q 273 -116 265 -139 q 292 -74 281 -93 q 316 -40 303 -54 q 342 -14 329 -25 q 230 21 283 -7 q 137 94 176 49 q 74 203 97 140 q 50 344 50 265 q 78 498 50 431 q 152 611 106 565 q 260 681 199 657 q 386 706 321 706 q 512 681 451 706 q 619 611 572 657 q 693 498 665 565 q 721 344 721 431 q 705 222 721 275 q 659 128 689 169 q 588 55 629 86 q 496 0 546 24 q 424 -56 444 -24 q 403 -118 403 -87 q 421 -158 403 -146 q 461 -171 439 -171 q 488 -166 475 -171 q 511 -154 500 -161 l 553 -246 q 486 -279 526 -267 q 413 -292 446 -292 q 308 -260 350 -292 q 265 -165 265 -228 m 260 344 q 291 201 260 254 q 386 149 322 149 q 481 201 449 149 q 513 344 513 254 q 481 488 513 435 q 386 540 449 540 q 291 488 322 540 q 260 344 260 435 z "},"ŕ":{"ha":553,"x_min":90,"x_max":554,"o":"m 90 689 l 257 689 l 271 568 l 276 568 q 367 672 314 639 q 472 706 419 706 q 520 702 501 706 q 554 692 539 699 l 521 515 q 485 524 501 521 q 446 526 468 526 q 365 499 407 526 q 294 400 322 471 l 294 0 l 90 0 l 90 689 m 378 797 l 229 797 l 353 1006 l 550 1006 l 378 797 z "},"ŗ":{"ha":553,"x_min":49,"x_max":554,"o":"m 90 689 l 257 689 l 271 568 l 276 568 q 367 672 314 639 q 472 706 419 706 q 520 702 501 706 q 554 692 539 699 l 521 515 q 485 524 501 521 q 446 526 468 526 q 365 499 407 526 q 294 400 322 471 l 294 0 l 90 0 l 90 689 m 142 -58 q 273 -95 236 -68 q 310 -175 310 -122 q 290 -237 310 -211 q 236 -280 269 -262 q 158 -306 203 -297 q 64 -318 114 -315 l 49 -236 q 131 -219 99 -231 q 164 -185 164 -208 q 149 -153 164 -165 q 103 -133 135 -142 l 142 -58 l 142 -58 z "},"ř":{"ha":553,"x_min":90,"x_max":557,"o":"m 90 689 l 257 689 l 271 568 l 276 568 q 367 672 314 639 q 472 706 419 706 q 520 702 501 706 q 554 692 539 699 l 521 515 q 485 524 501 521 q 446 526 468 526 q 365 499 407 526 q 294 400 322 471 l 294 0 l 90 0 l 90 689 m 129 1006 l 267 1006 l 340 896 l 346 896 l 419 1006 l 557 1006 l 424 797 l 263 797 l 129 1006 z "},"ṛ":{"ha":553,"x_min":79,"x_max":554,"o":"m 90 689 l 257 689 l 271 568 l 276 568 q 367 672 314 639 q 472 706 419 706 q 520 702 501 706 q 554 692 539 699 l 521 515 q 485 524 501 521 q 446 526 468 526 q 365 499 407 526 q 294 400 322 471 l 294 0 l 90 0 l 90 689 m 192 -314 q 110 -284 142 -314 q 79 -207 79 -254 q 110 -130 79 -160 q 192 -100 142 -100 q 273 -130 242 -100 q 304 -207 304 -160 q 273 -284 304 -254 q 192 -314 242 -314 z "},"ṝ":{"ha":553,"x_min":79,"x_max":554,"o":"m 90 689 l 257 689 l 271 568 l 276 568 q 367 672 314 639 q 472 706 419 706 q 520 702 501 706 q 554 692 539 699 l 521 515 q 485 524 501 521 q 446 526 468 526 q 365 499 407 526 q 294 400 322 471 l 294 0 l 90 0 l 90 689 m 151 951 l 535 951 l 535 822 l 151 822 l 151 951 m 192 -314 q 110 -284 142 -314 q 79 -207 79 -254 q 110 -130 79 -160 q 192 -100 142 -100 q 273 -130 242 -100 q 304 -207 304 -160 q 273 -284 304 -254 q 192 -314 242 -314 z "},"ṟ":{"ha":553,"x_min":0,"x_max":554,"o":"m 90 689 l 257 689 l 271 568 l 276 568 q 367 672 314 639 q 472 706 419 706 q 520 702 501 706 q 554 692 539 699 l 521 515 q 485 524 501 521 q 446 526 468 526 q 365 499 407 526 q 294 400 322 471 l 294 0 l 90 0 l 90 689 m 383 -262 l 0 -262 l 0 -132 l 383 -132 l 383 -262 z "},"ś":{"ha":615,"x_min":29,"x_max":576,"o":"m 121 207 q 211 153 168 171 q 299 135 254 135 q 365 150 344 135 q 386 193 386 165 q 374 223 386 210 q 342 247 363 236 q 297 267 322 258 q 246 288 272 276 q 182 317 214 300 q 124 358 150 333 q 81 415 97 382 q 64 490 64 447 q 83 578 64 538 q 136 646 101 618 q 219 690 171 674 q 328 706 268 706 q 467 678 407 706 q 571 618 526 651 l 479 496 q 406 539 442 524 q 333 554 369 554 q 256 500 256 554 q 267 472 256 483 q 297 450 278 460 q 340 431 315 440 q 390 413 364 422 q 456 384 424 400 q 516 344 489 368 q 560 287 543 321 q 576 206 576 253 q 558 118 576 158 q 504 48 540 78 q 415 1 468 18 q 293 -17 363 -17 q 153 10 225 -17 q 29 79 82 36 l 121 207 m 361 797 l 213 797 l 336 1006 l 533 1006 l 361 797 z "},"ŝ":{"ha":615,"x_min":29,"x_max":576,"o":"m 121 207 q 211 153 168 171 q 299 135 254 135 q 365 150 344 135 q 386 193 386 165 q 374 223 386 210 q 342 247 363 236 q 297 267 322 258 q 246 288 272 276 q 182 317 214 300 q 124 358 150 333 q 81 415 97 382 q 64 490 64 447 q 83 578 64 538 q 136 646 101 618 q 219 690 171 674 q 328 706 268 706 q 467 678 407 706 q 571 618 526 651 l 479 496 q 406 539 442 524 q 333 554 369 554 q 256 500 256 554 q 267 472 256 483 q 297 450 278 460 q 340 431 315 440 q 390 413 364 422 q 456 384 424 400 q 516 344 489 368 q 560 287 543 321 q 576 206 576 253 q 558 118 576 158 q 504 48 540 78 q 415 1 468 18 q 293 -17 363 -17 q 153 10 225 -17 q 29 79 82 36 l 121 207 m 246 1006 l 407 1006 l 540 797 l 403 797 l 329 907 l 324 907 l 250 797 l 113 797 l 246 1006 z "},"š":{"ha":615,"x_min":29,"x_max":576,"o":"m 121 207 q 211 153 168 171 q 299 135 254 135 q 365 150 344 135 q 386 193 386 165 q 374 223 386 210 q 342 247 363 236 q 297 267 322 258 q 246 288 272 276 q 182 317 214 300 q 124 358 150 333 q 81 415 97 382 q 64 490 64 447 q 83 578 64 538 q 136 646 101 618 q 219 690 171 674 q 328 706 268 706 q 467 678 407 706 q 571 618 526 651 l 479 496 q 406 539 442 524 q 333 554 369 554 q 256 500 256 554 q 267 472 256 483 q 297 450 278 460 q 340 431 315 440 q 390 413 364 422 q 456 384 424 400 q 516 344 489 368 q 560 287 543 321 q 576 206 576 253 q 558 118 576 158 q 504 48 540 78 q 415 1 468 18 q 293 -17 363 -17 q 153 10 225 -17 q 29 79 82 36 l 121 207 m 113 1006 l 250 1006 l 324 896 l 329 896 l 403 1006 l 540 1006 l 407 797 l 246 797 l 113 1006 z "},"ş":{"ha":615,"x_min":29,"x_max":576,"o":"m 121 207 q 211 153 168 171 q 299 135 254 135 q 365 150 344 135 q 386 193 386 165 q 374 223 386 210 q 342 247 363 236 q 297 267 322 258 q 246 288 272 276 q 182 317 214 300 q 124 358 150 333 q 81 415 97 382 q 64 490 64 447 q 83 578 64 538 q 136 646 101 618 q 219 690 171 674 q 328 706 268 706 q 467 678 407 706 q 571 618 526 651 l 479 496 q 406 539 442 524 q 333 554 369 554 q 256 500 256 554 q 267 472 256 483 q 297 450 278 460 q 340 431 315 440 q 390 413 364 422 q 456 384 424 400 q 516 344 489 368 q 560 287 543 321 q 576 206 576 253 q 558 118 576 158 q 504 48 540 78 q 415 1 468 18 q 293 -17 363 -17 q 153 10 225 -17 q 29 79 82 36 l 121 207 m 274 6 l 393 6 l 365 -60 q 424 -95 401 -71 q 446 -162 446 -119 q 426 -224 446 -199 q 372 -268 406 -250 q 294 -295 339 -286 q 200 -307 250 -304 l 185 -225 q 267 -206 235 -219 q 300 -164 300 -192 q 283 -131 300 -146 q 218 -106 265 -117 l 274 6 z "},"ș":{"ha":615,"x_min":29,"x_max":576,"o":"m 121 207 q 211 153 168 171 q 299 135 254 135 q 365 150 344 135 q 386 193 386 165 q 374 223 386 210 q 342 247 363 236 q 297 267 322 258 q 246 288 272 276 q 182 317 214 300 q 124 358 150 333 q 81 415 97 382 q 64 490 64 447 q 83 578 64 538 q 136 646 101 618 q 219 690 171 674 q 328 706 268 706 q 467 678 407 706 q 571 618 526 651 l 479 496 q 406 539 442 524 q 333 554 369 554 q 256 500 256 554 q 267 472 256 483 q 297 450 278 460 q 340 431 315 440 q 390 413 364 422 q 456 384 424 400 q 516 344 489 368 q 560 287 543 321 q 576 206 576 253 q 558 118 576 158 q 504 48 540 78 q 415 1 468 18 q 293 -17 363 -17 q 153 10 225 -17 q 29 79 82 36 l 121 207 m 272 -58 q 403 -95 367 -68 q 440 -175 440 -122 q 420 -237 440 -211 q 367 -280 400 -262 q 289 -306 333 -297 q 194 -318 244 -315 l 179 -236 q 262 -219 229 -231 q 294 -185 294 -208 q 280 -153 294 -165 q 233 -133 265 -142 l 272 -58 l 272 -58 z "},"ṡ":{"ha":615,"x_min":29,"x_max":576,"o":"m 121 207 q 211 153 168 171 q 299 135 254 135 q 365 150 344 135 q 386 193 386 165 q 374 223 386 210 q 342 247 363 236 q 297 267 322 258 q 246 288 272 276 q 182 317 214 300 q 124 358 150 333 q 81 415 97 382 q 64 490 64 447 q 83 578 64 538 q 136 646 101 618 q 219 690 171 674 q 328 706 268 706 q 467 678 407 706 q 571 618 526 651 l 479 496 q 406 539 442 524 q 333 554 369 554 q 256 500 256 554 q 267 472 256 483 q 297 450 278 460 q 340 431 315 440 q 390 413 364 422 q 456 384 424 400 q 516 344 489 368 q 560 287 543 321 q 576 206 576 253 q 558 118 576 158 q 504 48 540 78 q 415 1 468 18 q 293 -17 363 -17 q 153 10 225 -17 q 29 79 82 36 l 121 207 m 326 790 q 245 820 276 790 q 214 897 214 850 q 245 974 214 944 q 326 1004 276 1004 q 408 974 376 1004 q 439 897 439 944 q 408 820 439 850 q 326 790 376 790 z "},"ṣ":{"ha":615,"x_min":29,"x_max":576,"o":"m 121 207 q 211 153 168 171 q 299 135 254 135 q 365 150 344 135 q 386 193 386 165 q 374 223 386 210 q 342 247 363 236 q 297 267 322 258 q 246 288 272 276 q 182 317 214 300 q 124 358 150 333 q 81 415 97 382 q 64 490 64 447 q 83 578 64 538 q 136 646 101 618 q 219 690 171 674 q 328 706 268 706 q 467 678 407 706 q 571 618 526 651 l 479 496 q 406 539 442 524 q 333 554 369 554 q 256 500 256 554 q 267 472 256 483 q 297 450 278 460 q 340 431 315 440 q 390 413 364 422 q 456 384 424 400 q 516 344 489 368 q 560 287 543 321 q 576 206 576 253 q 558 118 576 158 q 504 48 540 78 q 415 1 468 18 q 293 -17 363 -17 q 153 10 225 -17 q 29 79 82 36 l 121 207 m 322 -314 q 241 -284 272 -314 q 210 -207 210 -254 q 241 -130 210 -160 q 322 -100 272 -100 q 403 -130 372 -100 q 435 -207 435 -160 q 403 -284 435 -254 q 322 -314 372 -314 z "},"ß":{"ha":878,"x_min":90,"x_max":840,"o":"m 90 676 q 110 800 90 743 q 171 899 131 857 q 274 964 211 940 q 419 988 336 988 q 544 968 490 988 q 633 916 597 949 q 686 842 668 883 q 704 756 704 800 q 688 672 704 706 q 650 610 671 638 q 613 560 629 583 q 596 511 596 538 q 614 472 596 488 q 659 440 632 456 q 718 407 686 425 q 777 363 750 389 q 822 301 804 338 q 840 211 840 264 q 824 122 840 164 q 776 50 808 81 q 695 1 743 19 q 585 -17 647 -17 q 474 0 522 -17 q 375 46 425 17 l 446 185 q 578 135 514 135 q 634 153 614 135 q 654 201 654 172 q 636 247 654 228 q 591 281 618 265 q 532 315 564 297 q 473 355 500 332 q 428 409 446 378 q 410 486 410 440 q 425 556 410 526 q 459 611 440 585 q 493 666 478 638 q 508 732 508 694 q 485 799 508 772 q 419 826 463 826 q 324 780 356 826 q 292 653 292 733 l 292 0 l 90 0 l 90 676 z "},"ť":{"ha":532,"x_min":24,"x_max":513,"o":"m 118 529 l 24 529 l 24 681 l 129 689 l 153 872 l 322 872 l 322 689 l 488 689 l 488 529 l 322 529 l 322 253 q 347 169 322 194 q 411 143 371 143 q 445 147 428 143 q 476 157 463 151 l 508 8 q 443 -8 481 0 q 356 -17 406 -17 q 247 3 292 -17 q 173 57 201 22 q 131 141 144 92 q 118 250 118 190 l 118 529 m 389 761 l 381 1069 l 513 1069 l 510 974 l 476 761 l 389 761 z "},"ţ":{"ha":532,"x_min":24,"x_max":508,"o":"m 118 529 l 24 529 l 24 681 l 129 689 l 153 872 l 322 872 l 322 689 l 488 689 l 488 529 l 322 529 l 322 253 q 347 169 322 194 q 411 143 371 143 q 445 147 428 143 q 476 157 463 151 l 508 8 q 443 -8 481 0 q 356 -17 406 -17 q 247 3 292 -17 q 173 57 201 22 q 131 141 144 92 q 118 250 118 190 l 118 529 m 279 6 l 399 6 l 371 -60 q 429 -95 407 -71 q 451 -162 451 -119 q 431 -224 451 -199 q 378 -268 411 -250 q 300 -295 344 -286 q 206 -307 256 -304 l 190 -225 q 273 -206 240 -219 q 306 -164 306 -192 q 288 -131 306 -146 q 224 -106 271 -117 l 279 6 z "},"ț":{"ha":532,"x_min":24,"x_max":508,"o":"m 118 529 l 24 529 l 24 681 l 129 689 l 153 872 l 322 872 l 322 689 l 488 689 l 488 529 l 322 529 l 322 253 q 347 169 322 194 q 411 143 371 143 q 445 147 428 143 q 476 157 463 151 l 508 8 q 443 -8 481 0 q 356 -17 406 -17 q 247 3 292 -17 q 173 57 201 22 q 131 141 144 92 q 118 250 118 190 l 118 529 m 276 -58 q 408 -95 371 -68 q 444 -175 444 -122 q 424 -237 444 -211 q 371 -280 404 -262 q 293 -306 338 -297 q 199 -318 249 -315 l 183 -236 q 266 -219 233 -231 q 299 -185 299 -208 q 284 -153 299 -165 q 238 -133 269 -142 l 276 -58 l 276 -58 z "},"ṭ":{"ha":532,"x_min":24,"x_max":508,"o":"m 118 529 l 24 529 l 24 681 l 129 689 l 153 872 l 322 872 l 322 689 l 488 689 l 488 529 l 322 529 l 322 253 q 347 169 322 194 q 411 143 371 143 q 445 147 428 143 q 476 157 463 151 l 508 8 q 443 -8 481 0 q 356 -17 406 -17 q 247 3 292 -17 q 173 57 201 22 q 131 141 144 92 q 118 250 118 190 l 118 529 m 326 -314 q 245 -284 276 -314 q 214 -207 214 -254 q 245 -130 214 -160 q 326 -100 276 -100 q 408 -130 376 -100 q 439 -207 439 -160 q 408 -284 439 -254 q 326 -314 376 -314 z "},"ṯ":{"ha":532,"x_min":24,"x_max":518,"o":"m 118 529 l 24 529 l 24 681 l 129 689 l 153 872 l 322 872 l 322 689 l 488 689 l 488 529 l 322 529 l 322 253 q 347 169 322 194 q 411 143 371 143 q 445 147 428 143 q 476 157 463 151 l 508 8 q 443 -8 481 0 q 356 -17 406 -17 q 247 3 292 -17 q 173 57 201 22 q 131 141 144 92 q 118 250 118 190 l 118 529 m 518 -262 l 135 -262 l 135 -132 l 518 -132 l 518 -262 z "},"ẗ":{"ha":532,"x_min":-3,"x_max":508,"o":"m 118 529 l 24 529 l 24 681 l 129 689 l 153 872 l 322 872 l 322 689 l 488 689 l 488 529 l 322 529 l 322 253 q 347 169 322 194 q 411 143 371 143 q 445 147 428 143 q 476 157 463 151 l 508 8 q 443 -8 481 0 q 356 -17 406 -17 q 247 3 292 -17 q 173 57 201 22 q 131 141 144 92 q 118 250 118 190 l 118 529 m 94 988 q 24 1015 51 988 q -3 1085 -3 1043 q 24 1153 -3 1125 q 94 1181 51 1181 q 165 1153 138 1181 q 192 1085 192 1125 q 165 1015 192 1043 q 94 988 138 988 m 369 988 q 299 1015 326 988 q 272 1085 272 1043 q 299 1153 272 1125 q 369 1181 326 1181 q 440 1153 413 1181 q 467 1085 467 1125 q 440 1015 467 1043 q 369 988 413 988 z "},"ù":{"ha":789,"x_min":83,"x_max":700,"o":"m 83 689 l 288 689 l 288 288 q 308 185 288 213 q 374 157 329 157 q 439 175 413 157 q 496 233 465 193 l 496 689 l 700 689 l 700 0 l 533 0 l 518 96 l 514 96 q 419 13 469 43 q 297 -17 368 -17 q 134 57 185 -17 q 83 261 83 131 l 83 689 m 189 1006 l 386 1006 l 510 797 l 361 797 l 189 1006 z "},"ú":{"ha":789,"x_min":83,"x_max":700,"o":"m 83 689 l 288 689 l 288 288 q 308 185 288 213 q 374 157 329 157 q 439 175 413 157 q 496 233 465 193 l 496 689 l 700 689 l 700 0 l 533 0 l 518 96 l 514 96 q 419 13 469 43 q 297 -17 368 -17 q 134 57 185 -17 q 83 261 83 131 l 83 689 m 431 797 l 282 797 l 406 1006 l 603 1006 l 431 797 z "},"û":{"ha":789,"x_min":83,"x_max":700,"o":"m 83 689 l 288 689 l 288 288 q 308 185 288 213 q 374 157 329 157 q 439 175 413 157 q 496 233 465 193 l 496 689 l 700 689 l 700 0 l 533 0 l 518 96 l 514 96 q 419 13 469 43 q 297 -17 368 -17 q 134 57 185 -17 q 83 261 83 131 l 83 689 m 315 1006 l 476 1006 l 610 797 l 472 797 l 399 907 l 393 907 l 319 797 l 182 797 l 315 1006 z "},"ũ":{"ha":789,"x_min":83,"x_max":700,"o":"m 83 689 l 288 689 l 288 288 q 308 185 288 213 q 374 157 329 157 q 439 175 413 157 q 496 233 465 193 l 496 689 l 700 689 l 700 0 l 533 0 l 518 96 l 514 96 q 419 13 469 43 q 297 -17 368 -17 q 134 57 185 -17 q 83 261 83 131 l 83 689 m 165 799 q 215 940 176 894 q 310 986 254 986 q 361 976 338 986 q 404 956 385 967 q 441 935 424 944 q 474 925 458 925 q 503 939 492 925 q 522 986 514 953 l 626 986 q 576 845 615 892 q 482 799 538 799 q 431 808 454 799 q 388 830 408 818 q 351 851 368 842 q 318 861 333 861 q 289 847 300 861 q 269 799 278 833 l 165 799 l 165 799 z "},"ü":{"ha":789,"x_min":83,"x_max":700,"o":"m 83 689 l 288 689 l 288 288 q 308 185 288 213 q 374 157 329 157 q 439 175 413 157 q 496 233 465 193 l 496 689 l 700 689 l 700 0 l 533 0 l 518 96 l 514 96 q 419 13 469 43 q 297 -17 368 -17 q 134 57 185 -17 q 83 261 83 131 l 83 689 m 258 793 q 188 821 215 793 q 161 890 161 849 q 188 958 161 931 q 258 986 215 986 q 328 958 301 986 q 356 890 356 931 q 328 821 356 849 q 258 793 301 793 m 533 793 q 463 821 490 793 q 436 890 436 849 q 463 958 436 931 q 533 986 490 986 q 603 958 576 986 q 631 890 631 931 q 603 821 631 849 q 533 793 576 793 z "},"ū":{"ha":789,"x_min":83,"x_max":700,"o":"m 83 689 l 288 689 l 288 288 q 308 185 288 213 q 374 157 329 157 q 439 175 413 157 q 496 233 465 193 l 496 689 l 700 689 l 700 0 l 533 0 l 518 96 l 514 96 q 419 13 469 43 q 297 -17 368 -17 q 134 57 185 -17 q 83 261 83 131 l 83 689 m 203 951 l 586 951 l 586 822 l 203 822 l 203 951 z "},"ŭ":{"ha":789,"x_min":83,"x_max":700,"o":"m 83 689 l 288 689 l 288 288 q 308 185 288 213 q 374 157 329 157 q 439 175 413 157 q 496 233 465 193 l 496 689 l 700 689 l 700 0 l 533 0 l 518 96 l 514 96 q 419 13 469 43 q 297 -17 368 -17 q 134 57 185 -17 q 83 261 83 131 l 83 689 m 396 797 q 312 813 347 797 q 253 856 276 829 q 217 918 229 883 q 203 990 204 953 l 317 990 q 340 933 321 957 q 396 910 360 910 q 451 933 432 910 q 475 990 471 957 l 589 990 q 575 918 588 953 q 539 856 563 883 q 480 813 515 829 q 396 797 444 797 z "},"ů":{"ha":789,"x_min":83,"x_max":700,"o":"m 83 689 l 288 689 l 288 288 q 308 185 288 213 q 374 157 329 157 q 439 175 413 157 q 496 233 465 193 l 496 689 l 700 689 l 700 0 l 533 0 l 518 96 l 514 96 q 419 13 469 43 q 297 -17 368 -17 q 134 57 185 -17 q 83 261 83 131 l 83 689 m 396 761 q 282 799 325 761 q 239 903 239 838 q 282 1006 239 968 q 396 1044 325 1044 q 510 1006 467 1044 q 553 903 553 968 q 510 799 553 838 q 396 761 467 761 m 396 838 q 436 856 419 838 q 453 903 453 874 q 436 950 453 932 q 396 968 419 968 q 356 950 372 968 q 339 903 339 932 q 356 856 339 874 q 396 838 372 838 z "},"ű":{"ha":789,"x_min":83,"x_max":717,"o":"m 83 689 l 288 689 l 288 288 q 308 185 288 213 q 374 157 329 157 q 439 175 413 157 q 496 233 465 193 l 496 689 l 700 689 l 700 0 l 533 0 l 518 96 l 514 96 q 419 13 469 43 q 297 -17 368 -17 q 134 57 185 -17 q 83 261 83 131 l 83 689 m 317 1006 l 479 1006 l 347 796 l 222 796 l 317 1006 m 554 1006 l 717 1006 l 585 796 l 458 796 l 554 1006 z "},"ǔ":{"ha":789,"x_min":83,"x_max":700,"o":"m 83 689 l 288 689 l 288 288 q 308 185 288 213 q 374 157 329 157 q 439 175 413 157 q 496 233 465 193 l 496 689 l 700 689 l 700 0 l 533 0 l 518 96 l 514 96 q 419 13 469 43 q 297 -17 368 -17 q 134 57 185 -17 q 83 261 83 131 l 83 689 m 182 1006 l 319 1006 l 393 896 l 399 896 l 472 1006 l 610 1006 l 476 797 l 315 797 l 182 1006 z "},"ǖ":{"ha":789,"x_min":83,"x_max":700,"o":"m 83 689 l 288 689 l 288 288 q 308 185 288 213 q 374 157 329 157 q 439 175 413 157 q 496 233 465 193 l 496 689 l 700 689 l 700 0 l 533 0 l 518 96 l 514 96 q 419 13 469 43 q 297 -17 368 -17 q 134 57 185 -17 q 83 261 83 131 l 83 689 m 258 793 q 197 817 221 793 q 172 878 172 842 q 197 939 172 914 q 258 964 221 964 q 320 939 296 964 q 344 878 344 914 q 320 817 344 842 q 258 793 296 793 m 533 793 q 472 817 496 793 q 447 878 447 842 q 472 939 447 914 q 533 964 496 964 q 595 939 571 964 q 619 878 619 914 q 595 817 619 842 q 533 793 571 793 m 204 1146 l 588 1146 l 588 1050 l 204 1050 l 204 1146 z "},"ǘ":{"ha":789,"x_min":83,"x_max":700,"o":"m 83 689 l 288 689 l 288 288 q 308 185 288 213 q 374 157 329 157 q 439 175 413 157 q 496 233 465 193 l 496 689 l 700 689 l 700 0 l 533 0 l 518 96 l 514 96 q 419 13 469 43 q 297 -17 368 -17 q 134 57 185 -17 q 83 261 83 131 l 83 689 m 417 1178 l 592 1178 l 432 1024 l 301 1024 l 417 1178 m 258 793 q 197 817 221 793 q 172 878 172 842 q 197 939 172 914 q 258 964 221 964 q 320 939 296 964 q 344 878 344 914 q 320 817 344 842 q 258 793 296 793 m 533 793 q 472 817 496 793 q 447 878 447 842 q 472 939 447 914 q 533 964 496 964 q 595 939 571 964 q 619 878 619 914 q 595 817 619 842 q 533 793 571 793 z "},"ǚ":{"ha":789,"x_min":83,"x_max":700,"o":"m 83 689 l 288 689 l 288 288 q 308 185 288 213 q 374 157 329 157 q 439 175 413 157 q 496 233 465 193 l 496 689 l 700 689 l 700 0 l 533 0 l 518 96 l 514 96 q 419 13 469 43 q 297 -17 368 -17 q 134 57 185 -17 q 83 261 83 131 l 83 689 m 190 1178 l 329 1178 l 393 1097 l 399 1097 l 463 1178 l 601 1178 l 482 1024 l 310 1024 l 190 1178 m 258 793 q 197 817 221 793 q 172 878 172 842 q 197 939 172 914 q 258 964 221 964 q 320 939 296 964 q 344 878 344 914 q 320 817 344 842 q 258 793 296 793 m 533 793 q 472 817 496 793 q 447 878 447 842 q 472 939 447 914 q 533 964 496 964 q 595 939 571 964 q 619 878 619 914 q 595 817 619 842 q 533 793 571 793 z "},"ǜ":{"ha":789,"x_min":83,"x_max":700,"o":"m 83 689 l 288 689 l 288 288 q 308 185 288 213 q 374 157 329 157 q 439 175 413 157 q 496 233 465 193 l 496 689 l 700 689 l 700 0 l 533 0 l 518 96 l 514 96 q 419 13 469 43 q 297 -17 368 -17 q 134 57 185 -17 q 83 261 83 131 l 83 689 m 490 1024 l 360 1024 l 200 1178 l 375 1178 l 490 1024 m 533 793 q 472 817 496 793 q 447 878 447 842 q 472 939 447 914 q 533 964 496 964 q 595 939 571 964 q 619 878 619 914 q 595 817 619 842 q 533 793 571 793 m 258 793 q 197 817 221 793 q 172 878 172 842 q 197 939 172 914 q 258 964 221 964 q 320 939 296 964 q 344 878 344 914 q 320 817 344 842 q 258 793 296 793 z "},"ụ":{"ha":789,"x_min":83,"x_max":700,"o":"m 83 689 l 288 689 l 288 288 q 308 185 288 213 q 374 157 329 157 q 439 175 413 157 q 496 233 465 193 l 496 689 l 700 689 l 700 0 l 533 0 l 518 96 l 514 96 q 419 13 469 43 q 297 -17 368 -17 q 134 57 185 -17 q 83 261 83 131 l 83 689 m 421 -314 q 340 -284 371 -314 q 308 -207 308 -254 q 340 -130 308 -160 q 421 -100 371 -100 q 502 -130 471 -100 q 533 -207 533 -160 q 502 -284 533 -254 q 421 -314 471 -314 z "},"ủ":{"ha":789,"x_min":83,"x_max":700,"o":"m 83 689 l 288 689 l 288 288 q 308 185 288 213 q 374 157 329 157 q 439 175 413 157 q 496 233 465 193 l 496 689 l 700 689 l 700 0 l 533 0 l 518 96 l 514 96 q 419 13 469 43 q 297 -17 368 -17 q 134 57 185 -17 q 83 261 83 131 l 83 689 m 332 854 q 375 867 357 858 q 393 896 393 876 q 368 927 393 915 q 283 942 343 939 l 307 1044 q 488 1006 435 1040 q 540 917 540 972 q 525 855 540 881 q 483 812 510 829 q 422 785 457 794 q 347 774 386 776 l 332 854 z "}}}
